<svg width="228" height="50" viewBox="0 62 799 50" fill="none" xmlns="http://www.w3.org/2000/svg">
<g clip-path="url(#clip0_1043_711)">
<path d="M36.48 55.3401H18.99V123.15H32.73C34.56 121.19 35.46 118.45 36.57 116.01C44.54 98.3801 51.15 80.0301 59.46 62.5701C61.87 62.4401 74.67 61.7301 75.72 62.8101L101.05 122.54C102.23 123.73 113.63 123.23 115.93 122.66V56.0901L115.18 55.3401H98.69L97.94 54.5901V37.6401C97.94 37.5501 99.1 36.3901 99.19 36.3901H134.17L134.92 37.1401V141.34L134.17 142.09H110.68C109.58 142.76 110.41 144.01 110.71 145.06C113.2 153.79 119.69 163.4 122.19 171.99C122.39 172.66 122.51 173.3 122.43 174H102.19L101.07 172.63L87.95 142.34H45.97L31.74 174H12.49L24.91 143.25L24.23 142.09H0.75L0 141.34V37.1401L0.75 36.3901H35.73C38.21 42.1201 36.05 49.1301 36.48 55.3401ZM54.72 123.15H79.2L79.88 121.99L66.71 92.2401L54.04 121.99L54.72 123.15Z" fill="white"/>
<path d="M285.574 36.8999C289.994 37.3999 296.724 40.3899 300.044 43.3999C310.244 52.6199 309.054 73.0399 295.624 78.7499L295.304 80.0299C309.894 86.2699 304.544 105.06 308.804 117.17H289.064C288.644 117.17 287.594 115.41 287.424 114.81C285.404 107.5 288.184 94.5699 281.284 89.5299C280.494 88.9499 276.824 87.2499 276.074 87.2499H258.834V116.42L258.084 117.17H238.594L237.844 116.42V36.8999H285.564H285.574ZM258.844 72.2899H278.584C278.774 72.2899 281.654 71.0699 282.094 70.8099C287.174 67.8899 287.964 59.0799 283.504 55.4099C282.294 54.4099 278.034 52.8399 276.584 52.8399H259.594L258.844 53.5899V72.2899Z" fill="white"/>
<path d="M432.982 36.8999C452.492 38.8699 461.562 59.0599 449.732 74.5499C449.192 76.0299 443.562 78.5499 443.702 79.5299C443.852 80.5699 448.162 82.6999 449.482 84.2499C450.432 85.3599 451.702 87.5999 452.242 88.9699C455.672 97.6999 454.052 108.15 456.712 117.17H436.972C435.892 117.17 434.982 111.91 434.862 110.8C434.122 104.26 435.342 92.3999 428.392 88.8299C427.742 88.4999 424.412 87.2499 423.982 87.2499H407.492L406.742 87.9999V116.42L405.992 117.17H387.002C385.582 115.23 386.392 111.93 386.252 109.45C385.092 89.2399 386.072 66.0499 386.282 45.6499C386.312 42.7299 386.032 39.7899 386.262 36.8999H432.982ZM407.502 52.8499L406.752 53.5999V71.5499L407.502 72.2999H426.992C427.662 72.2999 431.592 69.8599 432.252 69.0699C434.812 65.9999 434.992 61.4299 433.492 57.8399C432.442 55.3099 427.602 52.8499 425.002 52.8499H407.512H407.502Z" fill="white"/>
<path d="M662.844 60.8299C662.694 60.7999 661.784 60.3199 661.704 60.2099C661.564 56.2299 657.944 52.4699 654.224 51.4699C650.714 50.5299 642.974 50.7899 640.124 53.1199C635.864 56.5899 637.424 61.5499 642.114 63.5699C655.404 69.2899 682.274 69.3299 684.524 88.5599C687.704 115.75 657.704 122.93 636.594 117.44C623.674 114.08 615.264 104.6 614.594 91.0899C614.694 90.7699 615.754 90.2499 615.874 90.2499H634.364C634.434 90.2499 635.484 90.7899 635.524 90.8499C636.024 95.9099 637.384 99.2399 642.164 101.41C647.304 103.75 660.114 104.33 663.024 98.3999C665.934 92.4699 661.984 89.2999 656.864 87.2499C644.384 82.2499 622.084 80.9599 618.354 65.3499C610.004 30.4499 674.034 23.2499 680.854 54.8399C681.074 55.8699 682.204 60.8399 680.834 60.8399C675.444 60.1799 667.964 61.7199 662.844 60.8399V60.8299Z" fill="white"/>
<path d="M589.382 60.8301C587.782 57.9401 587.822 55.9001 585.092 53.6401C579.672 49.1601 563.242 49.8801 564.762 58.9501C565.722 64.7001 578.802 65.9601 583.742 67.4501C594.112 70.5801 608.372 74.3701 611.072 86.5501C619.692 125.33 549.792 130.97 542.302 96.3401C541.972 94.8301 540.762 90.2501 542.912 90.2501H561.902L562.572 91.0801C562.432 94.9301 564.712 99.1301 568.122 101C573.362 103.88 586.932 104.6 590.052 98.4001C592.912 92.7101 588.872 89.2101 583.912 87.2401C570.382 81.8801 546.132 80.7401 544.732 62.0201C542.162 27.6101 604.342 26.0701 608.082 55.6401C608.272 57.1601 608.522 59.7701 607.372 60.8301H589.382Z" fill="white"/>
<path d="M485.698 36.8999V86.0099C485.698 86.9099 486.118 90.7999 486.318 91.8799C488.468 103.7 507.928 105.04 512.378 94.6799C512.588 94.1799 513.678 90.7199 513.678 90.4999V37.6499L514.428 36.8999H533.918L534.668 37.6499V90.4999C534.668 107.5 520.678 117.5 504.928 118.66C479.528 120.54 465.978 111.4 464.688 85.5399C464.028 72.2799 463.658 52.6799 464.688 39.6199C464.768 38.6599 464.978 37.8199 465.208 36.8999H485.698Z" fill="white"/>
<path d="M233.351 117.17H213.111C210.011 113.27 209.341 107.6 207.421 103.01L179.711 102.79C177.561 103.52 175.831 115.48 173.131 117.17H153.391L182.471 37.0002C183.261 36.4802 184.191 36.4401 185.101 36.3701C189.401 36.0501 197.421 35.9401 201.641 36.3701C204.781 36.6801 204.871 39.3802 205.951 42.0402C209.841 51.6502 212.901 61.6701 216.521 71.3801C221.551 84.8701 229.331 101.29 233.001 114.76C233.221 115.56 233.451 116.31 233.341 117.16L233.351 117.17ZM201.871 87.2501C200.401 78.6702 196.501 70.5501 194.401 62.0501L192.631 60.3202L184.381 87.2501H201.871Z" fill="white"/>
<path d="M798.499 117.17H778.259C775.279 113.26 774.519 107.57 772.569 103.01L744.859 102.79C743.599 103.22 740.419 114.3 739.519 116.28C739.379 116.63 738.509 117.17 738.279 117.17H718.539L747.619 37C748.569 36.38 749.669 36.44 750.749 36.37C753.459 36.21 766.789 36.02 768.389 36.76C768.829 36.97 769.189 37.28 769.449 37.7L797.499 112.92L798.489 117.16L798.499 117.17ZM749.529 87.25H766.769L767.449 86.09L758.779 60.31L757.529 60.65L749.529 87.24V87.25Z" fill="white"/>
<path d="M378.759 36.8999V53.5999L378.009 54.3499H355.269C355.429 54.8399 354.769 55.4299 354.769 55.5999V116.43L354.019 117.18H335.029C334.939 117.18 333.779 116.02 333.779 115.93V54.3499H311.039L310.289 53.5999V36.8999H378.749H378.759Z" fill="white"/>
<path d="M693.071 36.8999H712.811L713.561 37.6499V116.43L712.811 117.18H693.821L692.801 115.71C693.161 91.2699 691.551 66.0199 692.551 41.6199C692.621 40.0299 692.881 38.4599 693.071 36.9099V36.8999Z" fill="white"/>
<path d="M445.719 158.55C446.739 158.72 447.139 157.91 447.639 157.22C451.929 151.29 454.529 141.02 458.829 134.98C459.149 134.53 460.009 133.62 460.459 133.62H469.449L470.199 134.37V173.26C469.969 173.56 469.739 173.82 469.359 173.93C468.679 174.14 462.919 174.05 462.049 173.88C459.709 173.42 460.699 172.39 460.699 171.26V148.57C459.949 148.68 459.769 149.51 459.439 150.05C455.649 156.37 453.189 163.65 449.479 170.03C448.719 171.34 447.489 173.7 445.949 173.98C444.409 174.26 436.219 174.39 436.219 172.75V134.11C439.209 134.14 443.099 133.11 445.709 134.36V158.54L445.719 158.55Z" fill="white"/>
<path d="M509.18 173.51C507.34 174.09 500.4 174.66 499.43 173.02L499.12 159.87C497.15 157.72 495.18 159.59 493.71 161.31C490.37 165.21 488.13 170.82 483.95 174.01H473.46L472.75 172.82C474.32 169.8 483.28 161.55 483.24 158.79C483.23 157.76 479.81 156.86 478.68 155.83C473.31 150.95 474.07 139.83 480.44 136.1C482.17 135.09 487.06 133.62 488.95 133.62H508.44L509.19 134.37V173.51H509.18ZM499.19 142.1H488.45C488.21 142.1 486.02 143.47 485.75 143.89C484.91 145.2 484.91 148.47 485.75 149.78C486.02 150.21 488.21 151.57 488.45 151.57H498.44L499.19 150.82V142.09V142.1Z" fill="white"/>
<path d="M330.19 133.27C362.74 129.59 358.9 182.66 326.69 173.86C307.55 168.63 309.33 135.63 330.19 133.27ZM332.16 141.21C321.76 142.15 321.22 163.04 329.79 165.79C344.62 170.55 345.7 144.96 336.3 141.85C335.5 141.59 332.95 141.15 332.16 141.22V141.21Z" fill="white"/>
<path d="M280.133 133.72C287.963 134.09 304.633 131.69 309.803 138.86C314.283 145.07 312.833 156.16 305.203 159.19C299.853 161.31 294.833 159.93 289.543 161.01C288.653 163.45 290.293 172.25 288.623 173.55C287.693 174.28 278.183 175.08 278.863 171.72C279.753 160.55 277.563 147.26 278.823 136.34C278.923 135.51 279.213 133.92 280.133 133.71V133.72ZM289.323 142.59V151.81L290.073 152.56H298.563C298.733 152.56 301.033 151.16 301.323 150.83C303.513 148.36 301.713 142.59 299.063 142.59H289.323Z" fill="white"/>
<path d="M432.727 158.55C432.897 166.07 426.907 173.29 419.357 174.37C386.027 179.14 387.507 128.8 418.357 133.25C423.197 133.95 429.197 137.81 431.317 142.25C431.717 143.1 433.527 148.07 431.977 148.07H423.977C422.407 148.07 421.537 142.2 415.917 141.64C401.187 140.18 401.627 168.41 416.447 165.99C420.877 165.27 421.537 161.81 423.467 158.54H432.707L432.727 158.55Z" fill="white"/>
<path d="M391.998 158.55C393.828 159.12 391.748 163.99 391.188 165.22C387.628 173.11 380.148 175.14 371.988 174.53C349.188 172.8 348.448 134.24 373.488 133.1C380.708 132.77 390.468 136.71 392.138 144.45C393.388 150.28 387.398 147.56 383.608 147.98C380.578 144.52 379.628 141.18 374.028 141.58C361.728 142.46 361.958 166.98 375.538 166.06C380.868 165.7 381.268 162.45 383.508 158.55H391.998Z" fill="white"/>
<path d="M154.647 174.01C154.257 173.89 153.887 173.19 153.867 172.75L167.677 135.16C168.737 132.97 176.997 133.24 178.177 134.09C178.767 134.51 179.307 135.91 179.627 136.63C183.717 145.71 187.837 157.99 191.107 167.56C191.767 169.49 192.597 171.45 192.867 173.49C192.337 174.24 184.717 174.23 183.497 173.65C181.237 172.56 182.007 167.3 179.027 166.64C177.307 166.26 169.987 166.26 168.117 166.51C164.067 167.05 165.447 174.01 162.147 174.01C160.507 174.01 155.747 174.35 154.647 174.01ZM177.387 159.05C177.507 157.22 174.197 146.1 173.137 146.1L169.097 157.04L169.387 159.05H177.387Z" fill="white"/>
<path d="M204.373 173.51C203.963 174.15 195.723 174.41 194.483 173.4C193.783 172.75 194.373 172.15 194.373 171.77V134.13C201.663 133.53 211.333 132.89 218.473 134.77C230.293 137.87 230.553 156.33 218.763 159.71C218.183 159.88 215.403 160.56 215.113 160.56H205.123L204.373 161.31V173.53V173.51ZM214.123 142.59C211.543 142.14 207.863 142.92 205.133 142.59L204.383 143.34V151.32C204.383 153.26 214.043 152.97 215.923 151.36C218.473 149.19 217.673 143.21 214.133 142.59H214.123Z" fill="white"/>
<path d="M76.4475 0.000234375V37.1402L75.6975 37.8902H59.2075C58.2575 36.8202 58.0575 34.6502 57.9375 33.1702C57.1975 23.8402 58.7375 13.3802 58.4775 3.71023C58.4575 2.92023 57.4475 -0.00976562 58.7075 -0.00976562H76.4475V0.000234375Z" fill="white"/>
<path d="M239.353 143.09L227.833 142.37L227.413 141.78C228.233 138.03 225.203 134.05 230.593 133.6C237.913 132.99 249.693 133.15 257.123 133.6C257.983 133.65 261.013 133.88 261.403 134.42L261.633 142.13L249.863 143.1V172.77C249.863 174.48 240.643 174.75 239.373 172.77V143.1L239.353 143.09Z" fill="white"/>
</g>
<defs>
<clipPath id="clip0_1043_711">
<rect width="798.5" height="174.85" fill="white"/>
</clipPath>
</defs>
</svg>
