<svg width="244" height="67" viewBox="0 30 470 67" fill="none" xmlns="http://www.w3.org/2000/svg">
<g clip-path="url(#clip0_1043_547)">
<path d="M50.8186 0L56.8759 1.07425C63.7156 2.99021 69.7326 6.89709 74.4712 12.2395C75.0191 12.3125 74.7749 12.178 74.8326 11.8609C75.0825 10.4734 75.6496 8.86303 76.2994 7.57547C76.9491 6.28791 80.5132 1.59696 81.953 1.73725C82.424 1.78337 86.3764 7.46208 87.1107 8.11739C101.225 30.152 100.823 57.1984 86.5974 79.2522C83.6562 83.8106 79.1175 87.8616 78.0449 93.252C77.9795 93.5806 77.597 93.9996 77.597 94.0553V122.409H73.7176C70.7841 122.409 66.3569 119.053 64.6249 116.757C64.2904 116.313 63.2312 114.233 62.9544 114.164C62.4872 114.049 61.5415 115.952 61.1685 116.384C54.2961 124.382 43.2522 124.371 36.3951 116.328C36.101 115.982 35.2571 114.247 34.9284 114.164C34.565 114.072 34.517 114.395 34.344 114.577C33.6154 115.344 32.7965 117.137 31.9564 118.05C30.8434 119.261 28.227 121.169 26.6834 121.667C26.2643 121.803 24.3054 122.407 24.1709 122.407H20.4165C20.3896 122.407 20.0417 122.059 20.0417 122.032V95.3025C20.0417 89.6526 14.4611 84.4294 11.5775 80.0324C6.56402 72.3935 3.04227 64.2147 1.05071 55.3074L0.0203266 45.4643C0.0664631 44.2229 -0.0431112 42.9565 0.0203266 41.7169C0.560508 31.1455 3.34408 20.2627 8.73052 11.0673C10.6644 7.76764 13.075 4.7755 15.5376 1.88714L16.3719 1.73532C16.7602 2.51362 17.5349 2.74039 18.0885 3.24965C20.6241 5.58455 22.3254 9.12054 22.9175 12.4874C25.5992 9.64325 28.6019 6.79716 31.966 4.77935C35.9703 2.37718 41.9219 0.380503 46.8143 0H50.8186ZM60.7494 8.32686C51.6144 4.17208 40.607 5.31167 32.5735 10.8905C17.5983 21.287 12.7675 43.3139 19.9417 59.6755C24.3054 69.6263 33.9999 77.7648 35.7761 88.5841C36.0433 90.2138 36.4413 92.7408 36.5566 94.3013C36.9026 99.0499 35.7819 103.908 37.5697 108.278C40.3667 115.114 47.2949 119.005 54.2365 115.202C63.3754 110.194 60.4265 98.6944 61.6087 90.0869C63.3504 77.4227 73.8945 69.5782 78.3198 58.2592C85.0442 41.0597 78.4678 16.3885 60.7494 8.32878V8.32686ZM15.9432 23.8967C17.6829 19.4998 19.3477 15.9734 17.4619 11.1902C16.2104 8.01554 15.501 10.262 14.3688 11.9493C1.77736 30.7266 2.19259 54.9308 13.8171 74.027C16.7583 78.8602 24.0575 86.526 24.54 92.0567C25.159 99.1556 24.984 107.842 24.8091 115.048C24.7995 115.473 24.7303 115.78 24.5438 116.155C28.0406 115.75 30.8568 111.399 31.4374 108.176C32.1717 104.108 31.6988 92.4891 30.7319 88.3727C29.1036 81.4526 23.2251 75.6797 19.588 69.7704C10.2703 54.6367 9.49946 40.1719 15.9451 23.8948L15.9432 23.8967ZM72.8391 116.159V93.8016C72.8391 87.3561 80.3248 79.5808 83.7004 74.1673C94.4041 57.0062 95.6652 35.2772 86.3571 17.3052C85.5344 15.7178 82.8508 10.4773 81.6051 9.60866C81.3206 9.41072 81.3206 9.36652 81.0822 9.64709C80.0537 10.8655 79.6885 12.5451 79.5827 14.1017C79.2675 18.7138 80.5459 20.9968 82.1164 25.0402C88.7716 42.1762 86.4571 57.3349 76.4455 72.1706C71.7934 79.062 67.172 83.4915 66.0974 92.3161C65.7879 94.8509 65.6899 105.955 66.1532 108.22C66.4761 109.798 67.9794 112.754 69.0867 113.964C69.4673 114.381 72.3931 116.628 72.841 116.159H72.8391Z" fill="white"/>
<path d="M207.223 3.62307C207.299 3.35595 207.78 3.16186 208.078 3.24449L229.624 17.7382C230.187 17.8055 229.901 17.6363 230.014 17.3807C231.923 13.1107 233.98 9.26528 237.698 6.25969C248.982 -2.85701 264.04 1.66483 270.376 14.5193C274.276 22.4311 274.432 32.0897 270.826 40.1398C270.451 40.9758 268.4 43.818 269.094 44.4003C269.864 44.7174 274.176 47.4462 274.278 47.8536C273.527 48.7742 273.075 51.0341 272.51 51.8124C272.064 52.4274 271.472 52.2775 270.843 52.02L265.185 48.2322C264.699 48.3149 263.169 50.0387 262.681 50.3711C245.618 61.913 228.059 45.9857 227.978 27.8446C227.974 26.8837 228.799 24.1702 228.432 23.5361L212.223 12.7417V51.5857C212.223 52.5427 208.005 52.2794 207.219 51.9604V3.62307H207.223ZM232.996 26.73V30.6023C232.996 30.781 233.655 33.6155 233.774 34.071C236.592 44.7846 248.082 52.7176 258.719 46.2336C258.978 46.076 260.326 45.7417 260.245 45.1363L247.24 36.1138C246.504 35.495 248.855 31.346 249.12 31.3018C249.303 31.271 250.007 31.517 250.237 31.6246C253.686 33.2273 258.678 37.5032 262.156 39.7094C262.854 40.1513 263.611 40.6222 264.374 40.9469C265.174 40.7548 267.388 35.4431 267.665 34.4822C271.283 21.9007 263.698 6.20396 249.124 7.23016C242.661 7.68561 236.719 13.4162 234.522 19.1814C234.299 19.7675 234.045 20.8245 234.607 21.2473L243.526 27.1489C244.03 27.7274 241.977 31.7149 241.765 31.8629C241.464 32.0743 241.071 32.009 240.76 31.8399L232.992 26.7261L232.996 26.73Z" fill="white"/>
<path d="M146.668 121.407C146.507 121.661 141.916 122.155 141.914 120.782L142.033 72.6892L142.787 72.4375L163.685 86.6852V73.0717C163.685 73.0236 164.306 72.3971 164.431 72.449L223.747 112.913C223.876 112.965 224.243 112.579 224.243 112.54V74.071C224.243 72.6989 228.049 73.1716 228.997 73.4464V122.408L169.065 82.1826C168.854 82.1 168.439 82.4843 168.439 82.5631V89.808L178.085 96.4169C179.169 97.4258 176.672 99.7991 176.634 101.11C175.592 101.88 175.059 100.779 174.506 100.433C172.681 99.2918 170.976 97.9754 169.167 96.8569C168.9 96.6917 168.808 96.5994 168.437 96.6782V121.284C168.437 121.311 168.089 121.659 168.062 121.659H163.933L163.669 120.296V93.3613C163.577 92.8847 156.637 88.6146 155.617 87.9209C153.602 86.5507 151.668 85.1651 149.734 83.6931L146.664 81.9385V121.407H146.668Z" fill="white"/>
<path d="M364.62 3.24805C364.974 3.99368 365.151 8.99402 364.245 8.99402H327.336V24.6062C327.336 24.8099 328.132 25.3403 328.449 25.2423C340.01 25.8034 352.284 24.5043 363.751 25.1077C364.045 25.1231 364.87 25.3633 364.87 25.6055V29.8525C364.87 30.1119 364.255 30.7269 363.993 30.7269H327.709C327.682 30.7269 327.334 31.0747 327.334 31.1016V46.7138H363.993C365.154 46.7138 364.989 50.4535 364.883 51.349C364.789 52.1446 364.501 52.3002 363.726 52.4425L323.943 52.4713L322.578 52.2099V3.62278C322.578 3.59588 322.926 3.24805 322.953 3.24805H364.618H364.62Z" fill="white"/>
<path d="M405.665 72.9412V77.8128C405.665 77.8397 405.317 78.1876 405.29 78.1876H368.381V94.4243H405.04C405.084 94.4243 405.482 94.8086 405.536 94.9278C405.838 95.5715 405.892 100.17 405.04 100.17H368.381V116.157H405.165C405.186 116.157 405.123 116.436 405.254 116.568C405.384 116.701 405.665 116.636 405.665 116.657V121.279C405.665 121.323 405.084 121.903 405.04 121.903H363.625V73.0661C363.625 73.0392 363.973 72.6914 364 72.6914H405.038C405.121 72.6914 405.419 73.0219 405.663 72.9412H405.665Z" fill="white"/>
<path d="M301.404 75.8459C312.49 84.438 313.866 99.9656 308.047 111.717C307.959 111.896 307.682 111.921 307.59 112.111C307.328 112.655 307.157 113.251 306.819 113.766C307.373 114.06 307.978 114.771 308.405 115.067C308.691 115.264 309.11 115.238 309.403 115.443C309.862 115.768 311.946 117.307 312.027 117.588C312.217 118.249 310.443 122.004 309.914 122.106C308.86 122.311 304.685 118.207 303.182 118.13C302.886 118.114 299.356 121.124 298.397 121.62C282.916 129.601 268.479 116.671 266.29 101.532C263.447 81.8667 283.235 61.7654 301.404 75.8459ZM293.728 77.5236C281.113 73.4322 271.04 85.8658 271.011 97.548C270.978 110.614 282.755 123.163 296.113 116.592C296.967 116.173 297.697 115.464 298.553 115.036L284.798 105.66C284.577 105.033 285.156 105.254 285.287 104.987C285.536 104.484 285.798 103.934 286.021 103.467C286.759 101.918 286.344 100.275 288.731 101.597C289.027 101.76 289.087 102.068 289.36 102.245C293.472 104.883 297.545 107.568 301.513 110.389C301.923 110.583 302.665 110.716 302.993 110.341C303.128 110.187 304.312 107.87 304.497 107.472C309.293 97.1253 305.319 81.2825 293.726 77.5217L293.728 77.5236Z" fill="white"/>
<path d="M432.186 10.4919V25.8542C432.186 25.8811 432.534 26.229 432.561 26.229H463.339C463.366 26.229 463.714 26.5768 463.714 26.6037V31.6002C463.714 31.6271 463.366 31.9749 463.339 31.9749H432.81C432.728 31.9749 432.43 32.3055 432.186 32.2248V47.5871C432.186 47.6313 432.766 48.2116 432.81 48.2116H463.339C463.366 48.2116 463.714 48.5595 463.714 48.5864V53.7078H427.68V4.87083C427.68 4.84393 428.028 4.49609 428.055 4.49609H463.337C463.364 4.49609 463.712 4.84393 463.712 4.87083V9.86733C463.712 9.89424 463.364 10.2421 463.337 10.2421H432.809C432.726 10.2421 432.428 10.5726 432.184 10.4919H432.186Z" fill="white"/>
<path d="M430.933 118.658C430.689 118.394 426.671 121.569 425.679 121.154L426.929 114.912C425.031 114.978 423.376 116.083 421.425 115.91C421.342 115.833 421.544 114.979 421.636 114.757C421.819 114.311 422.711 113.135 422.905 112.718C423.044 112.42 424.036 110.016 423.926 109.918L418.422 109.666C417.815 109.072 421.857 105.528 421.661 104.573C421.585 104.327 419.587 103.683 419.166 103.553C418.515 103.349 416.65 103.351 416.656 102.55C416.661 101.821 420.527 99.5652 420.921 98.5544C420.867 98.3161 417.363 96.354 416.79 95.9312C416.573 95.7698 416.069 95.7852 416.169 95.3067C416.327 94.5591 420.483 93.3311 421.262 92.9295C421.906 92.597 421.096 92.4068 420.931 92.23C420.398 91.6592 417.296 88.5787 417.244 88.3154C417.225 88.2193 417.401 87.7139 417.582 87.6716C418.486 87.4583 420.277 87.6005 421.283 87.4199C421.846 87.318 422.315 86.8837 422.924 86.9317C422.58 86.0631 419.333 82.0371 419.922 81.4394L425.427 81.6873C425.262 80.7495 423.22 76.2123 423.538 75.6915C423.874 75.1362 424.416 75.4629 424.616 75.926L428.932 77.4422L428.184 70.9487L429.12 71.0217C429.362 71.3984 432.963 74.1849 433.186 73.9466C432.942 71.8096 434.009 70.0051 433.684 67.8432C433.674 67.6087 434.172 67.6606 434.311 67.6991C434.551 67.7663 436.967 71.016 437.486 71.531C437.707 71.7482 437.702 72.0768 438.19 71.9499L439.441 66.3846C439.453 66.1924 440.02 66.0022 440.076 66.0079C440.741 66.0906 442.629 71.1832 443.073 71.1966C443.867 70.6316 445.506 66.0771 446.07 66.0118C446.156 66.0022 446.487 66.2174 446.669 66.2424L448.205 71.9499C448.522 72.1998 451.462 67.9777 451.708 67.8317C451.931 67.701 452.619 67.6222 452.706 67.7029C452.93 67.9201 452.78 73.1472 452.957 73.9485C453.35 74.0254 453.532 73.9082 453.842 73.7102C454.514 73.2798 457.344 70.7046 457.586 70.7066C458.797 70.7123 457.538 74.3194 457.475 74.8383C457.371 75.6858 457.515 76.5928 457.463 77.4461C457.652 77.6575 461.923 75.1977 462.715 75.4494C463.138 75.8779 461.058 80.8399 460.716 81.6912C462.383 81.6624 464.057 81.3549 465.722 81.2972C466.077 81.2857 466.191 81.1397 466.47 81.572L463.465 86.9337C464.97 87.5736 466.516 87.4525 468.1 87.6831C469.165 87.8369 469.22 88.0848 468.559 88.8669C467.915 89.6299 464.92 92.0878 464.962 92.8046C465.735 93.3061 469.816 94.6052 469.97 95.3105C470.018 95.5334 469.021 96.2502 468.776 96.4174C468.329 96.723 465.301 98.368 465.218 98.5582C465.259 98.8715 465.933 99.5018 466.158 99.6805C466.675 100.094 469.586 101.9 469.728 102.323C469.797 102.53 469.795 102.784 469.572 102.947C469.04 103.336 464.616 104.212 464.472 104.435C464.095 105.013 464.853 105.186 464.964 105.357C465.556 106.255 466.17 107.216 466.812 108.067C467.214 108.599 468.173 108.857 467.971 109.67C466.393 109.743 464.372 109.67 462.836 109.918C462.542 109.966 462.392 110.06 462.219 110.294L464.966 115.913C462.944 116.094 461.183 114.933 459.213 114.918C459.505 117.043 460.495 119.007 460.462 121.16C460.076 121.571 456.045 118.942 455.208 118.663V125.159C454.213 125.261 451.091 120.987 450.454 121.663L449.705 127.524C449.705 127.765 449.257 127.688 449.107 127.628C448.669 127.455 446.639 124.073 446.131 123.354C445.991 123.156 445.798 122.651 445.452 122.912C445.249 123.066 444.384 126.454 444.174 126.961C444.101 127.138 443.84 127.144 443.728 127.365C443.532 127.749 443.688 128.493 442.953 128.654C442.006 126.875 441.464 124.821 440.693 122.912C440.252 122.561 437.596 127.576 437.317 127.665C437.102 127.732 436.842 127.759 436.69 127.488C435.833 125.958 436.489 123.151 435.318 121.669C434.883 121.64 431.879 125.226 430.939 125.159C430.725 124.801 430.939 124.498 430.939 124.286V118.665L430.933 118.658ZM435.187 72.6936V76.3161C435.187 76.5006 434.724 78.1245 434.441 77.938C434.42 77.9246 434.526 77.5998 434.253 77.4499C434.009 77.3173 433.593 77.3692 433.363 77.2039C433.169 77.0637 430.991 74.8364 430.685 75.1938C430.958 76.9445 431.406 78.5934 431.185 80.4401C430.704 80.9129 427.398 79.1814 426.683 78.9412C426.85 80.8764 428.372 82.4676 428.182 84.4354L423.68 83.9377C423.19 84.42 426.648 87.8715 425.931 88.9323L421.427 89.4338C421.348 89.9143 421.898 90.1641 422.221 90.5042C422.609 90.9136 424.885 92.8795 424.933 93.0602C425.008 93.3407 425.018 93.5098 424.754 93.6809C424.109 94.0979 420.908 95.1049 420.677 95.5565C420.446 96.0081 422.953 96.7672 423.122 97.4129C423.839 97.5263 424.433 97.7338 424.435 98.5717C424.435 99.154 423.267 99.5614 423.026 99.7632C422.592 100.126 421.848 100.741 421.481 101.097C420.233 102.304 424.351 102.753 425.179 102.924C425.537 104.068 424.739 104.141 424.516 104.508C423.849 105.603 423.092 106.581 422.426 107.671H426.931C427.136 109.637 425.568 111.188 424.929 112.914C425.264 113.171 429.143 111.47 429.568 112.154C429.993 112.839 428.54 116.309 428.684 117.412L431.89 115.444L432.936 115.166V120.662C434.457 119.857 435.252 118.048 436.936 117.414L437.944 122.659C438.857 122.009 439.626 119.801 440.316 119.159C441.279 118.262 441.602 119.386 441.862 120.118C442.242 121.19 442.509 122.343 442.95 123.406C443.305 123.349 443.576 122.597 443.705 122.292C443.997 121.596 444.316 120.66 444.589 119.92C444.697 119.628 444.662 118.946 444.699 118.911C445.791 117.872 447.559 122.486 448.448 122.659C448.236 121.344 448.847 120.193 449.141 118.977C449.228 118.621 449.155 117.708 449.201 117.662C449.893 116.982 451.419 119.267 451.775 119.592C452.1 119.888 452.85 119.995 453.201 120.662C453.461 119.784 452.767 115.477 453.211 115.166C453.922 115.058 457.177 117.478 457.458 117.164L456.71 111.92L461.462 112.915C461.558 112.527 461.106 112.775 460.97 112.489C460.822 112.178 460.835 111.737 460.649 111.359C460.078 110.19 459.072 109.014 459.211 107.673H463.715C463.796 107.304 463.699 107.21 463.536 106.945C462.961 106.013 461.606 104.994 461.131 104.174C460.829 103.653 460.808 103.288 461.391 102.978C461.973 102.669 465.105 102.085 465.212 101.917C465.526 101.437 465.097 101.062 464.557 101.097L461.7 98.5505C461.85 97.6012 465.595 96.1061 465.464 95.5584C464.474 94.8281 462.723 94.4361 461.766 93.7616C461.575 93.6271 461.383 93.7289 461.448 93.3138C461.466 92.5029 465.289 89.9527 464.713 89.4358C463.455 89.4108 462.075 89.1686 460.843 88.9284C460.579 88.8765 460.308 88.8323 460.222 88.5345C459.974 87.6889 462.511 85.0754 462.461 83.9415C461.708 83.9242 458.363 84.6372 458.071 84.201C457.533 83.3977 459.636 80.1058 459.459 78.945L456.817 80.1769L454.957 80.4401L455.453 75.1957L451.454 77.9438C450.92 76.2239 450.889 74.4885 450.949 72.6994C450.47 72.1344 448.017 76.687 446.946 75.9471C446.888 75.3322 446.139 71.3427 445.943 71.2005C445.106 70.5932 443.769 76.81 442.498 75.14C442.302 74.8806 441.74 72.9627 441.421 72.3958L440.443 71.2005C439.968 71.825 439.393 75.8011 439.186 75.9433C438.299 76.5544 436.533 73.3682 436.05 72.9569C435.733 72.686 435.629 72.6283 435.185 72.6956L435.187 72.6936Z" fill="white"/>
<path d="M333.919 117.327C334.244 117.583 334.596 117.52 334.9 117.675C335.082 117.769 335.075 118.063 335.29 118.136C336.199 118.438 338.272 118.473 339.162 118.14C339.41 118.048 339.385 117.731 339.527 117.656C344.41 115.135 342.954 110.672 343.085 106.037C343.381 95.4926 343.495 84.877 343.218 74.3036C343.237 72.6394 347.628 72.9546 347.985 73.6887L348.095 113.768C346.572 120.525 340.996 125.885 333.602 123.271C328.921 121.617 326.349 115.907 326.078 111.297L326.144 74.1172C326.524 72.7951 330.826 72.6759 331.088 74.0711L331.097 111.531C331.172 113.472 332.387 116.115 333.921 117.325L333.919 117.327Z" fill="white"/>
<path d="M394.648 4.7452C398.239 4.09181 402.467 5.83482 405.487 7.79115C421.898 18.4183 418.626 49.5504 398.749 53.4284C398.143 53.5457 394.648 54.0876 394.648 53.3323V4.7452ZM399.654 10.9908V47.4614C403.466 45.9145 407.332 42.5361 409.103 38.7829C412.984 30.5637 411.631 18.6816 403.718 12.9971C403.272 12.6781 401.636 11.7038 401.209 11.5097C400.733 11.2906 400.119 11.2983 399.654 10.9889V10.9908Z" fill="white"/>
<path d="M291.805 3.74805V42.3422C291.805 42.7995 292.597 45.0191 292.872 45.5226C294.527 48.5513 298.324 49.5083 301.144 47.4194C302.621 46.3259 304.066 43.6509 304.066 41.8425V3.74805H308.82V43.8411C308.82 43.8776 308.43 44.1179 308.376 44.3984C307.826 47.2637 306.567 49.9695 304.153 51.9124C297.874 56.9589 290.181 53.1442 287.718 46.1722C287.44 45.3824 287.857 44.631 287.053 44.2966C287.347 31.6823 285.8 17.6095 286.786 5.11055C286.825 4.63012 286.932 4.20542 287.049 3.74805H291.803H291.805Z" fill="white"/>
<path d="M122.389 113.286C122.23 112.367 121.478 112.792 120.884 112.544C116.282 110.632 111.505 105.088 110.196 100.226C107.862 91.5547 109.508 82.8051 116.228 76.2866C119.064 74.2592 122.52 72.3855 126.294 72.176C126.509 72.1645 127.393 72.6257 127.393 72.6891V120.777C127.393 120.871 126.824 121.651 126.768 121.651H122.389C122.084 119.139 122.801 115.669 122.389 113.282V113.286ZM122.389 78.9386C113.619 82.8166 111.784 95.0062 116.934 102.495C118.143 104.254 120.284 106.389 122.389 106.915V78.9366V78.9386Z" fill="white"/>
<path d="M142.158 3.24805V51.8352C142.158 51.8621 141.81 52.2099 141.783 52.2099H138.028C137.984 52.2099 137.404 51.6296 137.404 51.5854V12.7395C136.719 12.5646 136.514 13.2872 136.214 13.4793C126.861 19.4771 117.807 25.9072 108.547 32.0394C107.3 32.3546 107.807 31.5033 107.557 31.044C107.507 30.9517 107.196 30.9594 107.05 30.6692C106.598 29.7699 106.312 28.415 105.641 27.5003L142.158 3.24805Z" fill="white"/>
<path d="M188.953 51.9601H184.449C184.53 51.7141 184.199 51.4182 184.199 51.3355V8.99402C183.953 9.07474 183.657 8.7442 183.574 8.7442H179.57C179.543 8.7442 179.195 8.39637 179.195 8.36946V3.24805H193.834C193.861 3.24805 194.209 3.59588 194.209 3.62278V8.36946C194.209 8.39637 193.861 8.7442 193.834 8.7442H189.58C189.553 8.7442 189.205 9.09203 189.205 9.11894V51.3355C189.205 51.4182 188.874 51.7141 188.955 51.9601H188.953Z" fill="white"/>
<path d="M170.435 3.24805V8.36946C170.435 8.92676 169.703 8.7442 169.559 8.7442H165.805C165.778 8.7442 165.43 9.09203 165.43 9.11894V51.5854C165.43 51.6123 165.082 51.9601 165.055 51.9601H160.676V8.99402C160.43 9.07474 160.134 8.7442 160.051 8.7442H155.797C155.77 8.7442 155.422 8.39637 155.422 8.36946V3.62278C155.422 3.59588 155.77 3.24805 155.797 3.24805H170.435Z" fill="white"/>
<path d="M247.825 73.5006C248.233 73.0971 251.01 73.0644 251.597 73.2393C253.181 73.712 252.281 76.8867 252.258 78.0494C251.997 91.4688 252.052 105.363 252.258 118.792C252.272 119.718 253.033 121.652 251.645 121.903C250.709 122.074 247.725 122.159 247.516 121.029L247.825 73.5006Z" fill="white"/>
<path d="M50.4746 76.2879C54.5615 79.2531 55.1825 89.1711 56.0917 94.037C56.73 97.4557 58.2871 101.142 57.3124 104.735C57.2586 104.933 56.9184 104.918 56.8491 105.112C56.1917 106.92 55.8303 108.114 54.129 109.403C50.2362 112.357 45.3861 110.712 43.2062 106.64C41.8394 104.088 41.3665 98.4762 40.7533 95.3572C39.6268 89.6228 36.4011 81.415 41.5933 76.8567C43.9924 74.7505 47.8602 74.3873 50.4765 76.284L50.4746 76.2879ZM52.2355 103.838C52.843 102.612 52.5065 100.421 52.2932 99.0777C51.8395 96.2143 50.9494 93.3048 50.3862 90.4895C49.9364 88.2449 49.7268 82.7583 48.0832 81.2978C45.8571 79.3165 43.2908 81.7879 43.5465 84.3149C44.8383 90.1359 45.4726 96.1893 46.8875 101.976C47.3469 103.849 48.3504 105.71 50.6322 105.108C50.9071 105.035 52.1394 104.03 52.2336 103.84L52.2355 103.838Z" fill="white"/>
<path d="M33.4616 39.3202C37.4255 42.4218 36.793 50.6699 31.941 52.7204C29.9648 53.5563 28.9421 53.5467 26.9929 52.6397C18.2154 48.5656 25.1897 32.8478 33.4616 39.3182V39.3202ZM30.7107 43.0618C27.1601 41.1496 25.9567 47.4606 28.7883 48.3504C31.9583 49.3478 32.7945 44.1821 30.7107 43.0618Z" fill="white"/>
<path d="M66.0012 38.5606C69.4922 40.4035 70.4226 46.1803 68.8213 49.5164C68.4964 50.1948 66.5549 52.3971 65.8955 52.693C65.6802 52.7891 63.1311 53.4694 62.9793 53.4598C62.8274 53.4502 60.8801 52.8602 60.6532 52.7641C58.8943 52.0262 57.5832 50.1986 56.9969 48.4191C56.1665 45.8958 56.499 43.1785 57.8812 40.8878C59.4691 38.257 63.2061 37.0866 65.9993 38.5606H66.0012ZM62.7755 42.7653C59.6805 43.2093 60.1996 48.8745 63.4387 48.4556C66.4549 48.0655 66.0647 42.2926 62.7755 42.7653Z" fill="white"/>
<path d="M50.2475 65.6236C49.3555 66.7555 47.314 66.8343 46.472 65.6813C46.1778 65.2797 46.2163 64.9722 46.049 64.6416C45.9126 64.3726 45.5223 64.5801 45.5396 63.8345C45.5973 61.3574 48.377 59.476 50.186 61.7129C50.7569 62.4182 50.778 64.951 50.2475 65.6236Z" fill="white"/>
<path d="M41.1748 66.0653C40.1059 66.9531 38.2989 66.6015 37.678 65.2044C36.5015 62.5562 38.7795 59.4238 41.2959 61.3417C42.8491 62.5255 42.5646 64.9103 41.1748 66.0653Z" fill="white"/>
<path d="M455.881 96.2524C458.62 98.7084 459.014 103.911 457.163 106.993C455.196 110.27 450.646 111.405 447.701 108.723C443.209 104.631 444.75 95.8392 451.092 94.69C452.163 94.4959 455.062 95.5202 455.881 96.2543V96.2524ZM453.618 97.515C450.052 95.8681 447.03 99.3829 447.19 102.8C447.386 107.008 452.344 109.67 454.966 106.299C456.6 104.197 456.648 101.084 455.196 98.864C455.096 98.7122 453.714 97.5592 453.62 97.5169L453.618 97.515Z" fill="white"/>
<path d="M434.438 99.6731C434.303 99.5886 434.036 97.663 434.217 97.4516C434.878 96.6733 438.502 97.9936 438.692 97.0442C438.786 96.5734 437.941 95.945 437.756 95.4857C437.024 93.6543 437.375 91.0426 438.683 89.5475C439.006 89.1786 439.392 89.1478 439.757 88.9211C439.901 88.8307 439.932 88.5444 440.015 88.5079C441.685 87.7776 443.258 88.4829 444.677 89.3285C445.382 89.7493 446.943 90.6679 446.687 91.5192L441.132 103.107C440.786 103.697 439.217 102.698 439.177 102.5C438.977 101.503 440.361 100.838 440.194 99.6731C439.29 99.481 434.846 99.9287 434.438 99.6731ZM442.864 94.8496C443.179 94.2212 443.333 93.1104 443.854 92.4359C444.273 91.5 442.754 90.8005 442.01 90.7313C438.598 90.4162 438.834 96.1352 442.053 96.1852C442.026 95.4684 442.789 94.9995 442.864 94.8496Z" fill="white"/>
<path d="M427.5 94.864C427.282 94.6487 427.171 94.176 427.238 93.8685L432.477 82.8474C433.282 81.581 434.084 82.2901 434.799 83.2048C437.01 86.0298 436.473 91.5586 432.951 93.0652C431.712 93.5956 430.927 93.1959 430.105 93.4707C429.507 93.6706 428.915 96.2592 427.5 94.8659V94.864ZM433.603 89.5965C434.02 88.8432 434.324 86.2392 433.446 85.6819L431.193 90.9263C431.577 91.2857 433.388 89.9866 433.605 89.5965H433.603Z" fill="white"/>
</g>
<defs>
<clipPath id="clip0_1043_547">
<rect width="469.968" height="128.646" fill="white"/>
</clipPath>
</defs>
</svg>
