<svg width="91" height="80" viewBox="0 315 817 80" fill="none" xmlns="http://www.w3.org/2000/svg">
<g clip-path="url(#clip0_1043_733)">
<path d="M816.04 0V593.3H292.16L133.84 714.16V675.71L281.17 561.34H785.08V31.96H30.96V561.34H134.84V593.3H0V0H816.04Z" fill="white"/>
<path d="M203.264 124.85C227.334 126.89 247.674 140.9 245.694 167.29C244.714 180.3 237.554 188.27 227.734 195.76C260.764 205.03 263.244 251.52 232.414 265.88C228.834 267.55 215.694 271.68 212.244 271.68H128.844V124.85C152.944 126.35 179.444 122.83 203.254 124.85H203.264ZM160.814 183.78H198.274C199.034 183.78 204.384 181.62 205.474 181C213.714 176.29 215.514 164.28 207.704 158.38C205.354 156.61 196.974 153.83 194.284 153.83H160.824V183.79L160.814 183.78ZM160.814 242.71H205.264C205.664 242.71 211.934 240.63 212.774 240.23C221.224 236.17 223.704 223.78 216.794 217.19C215.044 215.52 206.304 211.74 204.264 211.74H160.814V242.7V242.71Z" fill="white"/>
<path d="M582.312 124.85C582.362 125.77 582.692 126.61 583.302 127.31C605.492 152.87 624.022 185.18 646.272 210.22C647.092 211.14 648.012 212.45 649.242 212.75V124.85H682.202V271.68H653.732L583.312 180.79V271.68H551.352V124.85H582.312Z" fill="white"/>
<path d="M649.242 412.51V324.62H682.202V471.45H653.732L583.312 379.55V471.45H551.352V324.62H581.822L649.242 412.51Z" fill="white"/>
<path d="M171.599 321.92C283.659 312.19 286.639 483.05 169.319 473.43C79.3887 466.05 77.1387 330.13 171.599 321.92ZM209.399 364.92C170.529 325.29 110.459 383.18 145.319 426.51C184.919 475.74 252.519 408.88 209.399 364.92Z" fill="white"/>
<path d="M391.542 124.85V154.82H313.632V182.78H382.552V212.75H313.632V242.71H392.542V271.68H280.672V124.85H391.542Z" fill="white"/>
<path d="M526.378 324.62V353.58H448.468V382.55H517.388V411.52H448.468V441.48H527.378V471.45H415.508V324.62H526.378Z" fill="white"/>
<path d="M313.632 427.5V471.45H280.672V324.62H352.092C363.072 324.62 380.262 335.07 386.972 343.68C412.622 376.6 388.352 427.5 346.102 427.5H313.642H313.632ZM313.632 397.53H345.092C345.672 397.53 350.652 395.6 351.652 395.1C365.402 388.25 368.202 367.51 354.912 358.74C353.372 357.73 346.462 354.58 345.092 354.58H313.632V397.53Z" fill="white"/>
<path d="M515.39 124.85H482.43V271.68H515.39V124.85Z" fill="white"/>
</g>
<defs>
<clipPath id="clip0_1043_733">
<rect width="816.04" height="714.16" fill="white"/>
</clipPath>
</defs>
</svg>
