<svg width="190" height="67" viewBox="0 20 320 67" fill="none" xmlns="http://www.w3.org/2000/svg">
<g clip-path="url(#clip0_1043_574)">
<path d="M222.102 0.082772C224.1 0.283863 226.823 1.29351 228.574 2.29478C230.677 3.49713 232.659 6.38363 234.628 3.28766C235.143 2.47911 235.378 0.325757 236.655 0.908084L232.269 16.8194C230.409 17.4981 231.469 14.9761 231.515 13.9748C231.93 5.35304 226.203 0.355083 217.648 1.59096C208.369 2.92737 206.488 12.5295 211.339 19.4964C217.493 28.3277 231.054 34.461 228.742 47.1674C226.676 58.5207 209.743 62.9489 200.526 58.3112C198.063 57.0712 195.017 53.2085 192.617 56.6648C192.223 57.2304 191.653 58.9522 191.175 59.258C190.878 59.4466 190.011 59.4843 190.074 58.9438C191.615 54.6036 192.88 50.1712 193.986 45.697C194.309 44.3815 194.493 42.1318 194.942 41.0048C195.21 40.3261 196.169 39.7564 196.349 40.7409C196.634 42.3161 195.817 45.0727 195.922 47.0208C196.119 50.6865 197.581 54.5575 200.811 56.5643C207.083 60.4562 219.714 59.1784 220.824 50.3388C222.625 36.0027 203.702 30.9251 202.621 18.5873C201.724 8.34008 207.577 1.0589 217.908 0.0785826C218.98 -0.021963 221.025 -0.0303417 222.093 0.0785826L222.102 0.082772Z" fill="white"/>
<path d="M177.932 0.0825991C182.08 0.514107 183.576 2.30717 186.789 4.09604C190.727 6.29129 190.408 1.07968 191.728 0.794797C191.979 0.740335 192.08 0.6356 192.277 0.9121L188.1 16.6182C187.924 17.0622 187.019 17.0497 186.923 16.6684C186.705 15.797 187.216 13.1661 187.149 11.8841C186.466 -1.67695 167.166 -1.37112 164.803 8.61221C160.923 24.997 188.72 30.1164 184.145 48.2104C181.485 58.7342 165.297 62.6261 156.432 58.4493C154.153 57.3726 151.229 53.7907 148.82 55.9985C147.819 56.916 147.069 60.5063 145.758 58.9395C146.801 55.789 147.878 52.6386 148.724 49.4253C149.369 46.9871 149.717 44.2682 150.391 41.8928C150.584 41.2141 150.965 39.6934 151.879 40.4181C152.461 40.8832 151.841 42.0017 151.782 42.6553C151.351 47.6239 151.568 52.781 155.842 56.1074C161.598 60.5859 175.251 59.3458 176.437 50.7618C178.448 36.2329 160.668 31.7586 158.339 19.1192C156.47 8.9725 163.621 1.12157 173.525 0.0867885C174.606 -0.0263253 176.843 -0.0263253 177.92 0.0867885L177.932 0.0825991Z" fill="white"/>
<path d="M304.16 0.0823144L307.461 0.861543C310.113 1.53185 311.747 4.00359 313.8 5.39866C316.695 7.37187 317.093 1.75388 318.534 1.36846C318.806 1.29724 318.961 1.30562 319.133 1.54023L314.382 19.6971C313.888 19.8144 313.205 19.8395 313.159 19.2111C313.553 14.033 313.9 8.7041 309.946 4.75349C305.119 -0.0685037 298.085 0.781945 292.786 4.30104C280.863 12.2232 271.776 35.9603 275.538 49.668C279.455 63.9455 295.844 59.2241 302.526 49.9822C304.73 46.9324 306.024 43.2373 307.7 39.89C307.985 39.4836 308.986 39.3956 309.158 39.9319L304.483 58.4197C301.734 59.6639 304.374 54.2973 301.956 54.2471C301.022 54.2261 298.286 56.2873 297.248 56.8403C291.944 59.6598 287.993 60.6526 281.885 59.8399C264.419 57.5148 264.914 38.6751 269.874 25.7424C274.139 14.6112 283.439 3.48411 295.526 0.769376C296.741 0.497065 297.989 0.576663 299.129 0.078125H304.152L304.16 0.0823144Z" fill="white"/>
<path d="M37.4668 0.082283C40.2653 0.375541 42.758 1.67425 44.8904 3.4338C45.7534 4.14181 46.6918 5.67094 47.8313 5.74216C50.4581 5.90555 50.3785 1.30559 52.0249 1.3391C52.2805 1.34329 52.4271 1.45641 52.5193 1.68263L47.7392 19.4373C47.5004 19.7264 46.9558 19.8269 46.6038 19.7473C45.9377 19.5923 46.696 15.0552 46.6876 14.188C46.6206 3.72287 37.295 -1.5055 28.0364 3.10703C14.5508 9.82263 4.50876 36.5719 9.00818 50.5562C11.8737 59.4544 20.0263 60.3258 27.7013 56.7062C32.8333 54.2847 36.0298 50.3006 38.4806 45.311C38.9205 44.4145 40.5418 40.1246 40.9146 39.7978C41.2875 39.471 41.8112 39.6051 42.2804 39.5925C42.7245 40.0282 39.7542 50.2042 39.4023 51.6663C39.1425 52.7346 38.3423 58.3233 37.538 58.5872C37.2238 58.692 36.4194 58.604 36.4194 58.3024V55.1645C36.4194 54.6366 35.4642 54.1632 34.9029 54.2596C33.9435 54.4272 31.3628 56.392 30.2819 56.9785C17.852 63.7067 1.3709 59.7728 0.20625 43.8783C-0.958402 27.9837 7.70109 11.4607 20.8642 3.88626C24.4754 1.80832 28.1412 0.79867 32.2342 0.082283C33.9142 0.207965 35.8203 -0.0894824 37.4668 0.082283Z" fill="white"/>
<path d="M0 78.27V76.5984L0.62422 75.8652L35.5806 75.8736C36.7159 76.8623 36.6572 79.3801 34.6505 79.1162L0.62422 79.0031L0 78.27Z" fill="white"/>
<path d="M0 99.8041V98.1325C0.456645 97.4538 0.779228 97.3617 1.55846 97.2862C5.18648 96.9427 9.04072 97.479 12.652 97.5167C19.6567 97.5837 28.0732 96.8883 34.86 97.4957C37.0552 97.6926 36.8416 100.663 34.86 100.65L0.62422 100.537L0 99.8041Z" fill="white"/>
<path d="M-0.0036231 85.3759C0.415317 84.9025 0.440453 84.6092 1.13589 84.5296C4.96919 84.0813 9.22981 84.7223 13.0673 84.76C20.1348 84.8271 28.1491 84.2238 35.0658 84.7391C36.1886 84.8229 36.4316 85.0575 36.3394 86.285C36.2347 87.6968 35.4722 87.789 34.2238 87.8895C23.9011 88.7441 12.4179 87.2276 1.97377 87.8895C1.2113 87.8099 0.411127 87.7764 -0.0078125 87.0474V85.3759H-0.0036231Z" fill="white"/>
<path d="M0 73.8801V72.418L0.607463 71.8818L35.2789 71.7812C37.1013 72.0284 36.4017 75.4009 34.4411 74.9359C23.226 74.7683 11.9063 75.2375 0.754092 74.6971L0 73.8843L0 73.8801Z" fill="white"/>
<path d="M0 91.2318V89.7697L0.62422 89.0366L34.86 88.9234C36.6321 88.5883 36.8081 91.7303 35.2789 91.8686C28.0145 91.9105 20.7501 91.7848 13.4899 91.8476C9.51832 91.8812 5.10688 92.5389 1.13952 92.0781C0.444076 91.9985 0.414751 91.7052 0 91.2318Z" fill="white"/>
<path d="M0 104.192V102.73C0.242985 101.996 0.829501 101.783 1.56684 101.678C12.8196 101.783 24.1142 101.494 35.3418 101.825C36.5274 101.963 36.741 104.602 35.4926 104.623H1.13952L0 104.196V104.192Z" fill="white"/>
<path d="M-0.0036231 95.6243V93.9527C0.314771 93.6636 0.453021 93.1609 0.943181 93.119C4.06847 93.4207 7.97299 92.7043 10.9977 93.1065C11.9236 93.2279 12.1037 94.0407 12.0954 94.8953C12.087 96.0684 11.6597 96.349 10.5662 96.4622C9.37225 96.5837 1.32023 96.6004 0.67087 96.3072C0.385991 96.1815 0.210036 95.8421 -0.0078125 95.6243H-0.0036231Z" fill="white"/>
<path d="M0 82.4516V80.9895C0.423129 80.6879 0.55719 80.4281 1.13952 80.3485C4.11399 79.9589 7.92634 80.6711 10.9972 80.3485C12.2582 80.3066 12.342 82.4977 11.634 83.0926C10.8086 83.788 9.53507 83.2811 8.693 83.2769C7.37753 83.2685 1.28615 83.5073 0.62422 83.1847C0.385425 83.0674 0.242985 82.6192 0 82.4516Z" fill="white"/>
<path d="M140.216 58.5856C140.14 58.6317 139.26 58.7448 139.068 58.749C134.384 58.8621 129.562 58.6442 124.857 58.6107C124.392 58.6107 122.649 58.9668 122.461 58.3049C122.143 57.1905 125.289 57.1277 126.064 56.8889C129.172 55.9379 129.407 53.1813 129.373 50.3534C129.332 46.5536 129.373 42.2092 128.728 38.4597C128.573 37.5632 127.865 37.0437 126.969 37.0814C121.577 37.4794 115.511 36.5871 110.203 37.0814C108.975 37.1945 108.69 37.4668 107.924 38.3634C106.076 40.5251 103.382 44.6517 101.853 47.1443C100.064 50.0602 96.7716 55.3807 101.824 56.9643C102.515 57.1821 104.258 57.2073 104.564 57.7812C105.322 59.2056 102.159 58.6233 101.635 58.6149C98.2253 58.573 93.7594 59.0003 90.521 58.6359C90.2864 58.6107 89.8507 58.5688 89.7962 58.3091C89.6245 57.4461 92.5906 56.2186 93.3572 55.5986C94.5889 54.6057 95.741 53.1101 96.7883 51.9161C108.737 36.1178 119.038 18.3883 131.074 2.7451C131.523 2.16277 132.629 0.227269 133.32 1.26205C134.011 2.29683 133.865 8.20388 133.969 9.81261C134.627 19.796 135.394 29.7374 136.06 39.7124C136.303 43.3781 136.014 51.9328 137.413 54.8738C138.276 56.6878 139.7 56.7213 140.228 57.5089C140.413 57.7854 140.471 58.4264 140.207 58.594L140.216 58.5856ZM126.374 12.2341C125.959 12.343 124.996 13.6962 124.677 14.1109C119.918 20.2526 115.892 27.4374 111.191 33.6712C110.559 34.9323 111.062 35.3135 112.297 35.4266C117.027 35.8539 122.381 35.0789 127.182 35.4266C127.564 35.4434 128.062 35.125 128.213 34.7856C128.481 34.1782 128.376 29.2347 128.33 28.1957C128.133 23.7759 127.832 18.824 127.48 14.4084C127.43 13.7925 127.308 11.9911 126.374 12.2341Z" fill="white"/>
<path d="M81.8431 1.55842C81.9856 1.77207 81.7133 2.52617 81.3823 2.66442C80.7958 2.91159 79.9998 2.7482 79.3253 2.89483C76.5017 3.50649 75.2783 4.50775 74.2142 7.19735C70.7203 20.5825 66.8828 33.909 63.5313 47.3276C63.1417 48.8944 61.9477 52.7571 61.9854 54.106C62.0399 55.9997 63.703 56.98 65.4207 57.1559C69.3085 57.5455 77.2264 57.4324 80.8 56.0038C84.7841 54.4119 86.795 50.8928 88.521 47.1977C88.9358 46.3138 90.2806 42.4218 90.733 42.0909C91.1059 41.8185 91.705 41.7389 91.8726 42.2417C92.1742 43.155 90.0418 49.2128 89.6941 50.6666C89.0992 53.1467 88.8101 55.7064 88.2278 58.1907C87.4318 59.326 84.6123 58.6264 83.4309 58.6055C72.8276 58.4463 62.1823 58.7479 51.6124 58.8359C50.1503 58.8484 48.7636 58.5761 47.3099 58.618C47.0921 56.8501 49.656 57.29 50.9631 56.9339C52.9405 56.3976 53.8831 54.8769 54.6791 53.1174C57.7667 41.5797 60.9883 30.0547 63.9628 18.4878C64.7713 15.3499 66.3424 10.6578 66.7278 7.65818C67.0713 4.98115 66.8158 3.6196 64.0298 2.93254C63.3679 2.76915 61.9435 2.97443 61.7969 2.24548C61.6419 1.46625 62.5761 1.37408 63.1081 1.328C66.8325 1.01379 71.5456 1.61288 75.4794 1.55423C76.4388 1.54166 81.4493 0.963521 81.8473 1.55423L81.8431 1.55842Z" fill="white"/>
<path d="M247.698 1.60124C247.946 1.36244 248.453 1.36244 248.788 1.33311C252.504 1.01472 257.229 1.62218 261.159 1.55934C262.135 1.54258 267.028 0.960257 267.443 1.53421C268.449 2.92928 265.675 2.76589 265.177 2.85806C260.258 3.77972 259.936 7.31558 258.754 11.4966C255.746 22.1335 252.952 33.248 250.258 43.9854C249.609 46.5828 248.436 50.1983 248.117 52.7161C247.891 54.5092 247.753 55.9838 249.596 56.7756C250.518 57.1736 253.019 57.0898 253.103 57.8858C253.241 59.1971 251 58.6064 250.275 58.6064C245.457 58.6064 240.631 58.5435 235.813 58.6064C235.197 58.6148 233.773 59.1049 233.295 58.4179C232.466 57.2197 236.349 57.0856 237.015 56.8845C239.885 56.0215 240.702 52.8083 241.477 50.2569C245.491 37.0519 248.021 23.0049 251.98 9.73705C252.349 7.27368 253.522 4.29502 250.51 3.17645C249.764 2.89995 246.421 2.82035 247.698 1.59286V1.60124Z" fill="white"/>
<path d="M210.314 75.803L250.047 75.7653C251.861 75.4008 253.599 78.8403 251.526 79.1168H210.687C209.167 79.1629 209.276 76.1172 210.319 75.803H210.314Z" fill="white"/>
<path d="M275.171 79.1042C273.805 78.6853 276.315 76.289 277.316 76.0208C279.834 75.338 282.13 75.7485 284.585 75.7695C293.684 75.8449 304.409 75.0112 313.27 75.7653C314.635 75.8826 316.805 76.5738 317.266 78.0527C317.367 78.3711 317.405 79.1084 317.04 79.1084H275.175L275.171 79.1042Z" fill="white"/>
<path d="M123.888 75.8239C134.986 76.2931 146.942 74.9776 157.944 75.7652C159.578 75.8825 160.906 76.0375 161.903 77.4536C162.406 78.1699 162.971 78.9617 161.723 79.1167C156.829 79.72 150.026 78.8947 144.978 78.8863C136.812 78.8779 128.664 79.2885 120.478 79.1042C118.836 78.7942 121.257 76.3601 122.25 76.0669C122.782 75.9119 123.36 76.0124 123.888 75.8239Z" fill="white"/>
<path d="M275.108 97.5545C275.359 97.3199 275.862 97.3157 276.202 97.2864C283.872 96.6328 293.039 97.5377 300.923 97.5126C305.879 97.4959 311.254 96.7837 316.206 97.2822C317.417 97.4037 317.643 97.8603 316.927 98.8616C315.863 100.349 314.794 100.512 313.056 100.638C302.218 101.417 290.487 100.051 279.557 100.65C278.711 100.399 277.643 100.588 276.872 100.198C276.348 99.9341 274.484 98.141 275.112 97.5587L275.108 97.5545Z" fill="white"/>
<path d="M166.774 75.8086L205.556 75.8714C206.72 77.0738 206.624 78.9381 204.63 79.1182C196.247 79.8765 186.737 78.5233 178.232 79.1182C174.361 78.6574 170.419 79.0051 166.519 78.9004C165.614 78.7244 165.543 75.9301 166.774 75.8086Z" fill="white"/>
<path d="M250.994 84.5428C251.258 86.2563 248.145 87.7686 246.708 87.8943L211.115 87.8859C209.184 88.0954 208.916 84.769 210.684 84.5302C214.132 84.0694 219.063 84.7271 222.615 84.7607C229.628 84.8277 236.583 84.4464 243.55 84.325C246.009 84.2831 248.51 84.7481 250.99 84.5428H250.994Z" fill="white"/>
<path d="M120.184 97.5288C120.272 97.3863 121.056 97.3025 121.299 97.2858C128.861 96.737 136.77 97.9645 144.345 97.7215C149.686 97.5539 155.765 96.7998 161.09 97.2816C162.338 97.3947 162.841 97.7131 162.02 98.861C160.956 100.348 159.887 100.512 158.145 100.637C147.307 101.417 135.576 100.051 124.646 100.65C123.8 100.399 122.732 100.587 121.961 100.197C121.387 99.9042 119.74 98.2368 120.184 97.533V97.5288Z" fill="white"/>
<path d="M205.934 74.4541C205.686 74.718 204.823 74.9401 204.43 74.9359H167.776C165.715 75.2962 165.079 72.0284 166.939 71.7812L205.779 71.8944C206.394 72.1918 206.336 74.0268 205.934 74.4541Z" fill="white"/>
<path d="M114.032 76.0217C114.534 76.5245 114.635 79.4445 113.144 79.1135L79.4273 79.1219C77.7474 78.8998 77.8395 75.7285 79.6452 75.762H112.943C113.269 75.7829 113.806 75.7955 114.036 76.0259L114.032 76.0217Z" fill="white"/>
<path d="M210.695 74.924C209.355 74.6392 209.032 71.9538 210.473 71.7778C220.737 72.2303 231.462 71.2122 241.672 71.7904C243.172 71.8742 248.924 72.733 249.644 74.0862C249.833 74.4381 249.313 74.924 249.213 74.924H210.695Z" fill="white"/>
<path d="M79.4945 97.3457L113.148 97.5007C114.765 97.3038 114.799 100.626 113.362 100.651L78.9164 100.538C77.9277 99.6918 77.9277 97.4923 79.4903 97.3499L79.4945 97.3457Z" fill="white"/>
<path d="M78.5484 87.4195C77.9283 86.8204 78.0666 84.709 79.4323 84.5288C82.9137 84.0764 87.7902 84.7257 91.3637 84.7592C98.6952 84.8263 106.031 84.6964 113.362 84.7383C114.937 84.9017 114.644 88.0102 112.939 87.8887C102.407 87.2477 90.8945 88.7266 80.4797 87.8887C80.0691 87.8552 78.7872 87.6499 78.5484 87.4153V87.4195Z" fill="white"/>
<path d="M78.5576 72.0494C78.788 71.819 79.3243 71.8106 79.651 71.7812H113.372C114.943 71.9404 114.653 75.0532 112.948 74.9317H80.0784C78.6037 75.1663 77.6862 72.925 78.5576 72.0494Z" fill="white"/>
<path d="M74.4756 97.76C74.8903 98.1747 74.8694 100.211 74.3164 100.533L41.3333 100.642C39.4061 100.772 39.3098 97.5212 41.3333 97.2824C45.0409 96.8509 49.1339 97.4751 52.8415 97.5044C59.3602 97.5631 67.031 96.9514 73.3738 97.4877C73.7006 97.517 74.2368 97.5254 74.4672 97.7558L74.4756 97.76Z" fill="white"/>
<path d="M79.0597 88.9705L113.358 88.9203C114.737 88.8826 114.711 91.9241 113.358 91.8654C106.165 91.9073 98.9677 91.7774 91.7787 91.8445C88.1046 91.878 82.9893 92.5483 79.4283 92.0749C77.8364 91.8612 78.0249 89.2806 79.0597 88.9705Z" fill="white"/>
<path d="M79.6969 101.736L112.936 101.682C114.519 101.744 114.561 103.341 114.096 104.522L79.2193 104.623C77.5226 104.405 78.2138 101.786 79.6969 101.736Z" fill="white"/>
<path d="M74.5238 104.609H40.2964C40.0115 104.609 39.1359 101.936 41.5532 101.685L73.1706 101.677C74.9385 101.635 74.9511 103.281 74.5196 104.613L74.5238 104.609Z" fill="white"/>
<path d="M251.409 91.4409H209.754C209.477 90.67 209.465 89.9285 209.955 89.2373L248.38 89.1367C249.515 89.275 250.864 90.5025 251.409 91.4409Z" fill="white"/>
<path d="M280.195 74.9214C280.157 74.9088 279.68 74.4354 279.68 74.3977C279.671 73.8279 283.739 72.437 284.443 72.2611C288.586 71.2389 299.881 71.4861 304.489 71.7709C305.662 71.8422 312.554 73.2875 312.533 74.3935C312.533 74.4647 311.884 74.9172 311.804 74.9172H280.195V74.9214Z" fill="white"/>
<path d="M131.837 71.8521C136.622 71.3871 145.151 71.429 149.986 71.7935C151.079 71.8773 157.636 73.419 157.623 74.4035L157.007 74.8308L125.717 74.9104L124.766 74.3993C126.622 73 129.516 72.07 131.837 71.848V71.8521Z" fill="white"/>
<path d="M312.33 101.894C312.715 102.325 311.044 103.063 310.797 103.184C304.362 106.301 293.235 103.788 286.058 104.613C285.283 104.529 280.243 102.912 280.088 102.413C279.85 101.659 280.939 101.793 281.446 101.672C291.102 102.183 301.4 101.023 310.977 101.672C311.442 101.705 311.869 101.852 312.33 101.89V101.894Z" fill="white"/>
<path d="M157.416 101.894C157.487 102.225 157.315 102.325 157.102 102.522C153.009 106.318 136.787 103.909 131.144 104.613C130.369 104.529 125.329 102.912 125.174 102.413C124.936 101.659 126.025 101.793 126.532 101.672C136.188 102.183 146.486 101.023 156.063 101.672C156.528 101.705 156.955 101.852 157.416 101.89V101.894Z" fill="white"/>
<path d="M285.634 93.1133C286.526 93.2599 287.7 94.5042 288.479 95.0781C289.534 95.8531 291.281 96.2805 288.366 96.4648C284.838 96.691 279.287 96.7329 275.789 96.4648C275.219 96.4187 273.833 96.2511 273.506 95.8196C273.179 95.3881 272.345 93.1133 273.284 93.1133H285.634Z" fill="white"/>
<path d="M118.373 93.1133H130.514C130.941 93.1133 134.59 95.6856 134.59 95.9369C134.59 96.1632 134.083 96.2386 133.874 96.2595C133.111 96.3433 132.123 96.4313 131.36 96.469C129.115 96.5779 120.949 96.7874 119.265 96.1925C117.9 95.7107 117.631 93.1133 118.373 93.1133Z" fill="white"/>
<path d="M238.654 93.1337C238.742 93.008 239.543 92.9117 239.777 92.8949C242.442 92.7022 248.328 92.5807 250.862 92.9242C253.397 93.2678 253.887 96.6151 250.661 96.6779C250.163 96.6863 249.71 96.4559 249.216 96.4517C247.561 96.4433 241.457 96.7492 240.443 96.2255C239.949 95.9699 238.319 93.6323 238.654 93.1379V93.1337Z" fill="white"/>
<path d="M274.119 80.3613H288.773C288.899 80.3613 289.155 80.5876 288.882 80.885C288.723 81.061 286.067 83.0593 285.895 83.1305C284.4 83.7296 276.285 83.6668 274.32 83.5034C271.182 83.2478 273.52 80.3613 274.119 80.3613Z" fill="white"/>
<path d="M318.992 93.5585C319.244 93.9607 318.766 95.5904 318.406 95.9465C318.092 96.2565 317.241 96.3822 316.793 96.4283C313.601 96.7634 307.497 96.709 304.25 96.4618C303.785 96.4283 303.358 96.2858 302.897 96.2397C302.721 96.068 306.42 93.4664 306.78 93.3281C308.259 93.4496 318.657 93.0348 318.984 93.5543L318.992 93.5585Z" fill="white"/>
<path d="M119.425 80.3616H133.661C133.849 80.3616 133.979 80.5795 133.77 80.8853C133.673 81.0277 131.289 82.9381 131.101 83.0303C130.506 83.3235 128.202 83.466 127.389 83.5037C125.877 83.5791 119.593 83.7173 118.575 83.2984C117.113 82.6993 118.21 80.6297 119.425 80.3574V80.3616Z" fill="white"/>
<path d="M150.995 93.8132C151.389 93.5409 151.799 93.3692 152.281 93.3147C154.543 93.0592 160.496 93.0592 162.754 93.3147C163.86 93.4404 164.011 93.8174 163.906 94.8899C163.781 96.1844 162.826 96.3101 161.678 96.4316C158.888 96.7207 154.095 96.6327 151.238 96.4568C150.785 96.4274 148.41 96.2138 148.414 95.9373L150.991 93.8174L150.995 93.8132Z" fill="white"/>
<path d="M268.527 78.8489C268.296 79.0793 267.76 79.0877 267.433 79.117C265.297 79.2972 259.591 79.4019 257.601 79.0961C256.65 78.9494 256.478 78.2498 256.512 77.3617C256.554 76.1467 257.065 75.7152 258.233 75.5728C259.955 75.3591 265.77 75.3089 267.412 75.5686C268.925 75.8074 269.268 78.1116 268.527 78.8531V78.8489Z" fill="white"/>
<path d="M249.478 97.1485C251.523 97.1024 253.303 96.9558 252.859 99.6873C252.532 101.707 248.23 100.672 246.705 100.634C245.532 100.605 241.753 100.877 241.032 100.446C240.211 99.9554 240.253 97.6429 241.3 97.3412C244.028 97.3705 246.759 97.2113 249.482 97.1485H249.478Z" fill="white"/>
<path d="M272.863 84.543H284.585C285.184 84.543 284.991 87.8149 283.818 87.7479C280.689 87.8442 277.22 88.0998 274.111 87.8987C273.676 87.8693 272.846 87.8275 272.486 87.6389C271.581 87.1697 271.991 85.0247 272.863 84.543Z" fill="white"/>
<path d="M303.329 80.9838C303.048 80.5775 303.773 80.3847 304.05 80.3512C308.218 79.8569 313.375 80.7283 317.653 80.3722C319.073 80.5398 319.756 83.0743 318.093 83.2964C314.699 83.7488 310.296 82.9487 306.79 83.2754C305.973 83.1707 305.579 82.3998 304.98 81.9474C304.645 81.6918 303.379 81.0634 303.325 80.9838H303.329Z" fill="white"/>
<path d="M118.209 84.5885L129.252 84.5508C130.513 84.7309 130.002 87.4959 129.043 87.6761C127.078 87.6174 118.628 88.4511 117.426 87.5839C116.86 87.1775 117.044 84.555 118.209 84.5885Z" fill="white"/>
<path d="M148.94 80.3613H162.966C163.771 80.3613 164.944 82.8414 163.13 83.2436C161.622 83.5788 154.273 83.4699 152.489 83.2981C150.704 83.1263 150.201 81.7187 148.727 80.9939L148.94 80.3613Z" fill="white"/>
<path d="M268.523 84.802C268.845 85.1246 268.875 86.6747 268.741 87.1187C268.594 87.6005 267.861 87.8058 267.4 87.8728C265.632 88.12 259.784 88.1158 258.02 87.8728C255.837 87.5712 255.728 84.4501 258.221 84.3286C258.82 84.2993 259.315 84.5464 259.88 84.5548C261.162 84.5758 268.041 84.3244 268.527 84.8062L268.523 84.802Z" fill="white"/>
<path d="M221.632 100.377C221.439 100.599 220.844 100.624 220.538 100.645C217.292 100.88 213.764 100.457 210.488 100.632C209.202 100.385 209.089 97.5575 210.706 97.3061C212.323 97.0547 219.168 97.0589 220.727 97.3061C222.03 97.5114 222.227 99.6857 221.632 100.377Z" fill="white"/>
<path d="M210.315 93.1527L220.948 93.1191C222.167 93.3537 222.557 96.2277 220.537 96.4623C217.471 96.8226 213.675 96.2235 210.529 96.412C209.138 96.2612 209.331 93.4501 210.315 93.1527Z" fill="white"/>
<path d="M273.068 92.0653C271.921 91.8181 271.719 89.2584 272.691 88.9735C276.148 89.162 280.157 88.5797 283.546 88.9191C283.802 88.9442 284.011 88.9107 284.267 89.0364C284.878 89.3296 285.75 92.0695 284.79 92.0695H273.068V92.0653Z" fill="white"/>
<path d="M51.8647 78.844C51.672 79.066 51.0771 79.0912 50.7713 79.1121C47.5538 79.3467 44.0054 78.9613 40.7544 79.0535C39.6107 78.8314 39.4767 75.9617 41.1231 75.748C44.1562 75.3542 48.044 76.058 51.1777 75.7648C52.3088 75.8737 52.3381 78.2952 51.8647 78.844Z" fill="white"/>
<path d="M257.424 93.161L267.839 93.1191C269.121 93.3579 269.494 96.2235 267.429 96.4623C265.899 96.6382 258.949 96.7011 257.63 96.412C256.234 96.1062 256.193 93.425 257.42 93.1568L257.424 93.161Z" fill="white"/>
<path d="M268.521 100.379C268.291 100.609 267.754 100.618 267.428 100.647C265.295 100.827 259.581 100.932 257.595 100.626C256.083 100.392 256.087 97.5092 257.993 97.2914C261.005 96.9437 264.705 97.5218 267.792 97.3417C268.957 97.4087 269.049 99.8553 268.521 100.383V100.379Z" fill="white"/>
<path d="M51.8592 84.8016C52.5337 85.4719 52.3243 87.5791 50.9166 87.8389C49.2451 88.1447 43.5768 88.0651 41.7586 87.885C41.0967 87.8179 40.1331 87.7174 39.9823 86.9424C39.844 86.2427 39.8357 84.6508 40.749 84.5921C43.9748 84.7052 47.5819 84.2653 50.7658 84.5334C51.0884 84.5628 51.6288 84.5712 51.8592 84.8016Z" fill="white"/>
<path d="M118.176 92.0655C117.137 91.8435 116.412 89.1078 118.372 88.9193C121.703 88.5925 125.62 89.1497 129.014 88.978C129.99 89.024 130.777 92.0697 129.688 92.0697H118.176V92.0655Z" fill="white"/>
<path d="M180.286 100.378C179.901 99.993 179.921 98.2796 180.248 97.8271C180.508 97.471 181.363 97.3663 181.832 97.316C183.717 97.1149 189.222 97.0227 191.002 97.3034C192.687 97.5674 192.456 100.445 191.434 100.634C189.896 100.416 180.931 101.028 180.286 100.374V100.378Z" fill="white"/>
<path d="M40.757 93.1552L51.176 93.1133C52.3951 93.3479 52.7847 96.2218 50.7654 96.4564C49.0101 96.6617 42.8349 96.6952 41.1801 96.402C39.3409 96.0752 39.7012 93.4526 40.757 93.151V93.1552Z" fill="white"/>
<path d="M79.0661 93.1504H89.6611C90.6121 94.0385 90.7335 96.2673 89.0787 96.46C87.5287 96.6402 80.658 96.6862 79.3258 96.3637C77.7632 95.9866 78.0858 93.4436 79.0661 93.1504Z" fill="white"/>
<path d="M180.267 96.0091C180.116 95.7661 180.22 93.994 180.43 93.6672C181.088 92.6492 189.831 93.3027 191.436 93.11C192.395 93.286 192.801 96.1473 191.004 96.4448C189.307 96.7213 184.921 96.5788 183.053 96.4657C182.65 96.4406 180.355 96.1515 180.267 96.0091Z" fill="white"/>
<path d="M240.671 80.4029L251.924 80.3652C253.461 81.3246 252.715 83.2475 250.859 83.4696C249.004 83.6916 243.553 83.7335 241.693 83.4738C241.241 83.4109 240.491 83.2015 240.352 82.7197C240.206 82.2169 239.954 80.5161 240.671 80.3988V80.4029Z" fill="white"/>
<path d="M257.2 80.404L267.82 80.3789C269.332 80.6093 269.282 83.2109 267.397 83.4791C264.439 83.9022 260.635 83.2109 257.585 83.4958C256.249 83.0308 255.951 81.1581 257.2 80.404Z" fill="white"/>
<path d="M268.521 89.1932C269.049 89.721 268.966 91.9959 267.834 92.0629C266.02 91.7613 258.01 92.574 256.971 91.8451C256.381 91.4303 256.23 89.1597 257.6 88.946C259.585 88.6402 265.304 88.7449 267.432 88.925C267.759 88.9544 268.295 88.9628 268.526 89.1932H268.521Z" fill="white"/>
<path d="M257.211 71.8307L268.049 71.793C269.218 72.0108 269.184 74.6627 267.621 74.9099C266.059 75.1571 259.691 75.1361 258.023 74.9057C256.004 74.625 256.373 72.0779 257.211 71.8307Z" fill="white"/>
<path d="M51.8674 89.1937C52.3534 89.755 52.2654 91.9503 51.1803 92.0634C48.0467 91.766 44.1589 92.474 41.1258 92.0802C39.5422 91.8749 39.4835 89.156 40.9372 88.9549C43.1618 88.6449 48.4237 88.758 50.774 88.9255C51.0798 88.9465 51.6747 88.9716 51.8674 89.1937Z" fill="white"/>
<path d="M40.2465 74.4547C39.8652 74.0526 39.815 72.3433 40.2758 71.9788C41.0592 71.363 49.7271 72.0542 51.3903 71.7903C52.4544 71.9872 52.513 74.6642 50.9588 74.9114C49.2495 75.1795 43.3508 75.1292 41.5494 74.9323C41.2268 74.8946 40.4476 74.6684 40.2465 74.4547Z" fill="white"/>
<path d="M180.7 87.2112C180.398 86.9096 180.306 85.2589 180.532 84.9447C181.094 84.1613 189.933 84.7101 191.433 84.5426C192.338 84.7101 192.966 87.5673 190.788 87.8689C188.769 88.1496 184.357 87.8899 182.225 87.6804C181.894 87.6469 180.901 87.4081 180.704 87.2112H180.7Z" fill="white"/>
<path d="M51.8671 80.6206C52.3028 81.0563 52.2483 82.7614 51.6953 83.172C50.3379 84.19 42.7761 83.0002 40.7149 83.2893C39.8226 83.1259 39.3617 80.6164 40.9369 80.3776C42.9395 80.0718 48.6245 80.1765 50.7695 80.3567C51.092 80.386 51.6325 80.3944 51.8629 80.6248L51.8671 80.6206Z" fill="white"/>
<path d="M180.287 80.6226C180.932 79.9732 189.901 80.5807 191.435 80.3629C192.415 80.5556 192.402 82.6754 191.736 83.1739C190.764 83.9029 185.356 83.3834 183.894 83.2913C183.018 83.2368 181.196 83.4965 180.563 83.065C179.998 82.6796 179.813 81.096 180.283 80.6226H180.287Z" fill="white"/>
<path d="M252.662 104.611H241.045C240.508 104.611 239.897 102.172 241.556 101.774C242.968 101.435 249.855 101.506 251.527 101.67C253.198 101.833 253.022 103.291 252.666 104.611H252.662Z" fill="white"/>
<path d="M210.748 101.735H220.908C221.926 101.832 222.232 103.926 221.603 104.421C220.82 105.041 211.951 104.345 210.279 104.609C209.085 104.391 209.378 101.631 210.748 101.735Z" fill="white"/>
<path d="M268.577 104.609H256.96C256.726 104.609 255.703 101.898 258.204 101.672C259.897 101.517 266.328 101.429 267.752 101.772C269.176 102.116 268.879 103.494 268.577 104.609Z" fill="white"/>
<path d="M182.913 88.9951C185.69 88.6851 188.794 89.0664 191.61 88.9658C192.385 89.2256 192.36 91.6051 191.752 91.9654C191.375 92.1875 184.056 92.154 183.055 92.0744C179.49 91.7979 179.603 89.3596 182.917 88.9951H182.913Z" fill="white"/>
<path d="M191.961 104.609H180.239C180.071 104.609 179.46 102.162 181.064 101.772C182.484 101.429 188.932 101.517 190.612 101.672C192.476 101.844 192.359 103.071 191.961 104.609Z" fill="white"/>
<path d="M221.151 80.3616C222.274 80.5501 221.281 83.0722 220.691 83.2481C217.842 83.3235 214.989 83.2942 212.14 83.2774C211.495 83.2774 210.611 83.667 209.953 83.1769C209.295 82.6867 209.413 80.3574 210.263 80.3574H221.147L221.151 80.3616Z" fill="white"/>
<path d="M79.0643 80.4029L89.4792 80.3652C90.5139 80.4155 90.4092 82.7155 89.9232 83.0967C89.1524 83.7042 80.8406 83.0297 79.2319 83.2811C78.0463 83.0548 77.8871 80.7381 79.0643 80.4029Z" fill="white"/>
</g>
<defs>
<clipPath id="clip0_1043_574">
<rect width="319.136" height="104.794" fill="white"/>
</clipPath>
</defs>
</svg>
