<svg width="148" height="56" viewBox="0 150 860 56" fill="none" xmlns="http://www.w3.org/2000/svg">
<g clip-path="url(#clip0_1043_697)">
<path d="M859.498 322H718.578V301.03H733.818L762.008 202.39L763.778 201.66C779.618 202.89 797.738 200.1 813.298 201.66C814.968 201.83 815.638 201.92 816.278 203.68L842.968 300.21C844.038 301.93 856.868 300.63 859.498 301.04V322.01V322ZM758.808 302.04H817.778L818.488 301.22L798.438 223.27C797.648 222.75 796.718 222.71 795.808 222.64C791.998 222.36 783.908 222.19 780.268 222.64C779.718 222.71 779.158 222.61 778.788 223.16L758.138 300.91L758.798 302.05L758.808 302.04Z" fill="white"/>
<path d="M464.727 202.44L466.447 201.67C485.997 202.57 506.497 200.55 525.937 201.7C546.907 202.94 565.897 214.32 563.667 237.89C562.607 249.16 557.247 253.94 548.807 259.98C548.547 260.17 547.837 260.01 548.177 260.85C548.637 261.97 553.197 264.13 554.417 265.1C579.567 285.02 559.397 323.33 529.457 322.03L464.727 322.01V202.44ZM486.717 252.11H526.447C526.687 252.11 530.467 250.93 531.047 250.71C544.297 245.79 544.197 224.46 529.327 221.27C522.077 219.71 496.847 219.85 488.937 220.62C487.097 220.8 486.457 220.83 486.197 222.87C485.427 228.72 485.747 242.7 486.197 248.87C486.277 249.99 486.647 250.99 486.717 252.1V252.11ZM527.437 271.08H486.707L486.827 302.91C487.607 303.47 488.527 303.47 489.437 303.55C498.447 304.28 526.137 304.48 533.627 301.23C544.277 296.6 545.397 280.17 535.527 273.98C533.677 272.82 529.557 271.31 527.437 271.08Z" fill="white"/>
<path d="M522.698 141.03L521.698 140.53C514.348 149.62 503.798 156.65 492.218 159.01C440.498 169.54 411.468 111.72 430.658 68.5502C444.538 37.3202 485.068 23.9402 512.868 46.0102C516.358 48.7802 519.098 52.8902 522.178 55.5702C522.738 56.0602 523.008 55.9402 523.698 55.9102V38.1902L524.448 37.4402H544.438L545.188 38.1902V157.01L544.438 157.76H522.698V141.04V141.03ZM460.938 130.09C479.438 146.86 509.068 140.19 519.278 117.66C532.578 88.3102 513.338 49.9902 478.098 56.5502C445.868 62.5502 438.528 109.77 460.938 130.1V130.09Z" fill="white"/>
<path d="M402.77 305.03C402 304.93 401.6 305.03 400.99 305.5C399.86 306.36 397.37 309.84 395.78 311.28C377.73 327.67 349.3 328.65 329.65 314.43C292.24 287.35 297.52 219.6 342.32 202.97C361.86 195.72 382.33 199.93 397.36 214.22C398.92 215.7 401.26 219.28 402.48 220.2C403.09 220.67 403.49 220.77 404.26 220.67V202.45L405.01 201.7H424.75C424.59 202.19 425.25 202.78 425.25 202.95V321.27L424.5 322.02H402.76V305.05L402.77 305.03ZM339.98 293.37C358.74 312.13 391.49 304.19 400.51 279.56C411.5 249.52 391.39 213.03 356.6 221.22C326.08 228.4 319.38 272.79 339.98 293.38V293.37Z" fill="white"/>
<path d="M140.92 157.76H0.75L0 157.01V136.79H15.24L43.72 37.9302L45.2 37.4102L96.95 37.6802L97.82 38.8102C106.1 67.4002 113.29 96.3202 121.58 124.9C122.71 128.79 123.8 133.32 125.68 136.78H140.67L141.31 137.53C141.32 137.73 140.92 137.91 140.92 138.03V157.75V157.76ZM41.23 137.79H99.2C99.27 137.79 100.42 137.27 100.45 136.99L80.45 60.1702C80.08 58.4702 79.18 58.5202 77.74 58.3802C75.8 58.1902 61.85 58.2102 60.96 58.6502C60.63 58.8102 60.41 59.1102 60.24 59.4302L40 137.25C40.47 137.21 40.96 137.74 41.23 137.79Z" fill="white"/>
<path d="M185.886 126.31L187.616 125.79L249.606 37.4499H273.596L274.346 38.1999V156.52C274.346 156.69 273.686 157.28 273.846 157.77H251.856V68.9099L250.336 69.2499L188.146 157.77H164.156L163.406 157.02V38.1899L164.156 37.4399H185.146L185.896 38.1899V126.3L185.886 126.31Z" fill="white"/>
<path d="M606.648 37.4399V125.06C606.648 125.26 607.298 125.81 607.148 126.31L608.848 125.27L670.348 37.4399H694.338L695.088 38.1899V157.01L694.338 157.76H672.598V69.6499C672.598 69.3899 671.518 68.6199 671.108 68.8999L608.888 157.76H584.648V37.4399H606.638H606.648Z" fill="white"/>
<path d="M694.923 304.86C662.393 338.99 601.053 326.93 586.923 281.06C571.283 230.31 619.813 186.5 669.223 202.83C711.993 216.97 726.063 272.19 694.933 304.85L694.923 304.86ZM675.933 231.32C653.003 209.36 614.663 221.66 608.283 252.5C601.843 283.64 627.883 311.03 659.503 302.18C691.123 293.33 698.233 252.68 675.923 231.32H675.933Z" fill="white"/>
<path d="M756.56 37.4399V85.6199C756.56 85.7599 757.34 86.9799 757.56 87.1199L758.78 87.3999C777.79 86.2099 798.5 88.8699 817.3 87.3999C818.26 87.3199 819.11 87.1099 820.02 86.8799V38.1999L820.77 37.4499H841.76L842.51 38.1999V157.02L841.76 157.77H820.52C820.68 157.28 820.02 156.69 820.02 156.52V108.34H757.31L756.56 109.09V157.77H734.57V37.4399H756.56Z" fill="white"/>
<path d="M302.32 73.39C304.48 56.51 317.76 44.12 333.33 38.72C353.23 31.82 385.93 34.5 399.75 52.19C409.25 64.35 407.74 82.14 395.5 91.85C394.52 92.63 388.43 95.7 389.27 96.85C398.1 99.9399 406.82 108.09 408.13 117.7C413.13 154.61 370.24 163.57 342.2 159.1C322.06 155.89 302.35 141.83 300.32 120.32H322.06C325.23 127.05 328.3 132.57 335.04 136.31C347.1 142.99 375.08 143.49 383.98 131.26C388.91 124.48 386.01 115.86 379.44 111.42C376.68 109.55 368.75 107.34 365.53 107.34H339.79V88.37H364.03C372.2 88.37 381.87 83.24 383.14 74.51C384.89 62.48 373.07 55.41 362.53 54.43C347.32 53 327.95 55.8 324.31 73.4H302.32V73.39Z" fill="white"/>
<path d="M182.393 237.63C184.453 220.9 197.833 208.59 213.103 203.16C230.903 196.83 258.963 198.38 274.073 210.68C289.023 222.84 290.763 244.75 274.793 256.81C273.913 257.47 268.593 260.06 269.333 261.09C278.383 264.34 287.033 272.44 288.283 282.36C293.783 326.13 229.933 332.53 201.913 316.23C190.043 309.32 181.963 298.43 180.383 284.57H202.123C203.873 286.76 204.413 289.42 205.863 291.82C214.913 306.9 242.193 308.48 256.693 301.64C272.663 294.11 268.173 276.39 251.873 272.82C241.613 270.57 230.333 272.02 219.873 271.59V253.37L220.623 252.62H244.613C246.413 252.62 251.023 251.55 252.843 250.86C257.323 249.15 262.623 244.29 263.303 239.35C265.183 225.86 252.153 219.38 240.633 218.65C225.773 217.71 208.063 220.73 204.383 237.64H182.393V237.63Z" fill="white"/>
<path d="M666.611 0H613.141V19.97H666.611V0Z" fill="white"/>
</g>
<defs>
<clipPath id="clip0_1043_697">
<rect width="859.5" height="324.45" fill="white"/>
</clipPath>
</defs>
</svg>
