<svg width="227" height="48" viewBox="0 24 453 48" fill="none" xmlns="http://www.w3.org/2000/svg">
<g clip-path="url(#clip0_1041_87)">
<path d="M319.349 25.8027L312.718 35.5382L312.089 35.1158L305.714 25.8666C305.532 25.842 305.345 25.8224 305.163 25.8027H296.415C296.415 25.8027 296.396 25.842 296.391 25.8617V65.0591L296.759 65.4275H306.701L306.578 42.6409C308.204 45.0036 309.677 47.5332 311.411 49.8271C311.849 50.4067 312.286 51.2614 312.964 51.4824C313.16 51.4824 314.054 50.6032 314.221 50.3969C315.523 48.7858 317.232 45.6126 318.421 43.697C318.578 43.4416 318.411 43.2696 318.971 43.3826L319.216 65.4275H329.281L328.923 25.8027H319.349Z" fill="white"/>
<path d="M74.1655 6.96547C97.5464 20.6747 106.668 53.0543 89.5694 75.6935C67.2004 105.313 19.8246 99.9488 4.48945 66.5769C-15.2222 23.6858 33.9857 -16.5873 74.1655 6.96547ZM80.5412 16.2736C56.5463 -7.02377 14.7947 2.67734 5.39325 35.052C-5.25587 71.7296 33.5191 102.69 67.9224 88.3909C98.2636 75.7819 103.922 38.9718 80.5412 16.2736Z" fill="white"/>
<path d="M408.841 25.8027C408.841 25.8027 408.816 25.8469 408.816 25.8617V39.3352L408.448 39.7036H403.418V25.8027H392.892C392.892 25.8027 392.867 25.8469 392.867 25.8617V64.8135C392.867 64.8921 393.191 65.1868 393.113 65.4275H403.423V50.4853H408.821V65.4275H419.377V25.8027H408.851H408.841Z" fill="white"/>
<path d="M287.217 29.0252C297.385 38.2548 295.641 64.2783 279.8 66.135C256.591 68.8513 254.941 30.3318 272.285 25.8079C277.546 24.4375 283.136 25.3167 287.217 29.0252ZM279.398 35.3567C278.975 35.1161 275.802 35.062 275.208 35.3567C274.903 35.5041 274.874 35.8283 274.702 35.9413C274.486 36.0935 274.157 36.0788 273.95 36.29C270.821 39.4975 271.018 49.8765 272.948 53.6734C274.481 56.6894 278.921 57.4507 281.038 54.6509C283.705 51.1241 283.45 40.755 280.994 37.0857C280.866 36.8942 279.501 35.4206 279.398 35.3666V35.3567Z" fill="white"/>
<path d="M202.984 25.8027L203.117 65.4275H213.427V35.0519C213.609 34.9881 213.722 35.2975 213.796 35.2975H218.094V65.4275H228.649L228.409 25.8027H202.989H202.984Z" fill="white"/>
<path d="M450.974 26.289L451.013 25.8027H439.563V25.8076L433.978 39.7085L433.86 25.8027H423.305L423.668 65.4275H434.101L434.096 49.9941L440.973 65.4275H453.002L443.429 43.9671L450.974 26.289Z" fill="white"/>
<path d="M354.709 40.6124C351.673 39.1536 347.616 39.242 344.31 39.5957V34.9391L355.981 35.1946L356.413 34.9981V25.744L334.113 25.6113L334 65.3097H352.042C352.749 65.3097 355.539 63.8755 356.217 63.3499C363.044 58.0597 362.887 44.542 354.709 40.6026V40.6124ZM344.31 56.5026V47.6856C345.302 48.0688 346.329 47.8183 347.316 47.9951C349.748 48.4274 350.701 49.4294 350.706 51.9738C350.715 56.1047 347.803 56.591 344.31 56.5026Z" fill="white"/>
<path d="M153.322 25.8027C152.973 25.8273 152.625 25.8469 152.276 25.8813L144.938 65.4226H155.248C155.159 63.0304 155.965 60.7071 156.264 58.3543L164.084 58.3199L165.067 65.4275H175.131L166.437 25.8027H153.322ZM157.458 49.5029L159.791 37.9844L162.124 49.5029H157.463H157.458Z" fill="white"/>
<path d="M377.502 25.8027L367.929 25.9697L360.703 65.4275H370.522L371.505 58.3248L379.216 58.31L380.71 65.4275H390.651L381.928 25.8027H377.502ZM372.978 49.5029C373.386 46.8013 373.759 44.0408 374.265 41.354C374.319 41.0593 374.579 40.794 374.643 40.5042C374.791 39.8215 374.412 38.8047 375.188 38.4756L377.399 49.498H372.978V49.5029Z" fill="white"/>
<path d="M258.14 33.4163C256.229 28.0131 252.142 26.289 247.481 25.8027H233.334C233.334 25.8027 233.315 25.842 233.305 25.8617V65.4226H244.106V52.4403C245.108 52.7055 246.793 52.5581 247.888 52.4157C257.535 51.1484 261.224 42.1252 258.144 33.4113L258.14 33.4163ZM245.884 43.0732C245.359 43.1861 244.18 43.4465 243.86 43.0142V35.1747C244.042 34.9193 244.077 34.9144 244.361 34.9095C244.686 34.9095 247.274 35.273 247.481 35.3663C247.554 35.4007 247.569 35.6905 247.726 35.7838C248.787 36.4518 249.141 36.6631 249.273 38.1023C249.529 40.8137 248.571 42.5132 245.889 43.0732H245.884Z" fill="white"/>
<path d="M177.585 54.4051C180.046 55.5348 182.802 56.3944 185.572 56.1292C187.758 55.9229 188.942 54.464 188.195 52.2684C187.154 49.1984 181.161 50.7457 178.715 50.5001C178.46 50.4313 178.327 49.1935 178.307 48.9037C178.239 47.8673 178.189 41.968 178.538 41.521C179.511 40.2881 187.429 42.9209 188.323 38.5493C188.853 35.9656 186.962 35.2681 184.821 35.1944C182.291 35.106 179.457 35.6463 177.217 36.7712L176.844 36.1572L176.711 26.7164C176.898 26.4364 179.196 25.8519 179.692 25.7733C182.654 25.2968 187.989 25.1642 190.892 25.8175C197.061 27.2027 200.053 33.9763 198.132 39.7674C197.425 41.8992 195.43 43.4612 193.78 44.8513C199.674 46.8505 200.863 54.5328 198.54 59.7689C195.195 67.3088 185.376 67.1418 178.494 65.3735C178.126 65.2801 177.831 65.0984 177.58 64.8184V54.4051H177.585Z" fill="white"/>
<path d="M145.434 25.7433V34.9286L145.065 35.297H136.106V65.4269H125.304L125.172 25.7285L145.434 25.7433Z" fill="white"/>
<path d="M75.1261 22.9037C77.5772 24.4166 79.1342 26.9217 78.4564 29.859C81.3643 31.2687 84.3458 33.4939 83.8006 37.1189C83.6975 37.8016 83.167 38.1897 83.3192 39.0788C83.4175 39.6485 84.4932 40.626 84.8419 41.2498C89.1202 48.9272 75.7646 54.6742 70.3124 56.4818C66.6579 57.6951 62.7676 58.1322 59.0787 59.2325L45.7673 61.5018C47.1378 61.2071 48.3756 61.8358 49.5987 61.9685C58.5532 62.9509 71.6484 61.1875 79.8121 57.3856C80.7405 56.9534 83.2308 55.2243 83.948 55.131C85.0384 54.9837 84.056 57.1351 83.7367 57.5084C83.5354 57.7442 81.1236 59.4879 80.7061 59.7483C71.1523 65.7015 54.5597 66.7134 43.7436 64.6209C41.8476 64.2525 39.1657 63.0737 37.2893 62.9558C35.8256 62.8624 35.1575 63.8939 33.738 64.0708C34.4011 64.6307 35.7224 65.0581 36.6262 65.3528C44.8292 68.02 55.9744 68.9827 64.5114 67.8432C70.219 67.0818 76.0741 65.2398 81.2317 62.7249C81.8309 62.5579 81.6541 63.5894 81.5313 63.889C81.2808 64.4834 78.2894 66.7331 77.5575 67.1408C65.4397 73.9635 46.6269 71.9741 33.9836 67.9856C33.0405 67.686 31.6897 67.3421 30.7761 67.239L30.1031 68.4866C30.108 68.6487 30.5206 68.9631 30.6975 69.0613C32.8538 70.2648 37.0142 71.198 39.4408 71.8464C49.1861 74.4596 57.9637 74.769 67.9104 72.9516C69.8556 72.5979 71.7319 71.645 73.7409 71.7875C74.6398 72.6569 70.3369 74.6266 69.8064 74.8427C59.5798 78.9687 42.4518 77.3429 32.2742 73.3642C31.6504 73.1186 31.2034 72.2786 30.2947 72.5242C30.6729 73.4968 31.842 74.0813 32.7163 74.6364C40.7473 79.6957 50.3944 80.0592 59.624 79.1357C60.5769 79.0424 64.7029 78.06 65.1499 78.6495C65.0468 79.0228 64.6391 79.2242 64.3493 79.4354C56.2249 85.3248 30.275 82.6822 25.9378 72.8288C25.6087 72.0871 25.7659 71.4731 25.5547 70.8689C25.3877 70.3826 21.9984 68.8403 21.3353 68.354C19.5228 67.018 18.1081 64.3115 19.4933 62.2337C18.6779 62.4253 18.7712 61.8457 18.3832 61.5018C17.1061 60.377 15.6423 59.5076 14.9547 57.8179C14.267 56.1281 14.5568 54.7381 15.4606 53.1417C12.9653 50.8773 12.1499 47.9694 14.1344 44.9977C22.0279 33.1746 46.0277 31.2491 58.7644 28.7833L60.7292 27.9335C59.8843 27.7518 59.01 27.5504 58.1504 27.4423C45.0797 25.8361 32.1465 29.0584 20.3824 34.5745C19.4933 34.992 17.0226 36.5933 16.3644 36.7063C15.3427 36.8831 15.048 36.2986 15.5588 35.4586C16.4675 33.9703 23.973 29.9327 25.9034 29.0633C35.7912 24.6131 50.8365 22.329 61.52 24.3232C63.7795 24.7457 63.7991 25.6151 65.8769 23.3998C65.5478 23.0019 65.0664 22.8742 64.6047 22.7121C50.9396 17.9967 34.6516 22.3093 21.7528 27.2802C21.6693 27.3146 21.07 28.3068 20.2252 27.9286C20.2792 27.516 20.0877 26.8431 20.2792 26.5091C20.4315 26.2389 24.8866 23.6503 25.5448 23.3114C27.1314 22.5009 28.7916 21.8427 30.5403 21.1943C41.661 17.0879 54.4271 16.3315 65.8818 19.593C66.2748 19.2246 64.2952 18.203 64.084 18.0802C56.6719 13.8559 46.2242 14.6074 38.1293 16.2676C36.1252 16.6802 33.3057 17.8886 31.3262 18.0752C30.8203 18.1244 30.5108 17.9967 30.0491 17.8739C29.8133 17.5448 30.9234 16.6017 31.1887 16.4396C35.58 13.7625 44.2004 11.9844 49.3187 11.7536C54.9183 11.4981 66.7856 13.1633 70.0177 18.2815C70.5285 19.092 70.7987 20.4919 71.4028 21.0617C72.0414 21.6659 74.1191 22.2602 75.1163 22.8742L75.1261 22.9037ZM74.4875 28.189C74.6742 26.4452 72.1887 26.0277 71.1229 25.0502L70.7053 24.9913C70.558 25.5218 69.0844 25.5905 69.7524 26.4698L74.4925 28.189H74.4875ZM72.007 31.1607C71.7319 30.6744 65.8081 28.6458 65.1696 29.0485C64.9633 29.1812 64.8355 29.6527 64.5212 29.8738C64.0005 30.2323 63.416 30.3551 62.9641 30.7628C62.9641 31.0575 67.9301 31.9515 68.6669 32.1725C69.1581 32.3199 69.5756 32.8209 69.9735 32.8553C70.4745 32.8995 72.4147 31.8631 72.0119 31.1607H72.007ZM78.0929 33.9114C77.9505 33.8181 76.914 33.4202 76.8207 33.4251C76.7225 33.4251 75.357 34.2847 75.2292 34.5598C75.9317 34.3829 75.912 34.9036 76.2706 35.1197C77.253 35.7141 78.422 36.1414 79.3946 36.7652C79.4486 36.3231 79.7335 35.9548 79.6107 35.4734C79.5812 35.3702 78.2206 33.9949 78.0929 33.9114ZM64.9141 35.051C61.2204 34.0047 57.3006 34.211 53.5037 34.5598C44.0825 35.4292 27.0823 39.1181 19.7684 45.2334C18.6927 46.1372 17.5629 47.4929 17.892 49.0156C18.2211 50.5383 20.4561 48.1659 21.2371 47.6845C33.5808 40.0759 48.631 39.1181 62.5171 35.9695L64.9092 35.0559L64.9141 35.051ZM75.9366 38.7497C74.8559 38.5532 73.5297 37.3154 72.5866 37.0649C71.2653 36.7112 68.7307 38.5384 67.3701 39.0935C54.3387 44.3935 34.5288 44.197 23.246 51.899C22.8433 52.174 22.6763 52.6161 22.2047 52.8126C22.7991 53.5985 24.4495 54.5072 25.4171 54.3009C25.8346 54.2125 25.8445 53.7901 26.0753 53.6869C30.555 51.673 35.5898 50.0914 40.3593 48.8879C52.2364 45.8867 64.8749 45.0959 75.912 39.4275L75.9317 38.7546L75.9366 38.7497ZM80.5243 45.4839C81.3201 44.423 81.7081 43.4848 80.8387 42.3108C80.6766 42.0898 80.652 41.913 80.3033 41.9424C79.817 41.9866 77.3021 44.1037 76.526 44.5556C66.5056 50.4696 51.0035 51.5797 39.6225 54.517C37.7903 54.9886 33.4187 55.9611 31.9598 56.6685C31.6258 56.8306 31.4539 56.9337 31.5325 57.3414C32.6377 57.2825 33.6839 58.1028 34.6565 58.2649C36.5083 58.5792 39.5635 57.2972 41.5382 56.919C49.2941 55.4405 57.2662 54.5563 64.9191 52.567C68.5981 51.6091 78.314 48.4213 80.5243 45.479V45.4839ZM22.2096 57.3463C21.5514 57.5281 19.4393 55.4405 19.0168 55.8727C18.953 57.366 19.8273 58.3778 21.3156 58.5203L22.2047 57.3463H22.2096ZM30.3094 60.7749C28.7769 60.5391 27.6619 59.1736 25.9525 59.8465C24.7933 60.9271 27.7503 62.2386 28.4773 62.2632C29.1551 62.2828 30.8055 61.3643 30.3094 60.7749ZM23.8748 64.0266C23.7176 63.9283 23.2313 63.9234 23.192 63.9578C22.4356 64.6848 25.6185 67.2193 26.6206 66.1485V65.4363L24.3316 64.6455C24.0172 64.4785 23.9583 64.0757 23.8748 64.0217V64.0266Z" fill="white"/>
<path d="M267.208 62.5632C257.04 53.3337 258.784 27.3101 274.625 25.4534C297.834 22.7371 299.485 61.2566 282.141 65.7806C276.88 67.151 271.29 66.2718 267.208 62.5632ZM275.028 56.2366C275.45 56.4773 278.624 56.5314 279.218 56.2366C279.522 56.0893 279.552 55.7651 279.724 55.6521C279.94 55.4998 280.269 55.5146 280.475 55.3034C283.604 52.0959 283.408 41.7169 281.477 37.92C279.945 34.904 275.504 34.1427 273.387 36.9425C270.72 40.4693 270.976 50.8384 273.432 54.5076C273.559 54.6992 274.925 56.1728 275.028 56.2268V56.2366Z" fill="white"/>
</g>
<defs>
<clipPath id="clip0_1041_87">
<rect width="453" height="95.0709" fill="white"/>
</clipPath>
</defs>
</svg>
