<svg width="150" height="63" viewBox="0 0 150 63" fill="none" xmlns="http://www.w3.org/2000/svg">
<path d="M137.451 4.52141C137.235 4.20792 137.538 3.71789 137.912 3.83953C138.295 4.17526 138.327 4.94054 138.924 4.97807C139.745 5.23386 140.085 4.28716 140.429 3.75195C140.684 3.86734 140.997 4.0703 140.853 4.42131C140.708 4.94818 140.081 5.21162 139.58 5.20953C138.857 5.23247 137.808 5.32283 137.451 4.52141Z" fill="white"/>
<path d="M17.5673 5.80102C18.8775 5.50075 20.1993 6.31329 20.7667 7.49145C21.0373 8.21086 21.1141 9.0102 20.9579 9.76505C20.8434 10.5296 20.3076 11.1378 19.7484 11.6223C18.5787 12.6246 16.6149 12.3243 15.7474 11.0607C14.9778 10.0709 14.8929 8.65015 15.3479 7.50466C15.7967 6.65805 16.5792 5.88999 17.5673 5.80102ZM17.9052 6.07419C17.5529 6.16177 17.1726 6.25282 16.891 6.50027C16.2154 7.22593 16.0989 8.29149 16.1612 9.24305C16.1448 10.0118 16.3387 10.8118 16.8581 11.3922C17.5139 12.0359 18.624 11.9323 19.2962 11.3735C19.8005 10.9078 19.9471 10.1772 19.9629 9.51274C19.9396 8.71132 19.9917 7.86749 19.636 7.12445C19.3325 6.47108 18.6397 5.9734 17.9052 6.07419Z" fill="white"/>
<path d="M25.7511 6.73379C26.3349 6.07138 27.2189 5.71411 28.0925 5.76903C28.6476 5.79057 29.1656 6.01161 29.7021 6.13186C29.8262 5.98033 29.955 5.83089 30.1057 5.70508C30.1475 6.43422 30.1893 7.16405 30.1907 7.89527C29.9406 7.43791 29.7535 6.92494 29.3705 6.55863C28.4831 5.76555 26.855 5.98033 26.3479 7.12165C25.8799 8.21918 25.8374 9.51063 26.2479 10.6339C26.6515 11.6251 27.8835 11.9149 28.8333 11.7258C29.4918 11.5257 29.8639 10.9154 30.3559 10.4817C30.3093 10.9057 29.9673 11.2045 29.6932 11.4958C28.7963 12.3799 27.2559 12.4918 26.2472 11.7425C25.4489 11.2316 24.948 10.2954 24.9199 9.34173C24.8165 8.40129 25.1796 7.46085 25.7511 6.73379Z" fill="white"/>
<path d="M54.8156 5.76367C54.867 5.76506 54.9711 5.76715 55.0225 5.76854C55.7598 7.52917 56.4732 9.29954 57.2009 11.0643C57.353 11.455 57.6538 11.7949 58.0752 11.8859C58.0862 11.9179 58.1081 11.9818 58.1191 12.0138C57.3365 12.0242 56.5554 12.0242 55.7735 12.0208C55.7783 11.9784 55.7872 11.8929 55.7914 11.8505C56.0058 11.8018 56.2265 11.7469 56.4396 11.683C56.2909 11.1067 56.0839 10.5486 55.8325 10.0113C55.0465 10.0057 54.2605 10.005 53.4753 10.0155C53.2916 10.4805 53.0552 10.9267 52.9237 11.4105C52.8168 11.7775 53.3478 11.7865 53.5719 11.856C53.576 11.8964 53.5849 11.9777 53.5897 12.0187C52.9675 12.0222 52.3467 12.0229 51.7266 12.0187C51.7348 11.9811 51.7512 11.9061 51.7601 11.8685C51.9945 11.7726 52.2576 11.676 52.3967 11.4452C52.605 11.1172 52.7058 10.7349 52.8599 10.3797C53.1512 9.7006 53.4499 9.0229 53.7082 8.32921C54.02 7.44924 54.4531 6.62209 54.8156 5.76367ZM53.6575 9.63804C54.3455 9.66932 55.0335 9.65681 55.7228 9.65472C55.3446 8.85052 55.0335 8.01781 54.7032 7.19275C54.2448 7.95456 53.9693 8.80812 53.6575 9.63804Z" fill="white"/>
<path d="M71.0159 6.49225C71.5812 5.98067 72.3548 5.71932 73.1106 5.77006C73.6554 5.73183 74.1254 6.08771 74.6647 6.08841C74.8271 6.00013 74.9614 5.86876 75.1122 5.76172C75.1519 6.46166 75.2314 7.15813 75.3088 7.85391C75.2554 7.85321 75.1485 7.85112 75.095 7.85043C74.895 7.38612 74.7504 6.85994 74.3495 6.52491C73.6074 5.92367 72.4357 5.93132 71.7354 6.5979C70.8192 7.72462 70.6637 9.43104 71.3091 10.726C71.7545 11.6344 72.8721 11.8958 73.7835 11.7269C74.4715 11.5628 74.821 10.8824 75.3911 10.5237C74.8442 12.0244 72.9112 12.6632 71.5476 11.9354C70.4149 11.3613 69.8037 10.0455 69.9154 8.79435C69.9846 7.9255 70.4012 7.09418 71.0159 6.49225Z" fill="white"/>
<path d="M6.74609 5.87109C8.38311 5.93157 10.0222 5.90029 11.6606 5.90793C11.6462 6.38823 11.6243 6.86853 11.5948 7.34814C11.5431 7.32193 11.4859 7.38392 11.4705 7.27839C11.4281 6.98777 11.3275 6.58187 11.1514 6.40908C10.297 6.12897 9.37875 6.28884 8.49686 6.25408C8.50029 7.64493 8.48864 9.03579 8.49206 10.4266C8.50303 10.8138 8.48864 11.2086 8.58799 11.5867C8.74519 11.7809 9.2084 11.8136 9.44641 11.8616C9.5212 11.8767 9.48693 11.9503 9.48668 12.0285C8.66749 12.0514 7.67116 12.0364 6.78241 12.0211C6.78447 11.9822 6.78721 11.9051 6.78858 11.8661C7.02978 11.7966 7.44983 11.8849 7.5718 11.5777C7.75475 10.6505 7.64923 9.69542 7.67869 8.75706C7.64238 7.95563 7.77394 7.13405 7.57728 6.34653C7.40049 6.07753 7.0243 6.10673 6.74883 5.99968C6.74815 5.96771 6.74678 5.90307 6.74609 5.87109Z" fill="white"/>
<path d="M33.7469 5.85938C34.5671 5.89621 35.3894 5.91081 36.211 5.87814C36.2185 5.90734 36.2336 5.96711 36.2418 5.99631C35.991 6.07276 35.7464 6.16799 35.5155 6.2931C35.9794 7.54216 36.7448 8.64247 37.3903 9.79769C37.5917 9.32017 37.8083 8.8496 37.9851 8.36166C38.2311 7.6923 38.5716 7.05144 38.6703 6.33481C38.4853 6.22221 38.301 6.1103 38.1111 6.00743C38.1173 5.97267 38.1303 5.90386 38.1365 5.86911C38.7505 5.88579 39.3672 5.90734 39.9811 5.87258C39.9859 5.90317 39.9948 5.96503 39.9996 5.99561C39.6166 6.16382 39.2233 6.3925 39.0677 6.81233C38.7375 7.51366 38.4716 8.24558 38.1557 8.95456C37.7795 9.86025 37.4643 10.8188 36.864 11.6042C36.5721 12.0073 36.089 12.2791 35.5847 12.2047C35.3387 12.1728 35.0783 12.0011 35.0304 11.7411C35.0557 11.5833 35.0543 11.4544 35.2109 11.3844C35.4463 11.3467 35.5247 11.4848 35.6552 11.5406C35.8703 11.6325 36.0407 11.5969 36.431 11.4353C36.6811 11.2991 36.7962 11.0169 36.9572 10.7958C36.5495 10.0396 36.1713 9.26526 35.6984 8.54794C35.2503 7.87163 34.9975 7.07715 34.4822 6.44463C34.2519 6.25974 33.9943 6.11794 33.7305 5.99144C33.7346 5.95808 33.7428 5.89274 33.7469 5.85938Z" fill="white"/>
<path d="M43.3312 5.94825C45.0135 5.85163 46.7005 5.95798 48.3827 5.87109C48.3772 5.90515 48.3649 5.97327 48.3587 6.00663C48.0997 6.10464 47.7133 6.06989 47.5961 6.36877C47.4207 7.0562 47.4988 7.777 47.4762 8.47903C47.4995 9.56961 47.4008 10.6859 47.6673 11.7542C47.8955 11.7855 48.1265 11.8154 48.356 11.8474C48.3718 12.5286 48.3841 13.2118 48.3423 13.8923C48.0305 13.4593 47.9483 12.8837 47.5543 12.5084C47.0616 12.051 46.3318 12.0392 45.7042 12.0114C45.1114 12.0316 44.4886 11.9412 43.9219 12.1623C43.177 12.3478 42.7076 13.0832 42.572 13.8117C42.5329 13.8186 42.4555 13.8325 42.4164 13.8388C42.413 13.1854 42.4123 12.532 42.4212 11.8794C42.9077 11.7563 43.3799 11.4693 43.595 10.9938C44.2789 9.63077 44.3947 8.04113 44.32 6.53976C44.2343 6.07823 43.6718 6.07684 43.3312 5.94825ZM44.8881 6.25617C44.7743 7.34536 44.7654 8.44914 44.5324 9.52234C44.3926 10.2967 44.0295 11.0029 43.6327 11.6708C44.6194 11.6833 45.6075 11.6959 46.5929 11.6229C46.5956 9.83374 46.5936 8.0446 46.5929 6.25478C46.0242 6.25408 45.4561 6.25408 44.8881 6.25617Z" fill="white"/>
<path d="M64.1738 5.88281C64.8665 5.90575 65.608 6.1956 65.9437 6.85314C66.2966 7.50443 66.1212 8.40317 65.5497 8.87026C64.9248 9.43466 64.0107 9.29843 63.2473 9.19417C63.2412 9.88299 63.2233 10.5718 63.2412 11.2606C63.246 11.424 63.2713 11.6054 63.3926 11.7249C63.6037 11.8035 63.8394 11.8049 64.0621 11.8438C64.0641 11.8876 64.0682 11.9752 64.0703 12.019C63.1973 12.0231 62.325 12.0238 61.4534 12.0197C61.4657 11.9766 61.4897 11.8897 61.502 11.8466C61.722 11.8313 61.9522 11.8181 62.1756 11.8049C62.4161 9.9657 62.2311 8.10011 62.2832 6.25051C62.0036 6.13026 61.709 6.04894 61.4219 5.95163C62.338 5.89602 63.2562 5.88559 64.1738 5.88281ZM63.2466 6.30334C63.2432 7.17635 63.2432 8.05007 63.2446 8.92309C63.6311 8.95715 64.0326 8.99329 64.4102 8.8925C65.2694 8.46086 65.3017 7.07626 64.5787 6.49657C64.2019 6.19004 63.6886 6.30681 63.2466 6.30334Z" fill="white"/>
<path d="M96.8175 5.86523C98.3867 5.92293 99.9593 5.92501 101.529 5.87566C101.578 6.32538 101.606 6.77787 101.626 7.23106C101.583 7.22481 101.498 7.2116 101.455 7.20535C101.331 6.84669 101.19 6.33441 100.752 6.29201C100.037 6.2232 99.3179 6.251 98.6018 6.25031C98.5998 7.04061 98.6012 7.83092 98.6018 8.62192C99.2329 8.58299 99.8969 8.70672 100.516 8.54198C100.788 8.35084 100.825 7.96785 100.98 7.68704C100.999 8.44328 101.001 9.20022 100.986 9.95647C100.843 9.67009 100.799 9.29406 100.523 9.10222C99.9031 8.91037 99.2384 8.98405 98.6018 8.95277C98.5998 9.80842 98.5984 10.6641 98.6073 11.5197C98.656 11.5697 98.7067 11.6205 98.7581 11.6705C99.4673 11.658 100.198 11.7456 100.896 11.5802C101.47 11.412 101.658 10.7871 102.022 10.3749C101.924 10.9289 101.727 11.4571 101.57 11.9951C99.9826 12.0431 98.3949 12.0209 96.8086 12.0167C96.8216 11.9819 96.8483 11.9124 96.8614 11.877C97.1039 11.8068 97.4239 11.8478 97.6247 11.6552C97.7515 11.4078 97.6679 11.1054 97.7131 10.842C97.7172 9.56653 97.7186 8.29036 97.7117 7.01489C97.6877 6.75076 97.733 6.42616 97.5569 6.20026C97.3465 6.05221 97.0697 6.06403 96.8305 6.00773C96.8271 5.97158 96.8209 5.90068 96.8175 5.86523Z" fill="white"/>
<path d="M105.48 5.93756C106.369 5.82843 107.263 5.92435 108.156 5.932C107.843 6.03695 107.345 6.09395 107.279 6.50683C107.196 7.25404 107.235 8.0075 107.235 8.75749C108.171 8.75888 109.107 8.75888 110.045 8.7568C110.034 8.00681 110.092 7.25056 110.011 6.50335C109.97 6.08491 109.455 6.0724 109.152 6.00568C109.164 5.97301 109.186 5.90767 109.197 5.875C110.074 5.9028 110.952 5.89724 111.831 5.90628C111.529 6.04043 111.226 6.16624 110.934 6.31916C110.978 8.08257 110.844 9.85711 110.997 11.6129C111.175 11.8318 111.533 11.7873 111.794 11.8645C111.796 11.8979 111.8 11.9646 111.802 11.9979C110.918 12.0313 110.036 12.0285 109.154 12.023C109.155 11.9792 109.157 11.8916 109.158 11.8478C109.421 11.8228 109.691 11.7887 109.952 11.7324C110.052 10.8448 110.053 9.94886 110.027 9.05707C109.103 9.03135 108.179 9.02023 107.256 9.05081C107.237 9.93217 107.182 10.824 107.318 11.6998C107.61 11.7769 107.909 11.8381 108.192 11.9521C107.303 12.0438 106.411 12.0362 105.522 12.0209C105.524 11.984 105.527 11.9104 105.529 11.8735C105.812 11.836 106.1 11.7741 106.358 11.6421C106.334 9.86545 106.346 8.08813 106.349 6.31081C106.074 6.15442 105.774 6.04946 105.48 5.93756Z" fill="white"/>
<path d="M115.176 5.86523C116.077 5.91111 116.981 5.8986 117.885 5.92154C117.591 6.05013 117.142 6.07098 116.996 6.41713C116.931 7.19422 116.963 7.97549 116.968 8.75468C117.88 8.75537 118.792 8.75537 119.707 8.75398C119.706 7.95117 119.741 7.14696 119.681 6.34623C119.498 6.07445 119.134 6.04804 118.86 5.9264C119.744 5.90068 120.631 5.89304 121.518 5.92084C121.282 6.01329 121.032 6.06403 120.821 6.20582C120.594 6.36986 120.636 6.70906 120.61 6.94817C120.575 8.22225 120.597 9.49772 120.594 10.7725C120.601 11.0825 120.575 11.4822 120.826 11.7143C121.03 11.8019 121.261 11.804 121.481 11.845C121.484 11.8881 121.49 11.975 121.492 12.0181C120.619 12.0236 119.746 12.0236 118.874 12.0181C118.886 11.9785 118.912 11.8992 118.925 11.8596C119.162 11.8241 119.413 11.7894 119.653 11.7484C119.721 10.8448 119.71 9.9384 119.709 9.03271C118.794 9.03132 117.88 9.03201 116.968 9.0334C116.979 9.87514 116.904 10.7273 117.009 11.5628C117.186 11.8645 117.63 11.7943 117.919 11.9534C117.009 12.0403 116.096 12.0341 115.185 12.0188C115.186 11.9791 115.188 11.8992 115.189 11.8596C115.42 11.8102 115.698 11.8443 115.915 11.7185C116.1 11.5885 116.008 11.2924 116.065 11.1179C116.099 9.84317 116.073 8.5684 116.08 7.29362C116.046 6.96068 116.116 6.59854 115.971 6.28576C115.769 6.0821 115.454 6.07376 115.2 6.00008C115.194 5.96602 115.182 5.8986 115.176 5.86523Z" fill="white"/>
<path d="M129.949 5.94156C130.808 5.83869 131.681 5.91376 132.546 5.86719C132.559 5.89708 132.583 5.95685 132.596 5.98674C132.367 6.07293 132.047 6.01454 131.867 6.21473C131.636 6.64776 131.731 7.17185 131.695 7.64311C131.722 9.0013 131.603 10.372 131.806 11.7211C132.091 11.7858 132.385 11.833 132.657 11.9498C131.764 12.045 130.867 12.0332 129.973 12.0179C129.987 11.9839 130.016 11.9172 130.03 11.8838C130.239 11.8226 130.496 11.8212 130.687 11.6899C130.884 11.5495 130.831 11.2499 130.865 11.0497C130.891 9.66023 130.893 8.26868 130.865 6.87922C130.852 6.64081 130.857 6.31968 130.631 6.16885C130.418 6.06042 130.168 6.01663 129.949 5.94156Z" fill="white"/>
<path d="M79.1511 5.91164C80.8162 5.9033 82.4813 5.90677 84.1464 5.90816C84.1437 6.39611 84.1423 6.88405 84.1409 7.372C84.1039 7.36644 84.0299 7.35462 83.9929 7.34906C83.9018 6.98692 83.7887 6.54138 83.4283 6.36344C82.9678 6.25153 82.4895 6.26335 82.0222 6.22998C82.0311 7.74525 81.9969 9.25983 82.027 10.7751C82.0195 11.1039 82.0873 11.4257 82.1462 11.7468C82.3758 11.7753 82.606 11.8031 82.8376 11.8302C82.8397 11.8782 82.8438 11.9748 82.8459 12.0235C81.9955 12.0255 81.1458 12.0255 80.2961 12.0193C80.3098 11.9831 80.3365 11.9109 80.3496 11.874C80.61 11.8281 80.8751 11.7712 81.1294 11.6898C81.1307 9.8715 81.1307 8.05317 81.1294 6.23485C80.6716 6.26335 80.1926 6.22234 79.7555 6.38985C79.3944 6.57196 79.3231 7.01959 79.1902 7.36644C79.1477 7.35671 79.062 7.33794 79.0195 7.32821C79.0757 6.85694 79.1374 6.38638 79.1511 5.91164Z" fill="white"/>
<path d="M87.5312 5.94898C88.5714 5.89337 89.6144 5.89476 90.6573 5.89824C91.2356 5.86557 91.8263 6.04977 92.2826 6.4126C92.7445 6.76848 92.9555 7.45383 92.7267 8.00294C92.5841 8.42833 92.2052 8.70219 91.827 8.89681C92.3025 9.0254 92.7883 9.32637 92.9816 9.80389C93.0844 10.2077 93.096 10.6658 92.9117 11.0481C92.6945 11.6723 91.9907 11.9232 91.4014 11.9955C90.1221 12.0712 88.84 12.0094 87.5607 12.0163C87.5737 11.9816 87.5991 11.9114 87.6121 11.8766C87.8341 11.8196 88.1062 11.8558 88.3124 11.7272C88.544 11.5054 88.4035 11.1225 88.4659 10.8437C88.4776 9.33123 88.4488 7.81805 88.4707 6.30555C88.1767 6.13874 87.8485 6.05185 87.5312 5.94898ZM89.3553 6.32363C89.3533 7.09099 89.3526 7.85836 89.3546 8.62642C89.9727 8.67299 90.6093 8.72929 91.2151 8.559C91.9387 8.25039 92.0551 7.16884 91.5015 6.64684C90.9135 6.1436 90.0632 6.03656 89.3553 6.32363ZM89.3546 9.08796C89.3519 9.93039 89.3519 10.7728 89.3553 11.6146C90.081 11.6597 90.9197 11.8412 91.5604 11.4081C92.3107 10.9167 92.136 9.64541 91.3562 9.29578C90.7354 8.95728 90.0255 9.02401 89.3546 9.08796Z" fill="white"/>
<path d="M124.875 5.95057C125.792 5.89496 126.716 5.87689 127.635 5.94153C127.382 6.05483 127.096 6.0875 126.851 6.21053C126.665 6.32799 126.685 6.57405 126.661 6.77006C126.611 7.37826 126.624 7.98923 126.625 8.59951C127.595 8.65929 128.843 8.5592 129.501 9.45863C130.13 10.3574 129.515 11.7454 128.471 11.9428C127.288 12.1117 126.086 12.0005 124.897 12.0117C124.913 11.9797 124.944 11.9164 124.96 11.8845C125.198 11.8129 125.573 11.856 125.712 11.5821C125.832 11.3089 125.771 10.9934 125.808 10.7049C125.809 9.43013 125.827 8.15466 125.795 6.87989C125.771 6.66719 125.809 6.34259 125.581 6.21609C125.351 6.10696 125.108 6.04718 124.875 5.95057ZM126.629 8.99988C126.626 9.89514 126.626 10.7911 126.629 11.6871C127.086 11.7246 127.59 11.7969 128 11.5446C128.738 11.1796 128.981 10.0119 128.355 9.43708C127.883 9.01656 127.228 8.94914 126.629 8.99988Z" fill="white"/>
<path d="M135.914 5.93676C136.827 5.89575 137.746 5.88185 138.662 5.93537C138.432 6.04381 138.178 6.10706 137.953 6.21827C137.749 6.35937 137.769 6.6666 137.746 6.8786C137.694 8.08803 137.732 9.29955 137.74 10.5104C138.626 9.41077 139.501 8.30003 140.329 7.15454C140.554 6.93073 140.647 6.49491 140.398 6.25789C140.191 6.04589 139.867 6.04937 139.606 5.94928C140.499 5.89089 141.397 5.88741 142.293 5.93329C142.011 6.11123 141.539 6.11123 141.471 6.50464C141.383 7.43674 141.437 8.37579 141.423 9.31137C141.43 10.1211 141.382 10.9392 141.538 11.7393C141.774 11.7678 142.006 11.7963 142.246 11.8255C142.248 11.8741 142.252 11.9721 142.254 12.0208C141.384 12.0236 140.514 12.025 139.646 12.0194C139.649 11.9805 139.653 11.9012 139.655 11.8623C139.896 11.7671 140.445 11.8818 140.502 11.5078C140.591 10.1469 140.524 8.78103 140.53 7.41867C139.738 8.42793 138.971 9.45734 138.192 10.4763C137.957 10.7703 137.637 11.0929 137.749 11.5127C137.926 11.8567 138.375 11.7928 138.681 11.9554C137.767 12.0402 136.849 12.0354 135.935 12.0173C135.948 11.9826 135.975 11.913 135.988 11.8783C136.229 11.8081 136.551 11.8477 136.751 11.6559C136.878 11.4084 136.793 11.1061 136.84 10.8426C136.833 9.40521 136.861 7.96639 136.832 6.52967C136.784 6.08899 136.211 6.09177 135.914 5.93676Z" fill="white"/>
<path d="M7.41582 14.9473C7.61111 14.9646 7.80503 14.989 7.99895 15.0154C8.06679 15.7244 8.27716 16.441 8.72119 17.004C9.01652 17.3133 9.43314 17.5309 9.86621 17.5128C10.4062 17.535 10.9907 17.5684 11.471 17.2716C12.6291 16.6189 13.9584 16.3284 15.2788 16.3458C16.3081 16.4146 17.3661 16.4709 18.3178 16.9164C18.7118 17.1668 19.2984 17.5569 19.395 17.6568C20.5441 18.5416 21.2623 19.4778 21.8687 20.8415C22.4628 22.067 22.7383 23.4474 22.6841 24.8118C22.6739 28.7508 22.6814 32.6898 22.6814 36.6289C22.6656 38.8607 21.9551 41.1628 20.3701 42.7657C20.0522 43.075 19.7137 43.3642 19.4334 43.7103C21.707 43.2384 23.9176 42.5106 26.1494 41.8746C26.2097 34.7973 26.1521 27.7186 26.1788 20.6407C26.2398 19.6662 25.963 18.6409 25.288 17.9257C24.5658 17.1986 23.49 17.1458 22.5382 17.0791C22.5313 16.9241 22.5252 16.7698 22.5224 16.6155C26.5262 16.6002 30.53 16.6189 34.5345 16.605C36.0681 16.5849 37.6914 16.8838 38.9467 17.8318C39.4052 18.1842 39.7738 18.6499 40.0362 19.1678C40.4248 20.0227 40.5008 20.9722 40.6016 21.8953C40.6968 24.2439 40.5694 26.5961 40.6673 28.9448C40.7537 30.0193 40.4433 31.1495 39.7361 31.967C39.1091 32.8129 38.1752 33.337 37.2357 33.7484C36.7972 33.9431 36.3024 33.8993 35.8365 33.9222C34.466 33.925 33.0955 33.9104 31.7251 33.9187C31.7244 35.9824 31.721 38.0468 31.7264 40.1112C32.8516 39.8533 33.9589 39.519 35.0896 39.2799C37.3556 38.8364 39.6059 38.297 41.8932 37.9724C42.5565 37.8293 43.2328 37.7688 43.8989 37.6437C43.9475 33.1118 43.9133 28.5791 43.9174 24.0465C43.8406 22.557 43.8989 21.0612 43.7906 19.5744C43.5535 18.791 43.0115 18.0994 42.3283 17.6671C41.9261 17.4065 41.4321 17.3668 40.975 17.2786C40.9469 17.1034 40.9181 16.9268 40.8955 16.7524C43.363 16.7468 45.8299 16.7454 48.2974 16.7531C49.8008 21.9182 51.187 27.1188 52.7274 32.2735C53.0001 31.1975 53.2434 30.1097 53.6086 29.0608C53.7518 28.689 53.7539 28.2823 53.8704 27.9028C54.6522 24.9453 55.3875 21.9745 56.1522 19.0121C56.3769 18.2197 56.5764 17.4197 56.7573 16.6155C62.886 16.6155 69.016 16.5877 75.1447 16.6294C75.1365 16.8469 75.1187 17.0645 75.0947 17.2813C74.2786 17.4315 73.3638 17.5441 72.7917 18.2287C72.3072 18.789 72.2188 19.5633 72.2359 20.2799C72.2037 24.8716 72.2291 29.4647 72.2222 34.0571C72.4168 34.0515 72.6389 34.0585 72.8403 34.0564C73.3734 31.9593 73.738 29.8213 74.2807 27.727C74.3978 27.3711 74.4527 27.0006 74.513 26.6322C75.2311 23.2861 76.0198 19.9567 76.7578 16.6155C79.4528 16.6029 82.1478 16.612 84.8428 16.6099C84.9031 16.8705 84.9333 17.1368 84.9627 17.4037C83.9623 17.5163 82.9249 17.7436 82.0957 18.3538C81.7003 18.6312 81.4708 19.0906 81.4461 19.5744C81.3385 21.2023 81.442 22.835 81.3968 24.465C81.2783 27.6137 81.3564 30.7659 81.3358 33.9167C84.5358 33.8604 87.7318 34.0112 90.9277 34.1321C90.9277 28.5062 90.9304 22.8809 90.9263 17.2556C90.3281 17.2167 89.7155 17.4301 89.3434 17.9229C88.5766 18.8898 88.1909 20.0943 87.8599 21.2725C87.1884 23.7212 86.8416 26.2458 86.5874 28.7696C86.3517 30.2188 86.3558 31.6924 86.2092 33.1514C85.9865 33.1465 85.798 33.1548 85.5842 33.1528C85.5829 27.6387 85.5829 22.1246 85.5842 16.6106C91.0202 16.6099 96.4554 16.6092 101.891 16.6106C101.897 19.0434 101.885 21.4754 101.895 23.9082C101.998 27.002 101.972 30.0993 101.939 33.1945C101.73 33.2028 101.543 33.2167 101.342 33.2271C101.234 31.0578 101.167 28.8836 100.855 26.7309C100.696 25.0488 100.374 23.3911 99.9885 21.7486C99.6582 20.5128 99.2786 19.2581 98.5468 18.1988C98.1623 17.5705 97.4963 17.1124 96.759 17.0638C96.7179 19.8316 96.8193 22.6015 96.6898 25.3672C96.6747 28.5152 96.6877 31.6639 96.6857 34.8119C98.9373 34.8564 101.172 35.1546 103.394 35.5056C104.325 30.8875 105.204 26.2583 106.021 21.6172C106.191 20.7553 106.329 19.8747 106.256 18.994C106.199 18.3907 105.881 17.7721 105.291 17.551C104.416 17.2584 103.472 17.2952 102.573 17.4495C102.544 17.2167 102.519 16.9832 102.497 16.7503C105.452 16.7461 108.407 16.751 111.363 16.7475C112.557 22.3443 113.667 27.9619 114.844 33.5636C115.066 34.798 115.403 36.0068 115.605 37.2454C115.662 37.4386 115.645 37.7208 115.873 37.8014C116.592 38.0864 117.323 38.3443 118.064 38.5709C118.059 36.927 118.093 35.2818 118.007 33.64C117.995 32.9255 117.915 32.2102 117.954 31.495C118.06 30.6894 118.303 29.9005 118.662 29.1741C119.081 28.3956 119.748 27.7416 120.567 27.4135C121.841 26.8984 123.262 26.9888 124.591 27.2112C123.892 26.7872 123.309 26.0783 123.232 25.2337C123.079 23.6566 123.07 22.0683 123.055 20.4843C122.637 21.0264 122.307 21.6847 121.666 21.9898C120.8 22.3644 119.788 22.4333 118.904 22.0829C118.094 21.8529 117.454 21.2134 117.073 20.4724C116.877 19.8545 116.627 19.1657 116.935 18.5325C117.097 17.9048 117.527 17.362 118.09 17.0589C118.911 16.6252 119.864 16.4521 120.783 16.5647C121.475 16.7232 122.17 16.9463 122.781 17.3189C123.222 17.7338 123.741 18.2454 123.737 18.9043C123.83 20.9882 123.922 23.0734 123.969 25.1587C124.057 25.6244 124.283 26.104 124.699 26.3563C125.189 26.7594 125.812 26.8964 126.411 27.0402C126.524 24.2836 126.538 21.5199 126.429 18.7626C126.451 18.3532 126.322 17.9229 126.033 17.631C125.415 17.0547 124.509 17.2786 123.753 17.1555C123.752 17.054 123.752 16.8511 123.751 16.7496C127.555 16.76 131.36 16.7239 135.165 16.7684C135.172 16.8761 135.186 17.0909 135.193 17.1986C134.527 17.2647 133.823 17.3689 133.285 17.8082C132.396 18.4254 132.178 19.6196 132.245 20.6407C132.333 22.8003 132.318 24.962 132.32 27.1237C133.056 27.018 133.823 26.8136 134.373 26.2736C134.865 25.8204 135.044 25.1197 135.049 24.4664C135.053 23.0519 135.128 21.6388 135.126 20.2236C135.137 19.4423 135.148 18.5985 135.614 17.9368C136.178 16.9248 137.393 16.5105 138.483 16.5411C139.382 16.5543 140.375 16.5696 141.146 17.1076C141.415 17.3223 141.746 17.4996 141.886 17.8346C142.046 18.219 142.217 18.5992 142.371 18.9864C142.584 19.5181 142.225 20.0512 141.971 20.4961C141.25 21.7674 139.691 22.4618 138.278 22.1677C137.704 22.0392 137.123 21.8376 136.684 21.4268C136.36 21.1627 136.14 20.8012 135.903 20.4613C135.842 22.019 136.079 23.5871 135.856 25.1371C135.648 25.8906 135.07 26.446 134.552 26.993C135.337 27.0778 136.112 27.2529 136.907 27.2328C137.616 27.214 138.369 27.3113 138.968 27.727C139.881 28.3268 140.474 29.3201 140.733 30.3766C141.224 31.8995 141.065 33.5239 141.087 35.099C141.039 37.4136 141.242 39.7261 141.119 42.0407C141.1 42.7782 141.343 43.5755 141.946 44.0314C142.637 44.5924 143.538 44.6445 144.367 44.8391C144.407 45.0212 144.399 45.188 144.453 45.3757C143.221 45.3674 141.993 45.4452 140.767 45.5523C139.552 45.7003 138.359 45.3472 137.205 45.0101C135.81 44.4909 134.436 43.9077 133.029 43.4232C133.198 43.816 133.439 44.2059 133.822 44.4165C134.288 44.7314 134.866 44.7675 135.394 44.9128C135.394 45.09 135.396 45.268 135.401 45.4466C131.519 45.6051 127.631 45.4918 123.747 45.5245C123.724 45.3152 123.763 45.1297 123.758 44.9267C124.489 44.7133 125.247 44.4068 125.731 43.7826C126.25 43.1153 126.43 42.2597 126.508 41.4318C125.648 41.0989 124.768 40.8049 123.858 40.6589C123.658 42.3862 122.942 44.2532 121.344 45.106C120.242 45.7608 118.936 45.5884 117.72 45.5926C114.393 45.4536 111.06 45.5592 107.731 45.5224C107.7 45.2972 107.688 45.0824 107.656 44.8607C108.401 44.7703 109.217 44.7022 109.802 44.1656C110.379 43.6443 110.443 42.7685 110.329 42.0428C110.089 40.474 109.817 38.908 109.701 37.3225C107.796 36.9931 105.866 36.8408 103.965 36.4829C103.62 38.4208 103.273 40.3579 102.94 42.2979C102.897 42.6364 102.832 42.9833 102.877 43.3245C103.015 43.857 103.391 44.3234 103.904 44.5242C104.678 44.8322 105.531 44.7641 106.345 44.8405C106.343 45.0212 106.344 45.2033 106.347 45.3855C104.29 45.3987 102.233 45.3618 100.178 45.4028C97.9424 45.5224 95.7024 45.4056 93.4665 45.4772C91.2052 45.5745 88.9412 45.5057 86.6799 45.5245C86.6799 45.3549 86.6806 45.0157 86.6813 44.8461C87.6797 44.762 88.7233 44.8231 89.6758 44.4659C90.3356 44.085 90.8283 43.351 90.8866 42.5759C91.0195 41.1072 90.9839 39.6316 91.014 38.1601C91.077 37.0709 91.0709 35.9803 91.0654 34.8912C88.7116 34.9412 86.3606 34.7904 84.0075 34.821C83.0927 34.8258 82.18 34.7688 81.2666 34.7459C81.2193 36.9034 81.3817 39.0582 81.3303 41.2164C81.3276 42.0324 81.2748 43.0055 81.9046 43.6269C82.5281 44.4367 83.6162 44.5611 84.5523 44.6473C84.5523 44.9156 84.5536 45.1846 84.5564 45.455C81.7003 45.4557 78.845 45.457 75.9903 45.4557C74.6157 45.4313 73.2425 45.3611 71.868 45.3827C71.8687 45.1602 71.8892 44.9503 71.8981 44.7314C72.9123 44.7773 73.9593 44.4624 74.6733 43.7027C75.0611 43.2717 75.3236 42.7316 75.4661 42.1686C75.6463 39.7275 75.5333 37.2781 75.5812 34.8321C74.8994 34.8203 74.2204 34.8001 73.542 34.7514C73.0507 37.0431 72.4812 39.3167 71.9872 41.6084C71.6912 42.8408 71.452 44.0877 71.1334 45.3139C64.6888 45.3194 58.2449 45.3166 51.801 45.3152C51.8017 45.1498 51.803 44.8197 51.803 44.6542C52.6979 44.6063 53.7114 44.5847 54.4227 43.9459C55.1031 43.4309 55.3375 42.5238 55.3539 41.7015C55.3909 39.9597 55.3525 38.2171 55.3642 36.4752C54.4254 36.4843 53.4921 36.5691 52.5582 36.6407C51.716 39.455 50.976 42.3014 50.1811 45.1304C49.8446 44.2657 49.6685 43.3496 49.402 42.4626C48.9182 40.8327 48.4735 39.1916 47.9979 37.5603C46.8447 37.741 45.7024 37.9961 44.5389 38.1031C44.53 39.5551 44.5362 41.0092 44.6417 42.4578C44.6965 43.1466 45.0617 43.8375 45.7106 44.1225C46.6775 44.6292 47.8033 44.3804 48.838 44.4325C48.8284 44.7265 48.8127 45.0198 48.7928 45.3139C45.7298 45.3194 42.6675 45.3159 39.6045 45.3159V44.6264C40.5968 44.5548 41.7596 44.8718 42.6113 44.192C43.4925 43.622 43.8153 42.5009 43.7673 41.4937C43.7296 40.4886 43.7022 39.4835 43.7105 38.4785C42.3516 38.5869 40.999 38.7919 39.6587 39.0477C38.7555 39.3174 37.8079 39.4071 36.9219 39.7359C35.1848 40.205 33.443 40.6575 31.6888 41.0523C31.6538 41.9295 31.6017 42.9207 32.2404 43.6123C33.0119 44.4937 34.2481 44.5646 35.3239 44.6549C35.341 44.8197 35.3767 45.1484 35.3938 45.3132C31.1557 45.3208 26.9175 45.3159 22.6793 45.3152C22.6787 45.0393 22.6793 44.764 22.6793 44.4895C23.6942 44.397 24.9605 44.698 25.7156 43.8097C26.0897 43.4865 26.113 42.968 26.2028 42.5134C24.7837 42.8734 23.3995 43.3669 21.9708 43.6929C20.847 44.0175 19.726 44.356 18.6269 44.7592C17.4894 45.2207 16.2676 45.3743 15.0699 45.5905C14.0913 45.726 13.0118 45.7601 12.0353 45.5648C11.4718 45.2848 11.1738 45.1577 10.9275 45.0262C9.78934 44.2422 8.93909 43.7339 8.12367 42.5704C7.20066 41.2289 6.66687 39.592 6.71346 37.9495C6.71826 36.8568 6.63603 35.7656 6.64083 34.6736C6.86147 34.6778 7.08349 34.6903 7.30482 34.7007C7.33428 35.8768 7.36443 37.0529 7.40554 38.2289C7.40006 38.6939 7.5282 39.1423 7.63784 39.5906C7.95853 40.7187 8.36144 41.8802 9.18783 42.7379C9.7833 43.4212 10.5926 43.9091 11.4772 44.087C12.6202 44.3102 13.8933 44.3262 14.9218 43.702C15.7722 43.2543 16.2539 42.3549 16.552 41.468C16.9508 40.2933 16.8432 39.0297 16.8576 37.8098C16.8309 34.5756 16.896 31.34 16.8268 28.1065C16.5876 28.5222 16.4814 28.9983 16.2717 29.4278C15.8174 30.426 15.0493 31.3066 14.0591 31.7765C12.9539 32.1463 11.7677 31.9781 10.6268 32.0566C10.0684 32.1004 9.52291 32.4695 9.31049 33.0005C9.14877 33.5017 9.08231 34.0327 8.88633 34.5248C8.5629 32.9818 8.30868 31.2983 8.93224 29.7983C9.34406 28.6911 10.3774 27.971 11.4422 27.5942C12.54 27.182 13.722 27.2592 14.8698 27.2363C15.714 27.2001 16.5767 26.6274 16.748 25.7543C16.9686 24.5053 16.8124 23.2236 16.8604 21.962C16.835 20.7463 16.9097 19.4069 16.2683 18.3198C15.9113 17.6456 15.1569 17.3536 14.4778 17.1437C13.6322 16.8977 12.7051 17.0874 11.9801 17.5774C11.2874 17.9861 10.7762 18.6235 10.191 19.1657C9.7319 19.5932 9.52222 20.2 9.31254 20.7769C8.61087 22.8531 8.07844 25.0141 7.99073 27.2147C7.8112 27.2258 7.63167 27.2369 7.45214 27.2488C7.3473 25.5813 7.41582 23.9096 7.39938 22.24C7.41103 19.8093 7.37334 17.378 7.41582 14.9473ZM61.5998 18.6221C61.2859 19.1942 61.092 19.8413 61.1181 20.5009C61.1235 25.2511 61.1167 30.0013 61.1235 34.7514C63.0586 34.5193 65.0143 34.4894 66.9425 34.1919C66.9425 29.767 66.9549 25.3422 66.9384 20.918C66.9295 19.7384 66.6129 18.4018 65.5947 17.7012C64.3359 16.7531 62.3864 17.3064 61.5998 18.6221ZM31.8621 17.4565C31.8683 20.952 31.7189 24.4448 31.7196 27.9404C31.6655 29.6503 31.6216 31.3609 31.6778 33.0714C32.437 33.0714 33.2209 33.1389 33.9582 32.9123C34.5112 32.7371 34.8504 32.1289 34.8045 31.5562C34.8196 27.5011 34.7956 23.4453 34.8148 19.3895C34.7702 18.8946 34.9278 18.2684 34.4845 17.9111C33.8006 17.1896 32.7283 17.4169 31.8621 17.4565ZM106.944 20.8971C106.235 24.6791 105.566 28.4686 104.858 32.2506C106.181 32.2492 107.505 32.2519 108.83 32.2464C108.762 31.5437 108.611 30.8541 108.489 30.1598C108.026 27.0632 107.433 23.9888 106.944 20.8971ZM44.6369 25.1316C44.5704 29.2033 44.6191 33.2765 44.6115 37.3483C45.7017 37.1432 46.794 36.9486 47.8767 36.7067C47.421 35.3193 47.164 33.8687 46.6398 32.5043C46.5021 32.033 46.4706 31.536 46.3143 31.0689C45.7524 29.0907 45.1974 27.1104 44.6369 25.1316ZM54.078 30.4566C53.5949 32.236 53.1098 34.0147 52.6246 35.7934C53.5332 35.6974 54.4425 35.6078 55.3477 35.482C55.3806 32.1741 55.3683 28.8648 55.3532 25.5562C54.8756 27.1751 54.4946 28.821 54.078 30.4566ZM75.0433 28.1565C74.6308 30.1028 74.1306 32.0302 73.7709 33.9876C74.3677 33.9869 74.9652 33.9813 75.5634 33.9646C75.584 31.3219 75.6045 28.6772 75.549 26.0352C75.3311 26.7288 75.2304 27.4538 75.0433 28.1565ZM124.827 28.2671C124.054 28.7939 123.734 29.8115 123.751 30.7186C123.747 33.729 123.749 36.7408 123.755 39.7518C124.707 40.0062 125.665 40.2384 126.624 40.4719C126.634 36.2855 126.628 32.0983 126.628 27.9112C126.011 27.7666 125.353 27.9258 124.827 28.2671ZM132.318 27.9181C132.316 29.1672 132.296 30.4162 132.349 31.6646C132.441 33.8729 132.332 36.0846 132.412 38.2943C132.479 39.6239 132.431 40.9557 132.479 42.2861C133.737 42.7581 134.963 43.3204 136.228 43.7763C135.926 43.0778 135.337 42.4682 135.28 41.6793C135.165 41.0211 135.054 40.3579 135.059 39.6879C135.044 36.6747 135.072 33.6616 135.054 30.6484C135.063 29.888 134.878 29.0824 134.358 28.5089C133.823 27.964 133.029 27.9077 132.318 27.9181ZM104.601 33.6087C104.456 34.2559 104.389 34.9183 104.283 35.5723C105.996 35.8552 107.708 36.1569 109.433 36.3612C109.283 35.3436 109.129 34.3261 109.081 33.2973C107.754 33.3467 106.434 33.1806 105.111 33.1569C104.741 32.9512 104.648 33.3877 104.601 33.6087ZM72.2099 34.6833C72.2318 35.108 72.2558 35.5334 72.3065 35.9567C72.486 35.5334 72.6382 35.0983 72.8307 34.6799C72.6286 34.6833 72.4031 34.6757 72.2099 34.6833ZM61.1222 35.5953C61.1201 37.4226 61.1194 39.25 61.116 41.0774C61.1386 41.6105 61.0756 42.1825 61.3291 42.6746C61.6094 43.3037 61.978 44.0071 62.6605 44.2587C63.4876 44.6389 64.4634 44.6619 65.3178 44.3526C65.925 44.135 66.417 43.6394 66.702 43.0604C66.9603 42.4119 66.9398 41.6925 66.9494 41.0072C66.9439 39.0338 66.9466 37.0605 66.9432 35.0872C65.0026 35.2526 63.0641 35.4479 61.1222 35.5953ZM96.6829 35.5744C96.7974 37.3371 96.7329 39.1047 96.7521 40.8702C96.7508 41.4457 96.8474 42.0192 96.9988 42.5739C97.2414 43.4552 97.9115 44.2122 98.7619 44.527C99.6417 44.8016 100.762 44.8308 101.454 44.1086C102.202 43.2258 102.266 42.015 102.482 40.9258C102.682 39.3883 103.079 37.8862 103.261 36.346C101.802 35.9824 100.297 35.8434 98.8023 35.7364C98.0972 35.6613 97.3928 35.5633 96.6829 35.5744ZM116.023 38.7544C116.419 40.5241 116.731 42.3125 117.102 44.0877C117.244 44.3831 117.642 44.3491 117.9 44.4214C118.235 42.7838 118 41.0947 118.055 39.4356C117.381 39.1972 116.711 38.9442 116.023 38.7544Z" fill="white"/>
<path d="M13.7721 48.6113C14.4374 48.5786 15.085 48.4208 15.7401 48.3145C15.2474 50.1328 14.6971 51.9344 14.1825 53.7458C14.9089 52.9736 15.3515 51.8628 16.3622 51.4103C16.6617 51.2644 17.0728 51.2699 17.3127 51.5257C17.5463 51.7676 17.4942 52.1603 17.5148 52.4669C17.3661 53.7701 16.9906 55.079 16.2293 56.1549C15.9223 56.6019 15.4399 56.9869 14.8684 56.9237C14.5382 56.8389 14.1394 56.6637 14.051 56.2912C14.0249 55.9902 14.3018 55.7031 14.5896 55.6781C14.8664 55.7581 15.0144 56.0583 15.2816 56.1584C15.4036 56.1619 15.5215 56.0945 15.5982 56.0013C16.0066 55.4515 16.1601 54.7662 16.3389 54.1156C16.5356 53.4351 16.5774 52.7219 16.5952 52.0178C16.2965 51.9949 15.9902 52.0686 15.7606 52.2715C15.1117 52.8158 14.7026 53.5852 14.2586 54.2963C13.8132 54.9601 13.6816 55.7601 13.4158 56.5025C13.1389 56.5032 12.8621 56.5046 12.5859 56.5066C12.9902 54.7801 13.5076 53.0827 14.0421 51.3943C14.2147 50.5735 14.5615 49.7845 14.556 48.9324C14.2949 48.9018 14.0338 48.8726 13.7721 48.8469C13.7721 48.7676 13.7721 48.6891 13.7721 48.6113Z" fill="white"/>
<path d="M29.1794 48.647C29.4713 48.5705 29.7735 48.5281 30.0763 48.5281C30.6759 48.5643 31.2022 48.8965 31.788 48.9966C32.0203 48.9271 32.1444 48.6963 32.2855 48.5156C32.3321 48.5267 32.4253 48.5497 32.4719 48.5608C32.3499 49.1176 32.1553 49.6583 32.0964 50.2297C32.0427 50.4567 32.0086 50.8047 31.9397 51.1487C31.9009 51.3424 31.7091 51.2396 31.7091 51.2396C31.6505 50.7196 31.7682 50.1046 31.431 49.6479C30.8513 48.795 29.3356 48.7096 28.8306 49.6834C28.7504 50.0441 28.7031 50.4744 28.9128 50.8052C29.4953 51.7679 30.4697 52.3928 31.1213 53.2992C31.6709 54.2924 31.3557 55.8042 30.2833 56.3005C29.5466 56.801 28.6024 56.7495 27.7973 56.4645C27.4971 56.3665 27.1984 56.2442 26.8756 56.2574C26.6124 56.2982 26.4908 56.5212 26.3775 56.7244C26.3775 56.7244 26.2874 56.7037 26.25 56.703C26.3295 56.2122 26.4508 55.7312 26.5803 55.253C26.6864 54.8576 26.8821 53.661 26.8821 53.661L27.038 53.6876C27.0702 54.375 27.0188 55.1161 27.467 55.6854C28.0905 56.395 29.374 56.5069 30.0092 55.7528C30.312 55.3455 30.4416 54.7866 30.2778 54.2952C29.7556 53.0879 28.5462 52.4025 27.9117 51.2744C27.3895 50.2241 28.146 48.9612 29.1794 48.647Z" fill="white"/>
<path d="M7.61133 48.657C9.55533 48.6494 11.5 48.6466 13.444 48.6584C13.1896 49.1939 13.0461 50.1872 12.9125 50.891C12.9125 50.891 12.8065 50.8784 12.6622 50.8667C12.6211 50.4677 12.7033 50.0618 12.6334 49.6669C12.5978 49.4543 12.4217 49.2798 12.2092 49.2589C11.7522 49.1971 11.2897 49.2089 10.8305 49.2013C10.4777 50.4878 10.0864 51.7626 9.7424 53.0513C9.46762 53.9799 9.13529 54.9071 9.05032 55.8789C9.14899 56.3404 9.72047 56.2688 10.0775 56.3251C10.0665 56.3647 10.046 56.4426 10.035 56.4822C8.92766 56.5183 7.81896 56.51 6.71094 56.5037C6.71505 56.4634 6.7219 56.3828 6.72533 56.3418C7.05629 56.2459 7.47086 56.2785 7.72988 56.013C7.87446 55.8379 7.95943 55.621 8.02658 55.4055C8.38564 54.1092 8.73648 52.8101 9.14419 51.5291C9.4827 50.7881 9.59028 49.9693 9.82257 49.1929C9.19627 49.2443 8.48157 49.1283 7.95189 49.5557C7.5291 49.7844 7.47874 50.3801 7.3136 50.7833C7.20602 50.8131 7.08439 50.7888 6.97612 50.8194C7.24199 50.1146 7.36876 49.3688 7.61133 48.657Z" fill="white"/>
<path d="M54.0246 48.6752C55.0456 48.6412 56.068 48.646 57.0897 48.6551C57.0732 48.726 57.0568 48.7975 57.041 48.8698C56.7375 48.9567 56.3764 48.9873 56.1523 49.2417C55.8172 49.649 55.7603 50.1891 55.5774 50.6687C55.3951 51.1643 55.2937 51.6835 55.1601 52.193C56.3291 52.1993 57.4974 52.1965 58.6671 52.1993C58.9268 51.2324 59.3153 50.2864 59.4017 49.2827C59.3105 48.8886 58.8192 48.9678 58.5129 48.8969C58.5232 48.8226 58.5348 48.7482 58.5472 48.6752C59.5928 48.6398 60.6392 48.646 61.6862 48.6585C61.667 48.7246 61.6478 48.792 61.6293 48.8587C61.2696 48.956 60.8125 49.0158 60.6042 49.3738C60.3836 49.7568 60.311 50.2009 60.1842 50.62C59.7566 52.0867 59.3037 53.5463 58.8891 55.0171C58.8398 55.364 58.6006 55.8213 58.8809 56.1278C59.107 56.2377 59.3694 56.2669 59.6134 56.3294C59.6045 56.367 59.588 56.4434 59.5791 56.4809C58.5849 56.5157 57.5906 56.5087 56.5963 56.5053C56.5991 56.4559 56.6032 56.3572 56.6052 56.3072C56.8622 56.2641 57.1192 56.2196 57.3775 56.1772C58.0106 55.0908 58.2135 53.8209 58.5403 52.6191C57.3734 52.6087 56.2064 52.608 55.0402 52.6212C54.799 53.1314 54.6612 53.6784 54.5441 54.2296C54.3563 54.8517 54.1781 55.4925 54.2357 56.1508C54.494 56.2057 54.7524 56.2655 55.0121 56.3176C55.0162 56.3642 55.0237 56.4573 55.0278 56.5039C54.0061 56.5039 52.9852 56.5233 51.9648 56.4879C51.9669 56.4538 51.971 56.385 51.9731 56.3503C52.378 56.2217 52.9365 56.198 53.0825 55.7205C53.3613 54.8718 53.6005 54.0099 53.8314 53.1467C53.9623 52.5649 54.2796 52.0415 54.3604 51.4479C54.4509 50.6951 54.8921 50.0132 54.7948 49.2341C54.7037 48.8823 54.2659 48.9658 53.9911 48.8962C54.0014 48.8219 54.0123 48.7482 54.0246 48.6752Z" fill="white"/>
<path d="M106.496 48.6537C107.14 48.6516 107.785 48.6495 108.432 48.6669C108.705 50.7556 108.837 52.8652 109.188 54.9442C109.583 54.3721 109.956 53.7834 110.381 53.2329C111.136 52.2542 111.76 51.1748 112.577 50.2434C112.953 49.7332 113.259 49.1736 113.63 48.6586C114.228 48.653 114.828 48.6544 115.43 48.6704C115.44 48.7441 115.453 48.8184 115.466 48.8935C115.044 48.9797 114.437 48.9505 114.313 49.492C113.829 50.7563 113.544 52.0881 113.13 53.3761C112.901 54.2157 112.571 55.0589 112.591 55.9437C112.706 56.2926 113.184 56.2203 113.458 56.3434C113.464 56.3823 113.474 56.4615 113.48 56.5011C112.403 56.5095 111.327 56.5095 110.252 56.5032C110.254 56.4629 110.258 56.3837 110.261 56.3441C110.598 56.2947 111.02 56.2961 111.245 55.984C111.602 55.5232 111.667 54.9136 111.85 54.3756C112.206 53.0077 112.62 51.6558 112.966 50.2858C112.133 51.2915 111.481 52.4335 110.685 53.4685C109.98 54.4722 109.27 55.4731 108.595 56.497C108.508 56.4998 108.422 56.5025 108.338 56.5067C108.068 54.4375 107.903 52.355 107.619 50.2885C107.178 51.8267 106.685 53.349 106.274 54.8962C106.205 55.257 106.023 55.642 106.144 56.0139C106.303 56.2794 106.686 56.237 106.956 56.3288C106.928 56.3837 106.901 56.44 106.876 56.497C106.032 56.5081 105.19 56.5081 104.348 56.5018C104.361 56.465 104.389 56.3913 104.403 56.3545C104.688 56.2794 105.014 56.2739 105.267 56.1015C105.424 55.9367 105.558 55.7386 105.645 55.5253C106.065 54.1365 106.408 52.7248 106.869 51.3499C107.172 50.6736 107.215 49.9174 107.392 49.2049C107.076 49.0728 106.746 48.9804 106.416 48.8942C106.442 48.8136 106.468 48.7329 106.496 48.6537Z" fill="white"/>
<path d="M81.0914 49.0332C81.3884 48.9568 81.7112 49.1796 81.8516 49.3018C81.8324 49.6002 81.7804 49.9722 81.4916 50.1325C81.1673 50.2797 80.7376 50.0819 80.6795 49.7189C80.5679 49.4156 80.8191 49.1227 81.0914 49.0332Z" fill="white"/>
<path d="M34.2321 50.6389C34.4946 50.3505 34.6412 49.9432 35.0105 49.7715C34.9016 50.3296 34.7385 50.8753 34.5974 51.4258C34.8934 51.4272 35.1928 51.4327 35.4909 51.4362C35.4546 51.5391 35.4189 51.6426 35.3847 51.7469C35.0832 51.7615 34.7837 51.7782 34.4843 51.7935C34.1287 53.2427 33.5229 54.6336 33.3139 56.1176C33.9094 56.046 34.1533 55.4114 34.6337 55.1354C34.4815 55.7471 34.0122 56.258 33.4599 56.5283C33.1878 56.5499 32.8089 56.7014 32.5821 56.4741C32.3375 56.1467 32.4786 55.7075 32.5643 55.3516C32.8438 54.1519 33.3427 53.0168 33.525 51.7914C33.331 51.7872 32.9425 51.7789 32.7479 51.774C32.7534 51.7302 32.7637 51.6419 32.7685 51.5981C33.3215 51.4021 33.8532 51.0998 34.2321 50.6389Z" fill="white"/>
<path d="M43.0929 50.8043C43.3992 50.4686 43.5801 49.9807 44.0262 49.8027C43.9295 50.3505 43.7726 50.885 43.6294 51.4216C43.9069 51.4257 44.1851 51.4313 44.4647 51.4369C44.4284 51.5397 44.3928 51.6426 44.3578 51.7469C44.0748 51.7608 43.7939 51.7768 43.5129 51.792C43.1662 53.2378 42.5824 54.6175 42.3227 56.0849C42.8743 56.0584 43.1998 55.5309 43.5506 55.1646C43.5808 55.2091 43.6411 55.2973 43.6712 55.3411C43.3211 55.7658 43.0182 56.2955 42.4995 56.5241C42.2137 56.5582 41.6621 56.7361 41.5436 56.342C41.4901 55.2598 41.9232 54.2373 42.2452 53.2267C42.3583 52.7499 42.4556 52.2682 42.5687 51.7914C42.3748 51.7879 41.9862 51.7795 41.7916 51.7761C41.7944 51.7267 41.7992 51.6287 41.8019 51.5794C42.2637 51.3875 42.7619 51.204 43.0929 50.8043Z" fill="white"/>
<path d="M83.8386 50.9156C84.1634 50.5862 84.419 50.1955 84.6931 49.8223C84.741 49.8362 84.837 49.8626 84.8849 49.8765C84.7678 50.3971 84.628 50.9121 84.4861 51.4272C84.7616 51.43 85.0384 51.4335 85.3173 51.4383C85.3043 51.5405 85.2933 51.6434 85.2824 51.7469C84.9802 51.765 84.6842 51.7859 84.3861 51.8081C84.0442 52.9334 83.7139 54.0629 83.3959 55.1959C83.3116 55.5073 83.2356 55.8243 83.2253 56.1482C83.7707 55.9925 84.0853 55.4649 84.5272 55.1452C84.3929 55.7436 83.8831 56.1864 83.4096 56.5256C83.0485 56.6438 82.6429 56.5965 82.3242 56.3887C82.3873 55.264 82.7724 54.1971 83.1205 53.1392C83.2185 52.6978 83.3281 52.2592 83.4411 51.8213C83.1342 51.7928 82.8313 51.7706 82.5284 51.7428C82.945 51.4355 83.4638 51.2847 83.8386 50.9156Z" fill="white"/>
<path d="M20.9097 51.5141C21.388 51.2993 21.9403 51.225 22.4521 51.3494C22.7509 51.4947 23.2025 51.6955 23.0908 52.1293C23.1305 52.5922 22.8482 52.9988 22.5111 53.2762C21.6682 53.9608 20.5787 54.259 19.5145 54.3097C19.5714 54.7094 19.4138 55.2071 19.7304 55.5345C20.0024 55.9633 20.5657 56.0509 21.0255 56.0078C21.6367 55.8709 22.1054 55.4351 22.6248 55.1119C22.6413 55.1647 22.6741 55.2703 22.6906 55.3225C22.1403 55.8014 21.5654 56.3185 20.8521 56.5236C20.3067 56.5639 19.6639 56.7362 19.1863 56.3658C18.4223 55.8375 18.3901 54.7727 18.6669 53.9629C18.9732 52.8452 19.8688 51.9527 20.9097 51.5141ZM20.8788 51.8957C20.2327 52.4365 19.7331 53.1795 19.568 54.0206C20.2758 53.9413 21.0323 53.8072 21.5805 53.304C22.0773 52.9536 22.3473 52.3719 22.3137 51.7581C21.8484 51.6156 21.279 51.5683 20.8788 51.8957Z" fill="white"/>
<path d="M36.8474 52.2536C37.3531 51.7045 38.063 51.2319 38.8359 51.3215C39.1367 51.4272 39.3437 51.7003 39.5588 51.9276C39.6232 51.7705 39.689 51.6149 39.7562 51.4599C40.0474 51.4265 40.3372 51.3737 40.6285 51.3403C40.2598 52.9334 39.6328 54.457 39.3793 56.078C39.85 55.9709 40.1584 55.581 40.4688 55.2439C40.4743 55.8555 39.8679 56.2448 39.4177 56.527C39.1182 56.5708 38.5954 56.7362 38.483 56.3233C38.4241 55.9181 38.6317 55.5163 38.6509 55.1125C38.1747 55.7012 37.6422 56.2983 36.9138 56.5562C36.5829 56.5631 36.1745 56.6924 35.8963 56.445C35.4262 56.0501 35.394 55.3419 35.5091 54.7795C35.6681 53.8141 36.2341 52.9828 36.8474 52.2536ZM38.3994 51.6753C38.0801 51.733 37.8266 51.9624 37.6073 52.1904C36.9426 52.9689 36.5068 53.9621 36.4013 54.9888C36.4143 55.3196 36.4061 55.7721 36.7672 55.9104C37.2578 56.0536 37.7094 55.7457 38.0342 55.4044C38.8647 54.5599 39.4684 53.3769 39.3012 52.1584C39.1867 51.7622 38.8044 51.496 38.3994 51.6753Z" fill="white"/>
<path d="M45.5697 52.5506C46.2707 51.7005 47.3869 51.1347 48.4949 51.3356C48.8019 51.4516 49.1925 51.6386 49.2329 52.0153C49.3364 52.5506 48.9047 52.9558 48.5655 53.2936C47.7522 54.0033 46.6613 54.2653 45.6122 54.3133C45.5855 54.8415 45.5457 55.5526 46.1117 55.8126C47.0224 56.3777 47.9886 55.6325 48.7355 55.1237C48.7505 55.1731 48.78 55.2718 48.7944 55.3211C48.1427 55.8848 47.4356 56.5556 46.5235 56.5758C46.1885 56.566 45.8212 56.6543 45.5087 56.493C44.8379 56.1872 44.4589 55.3948 44.5699 54.6678C44.6254 53.8608 45.1017 53.1713 45.5697 52.5506ZM46.8264 52.0174C46.2104 52.5123 45.8637 53.2665 45.6691 54.0227C46.4249 53.9296 47.2314 53.7635 47.8029 53.2123C48.2161 52.8821 48.4107 52.3559 48.4305 51.8339C47.9296 51.5211 47.2513 51.6171 46.8264 52.0174Z" fill="white"/>
<path d="M62.2413 52.2921C62.8882 51.7507 63.6782 51.2474 64.5533 51.303C64.9836 51.2822 65.492 51.4949 65.612 51.9516C65.8216 52.5215 65.3392 52.9761 64.9815 53.3334C64.1414 54.0111 63.0451 54.2696 61.9905 54.3072C62.0234 54.6895 62.0152 55.0947 62.1625 55.4554C62.4702 55.9065 63.0464 56.1158 63.5734 55.9872C64.1935 55.837 64.6787 55.3832 65.2522 55.126C64.9877 55.698 64.384 55.9962 63.8865 56.3229C63.1424 56.6558 62.1447 56.8004 61.4882 56.2075C61.1881 55.8648 61.0627 55.404 61.0195 54.9571C61.023 53.9423 61.517 52.974 62.2413 52.2921ZM63.6378 51.7611C62.8114 52.2296 62.3132 53.12 62.0741 54.025C62.9526 53.945 63.9119 53.7101 64.4772 52.9608C64.7506 52.6432 64.9761 52.0927 64.6656 51.7319C64.3559 51.5651 63.9523 51.629 63.6378 51.7611Z" fill="white"/>
<path d="M66.3485 51.6915C67.0091 51.5101 67.6936 51.4329 68.3706 51.3391C68.1178 52.2065 67.8581 53.0719 67.6203 53.9435C68.2384 53.0712 68.7427 52.0745 69.6267 51.4392C69.835 51.2974 70.2023 51.1806 70.3564 51.4454C70.6319 51.8541 70.34 52.4102 70.033 52.6931C69.6876 52.8335 69.5163 52.413 69.4211 52.1558C68.8702 52.3963 68.5858 52.9816 68.2343 53.4389C67.5573 54.3349 67.1893 55.4157 66.9221 56.4987C66.6219 56.498 66.328 56.5021 66.0312 56.5028C66.2094 55.7918 66.5082 55.1217 66.7405 54.4308C66.8364 53.5571 67.2825 52.7431 67.2537 51.8562C66.9522 51.8034 66.6466 51.7436 66.3485 51.6915Z" fill="white"/>
<path d="M70.7999 51.7867C71.4338 51.485 72.1443 51.469 72.8186 51.3182C72.5959 52.0807 72.3787 52.8446 72.1745 53.6127C72.6775 52.7862 73.2037 51.9097 74.0719 51.4287C74.4426 51.166 75.0778 51.2654 75.1683 51.7804C75.2854 52.4984 74.9367 53.181 74.8311 53.8789C75.3903 52.9329 75.9611 51.9048 76.9615 51.3724C77.2678 51.2049 77.7139 51.2828 77.8681 51.6178C78.0874 52.4275 77.6036 53.1546 77.4933 53.9338C77.3583 54.6316 77.0931 55.3017 77.0129 56.0114C77.4001 55.8223 77.6988 55.4998 77.9873 55.1849C78.0312 55.2127 78.1196 55.2676 78.1634 55.2947C77.7194 55.9141 77.1767 56.7635 76.2873 56.5709C76.1488 56.4632 76.0515 56.2859 76.0899 56.1059C76.2873 55.0258 76.6497 53.9859 76.9163 52.9231C76.9917 52.6104 77.0095 52.2871 77.0163 51.9674C76.3941 52.0077 75.9885 52.5554 75.6308 53.0128C75.1813 53.6954 74.7304 54.3946 74.4762 55.1801C74.3275 55.6166 74.2185 56.0663 74.0705 56.5035C73.7725 56.5035 73.4806 56.5084 73.1859 56.5104C73.3305 55.6555 73.7594 54.884 73.8876 54.0269C74.0095 53.3186 74.4022 52.5958 74.1671 51.8694C73.8561 51.9952 73.5717 52.1822 73.351 52.4394C72.7816 53.0712 72.2595 53.7732 71.9614 54.5816C71.6784 55.1981 71.5646 55.8758 71.3145 56.5056C71.0281 56.4979 70.7478 56.4958 70.4648 56.4861C70.7924 55.2322 71.2494 54.02 71.5475 52.7577C71.5633 52.5047 71.8182 52.1634 71.5948 51.934C71.3741 51.7485 71.0617 51.8263 70.7999 51.7867Z" fill="white"/>
<path d="M79.3519 51.6363C80.0111 51.5077 80.6853 51.4556 81.3391 51.293C81.0684 52.2911 80.784 53.2851 80.5181 54.2839C80.3749 54.8803 80.059 55.4516 80.1529 56.0848C80.5531 55.9013 80.8704 55.5774 81.0965 55.1993C81.1465 55.209 81.2452 55.2299 81.2952 55.2396C81.1383 55.7158 80.7463 56.0612 80.3784 56.3726C80.0076 56.6673 79.5019 56.5756 79.0977 56.3997C79.1758 55.6379 79.3861 54.8997 79.6554 54.1873C79.8343 53.4588 80.0638 52.7443 80.2454 52.0165C80.1652 51.9394 80.0871 51.8622 80.0097 51.7851C79.7843 51.7955 79.5698 51.8184 79.3478 51.8393C79.3491 51.7886 79.3512 51.6871 79.3519 51.6363Z" fill="white"/>
<path d="M87.0159 51.9837C87.5025 51.6049 88.0705 51.1955 88.7235 51.3137C89.0771 51.3867 89.2847 51.7057 89.4533 52.0004C89.4979 51.826 89.5445 51.6522 89.5931 51.4798C89.9193 51.4311 90.2427 51.3554 90.5696 51.3067C90.2811 52.3202 89.9494 53.3211 89.6753 54.3394C89.4841 54.894 89.3245 55.4626 89.3033 56.0534C89.7199 55.9408 89.9967 55.5829 90.2653 55.2638C90.329 55.3139 90.3928 55.3639 90.4592 55.4153C90.1557 55.7914 89.8747 56.214 89.4554 56.4691C89.1395 56.6039 88.7784 56.5497 88.4474 56.5956C88.3768 56.0868 88.4405 55.5794 88.5598 55.0845C88.0781 55.6336 87.6279 56.2904 86.9097 56.5337C86.5445 56.5615 86.1046 56.6866 85.7853 56.4413C85.3673 56.0333 85.2542 55.3896 85.3632 54.8287C85.5872 53.7305 86.2046 52.7351 87.0159 51.9837ZM88.3535 51.6723C87.8012 51.8093 87.375 52.2757 87.0995 52.7587C86.6692 53.4893 86.2697 54.3074 86.3389 55.1853C86.3198 55.4612 86.3876 55.8484 86.7001 55.9304C87.0989 56.0041 87.5244 55.863 87.7916 55.5509C88.6687 54.6653 89.417 53.4246 89.1614 52.1179C89.097 51.7564 88.7016 51.5201 88.3535 51.6723Z" fill="white"/>
<path d="M92.3976 51.8819C93.0705 51.3001 94.0312 51.1757 94.872 51.3606C95.5182 51.7011 96.2651 51.6386 96.9736 51.6553C96.9167 51.8555 96.8585 52.0556 96.8044 52.2572C96.4912 52.2593 96.1856 52.2683 95.8759 52.2725C95.9368 52.675 96.0198 53.1129 95.8354 53.4951C95.4901 54.1555 94.8693 54.699 94.1141 54.7762C93.4981 54.8526 92.8465 55.025 92.4257 55.522C93.2096 56.06 94.1998 56.0197 95.0598 56.3526C95.9334 56.6856 95.9012 58.0521 95.1372 58.4775C94.6555 58.7242 94.1511 58.9835 93.5988 58.9967C92.732 59.0502 91.7597 59.1016 91.0073 58.5803C90.6907 58.376 90.5146 57.9652 90.6208 57.5919C90.8415 57.0081 91.4047 56.6883 91.9214 56.4166C91.8556 56.1837 91.7302 55.9383 91.7706 55.6951C91.9769 55.2704 92.4326 55.0709 92.8328 54.8756C92.2106 54.6469 91.5651 54.1214 91.6192 53.3784C91.5733 52.7702 91.97 52.2551 92.3976 51.8819ZM93.8318 51.6045C93.1048 51.7797 92.7471 52.5547 92.6381 53.2414C92.547 53.6932 92.645 54.307 93.1226 54.4947C93.5694 54.7602 94.0703 54.4057 94.4287 54.1534C94.8329 53.6126 95.0591 52.871 94.9001 52.1995C94.8391 51.6886 94.2567 51.5267 93.8318 51.6045ZM92.2524 56.5431C91.55 56.6939 91.0443 57.7643 91.6089 58.3162C92.164 58.734 92.9205 58.6679 93.5707 58.6297C94.0401 58.5845 94.5636 58.474 94.885 58.091C95.107 57.8255 95.0618 57.3195 94.7213 57.1811C94.0573 56.9365 93.3597 56.8128 92.6827 56.6133C92.5408 56.5771 92.3983 56.5278 92.2524 56.5431Z" fill="white"/>
<path d="M98.6665 51.986C99.2051 51.5432 99.8903 51.2589 100.592 51.3083C101.005 51.2916 101.483 51.4807 101.643 51.8949C101.839 52.4572 101.452 52.9577 101.068 53.3101C100.23 53.9809 99.1434 54.2533 98.0937 54.3089C98.0957 54.7315 98.0107 55.2153 98.2951 55.5705C98.7028 56.0265 99.4299 56.1752 99.9712 55.8798C100.425 55.6935 100.8 55.3655 101.22 55.1145C101.235 55.166 101.265 55.2681 101.28 55.3189C100.709 55.8089 100.123 56.3407 99.3798 56.5325C98.7823 56.5957 98.0937 56.707 97.5928 56.2795C97.1631 55.8235 96.9445 55.166 97.0706 54.5383C97.2803 53.5339 97.8271 52.5782 98.6665 51.986ZM99.5525 51.8372C98.7953 52.3266 98.3424 53.1621 98.1128 54.0219C99.1818 53.9711 100.383 53.5054 100.819 52.4315C100.896 52.1688 100.883 51.7469 100.563 51.6635C100.219 51.6169 99.8465 51.6371 99.5525 51.8372Z" fill="white"/>
<path d="M116.109 51.3369C116.41 51.1729 116.743 51.4419 116.792 51.7394C116.829 52.2711 116.598 52.7625 116.451 53.2602C116.255 54.1395 115.921 54.9868 115.795 55.8813C116.702 56.0419 117.201 55.1181 117.659 54.4988C118.359 53.6077 118.697 52.5046 119.016 51.4314C119.298 51.4328 119.581 51.4349 119.868 51.4384C119.568 52.5999 119.232 53.7516 118.891 54.9013C118.775 55.2829 118.709 55.6763 118.676 56.0739C119.1 55.9717 119.361 55.6109 119.594 55.2641C119.642 55.2759 119.735 55.2996 119.783 55.3114C119.524 55.8181 119.139 56.2608 118.648 56.5472C118.394 56.5264 118.009 56.7231 117.837 56.4576C117.715 56.3137 117.732 56.1149 117.772 55.9446C117.922 55.2794 118.121 54.6274 118.311 53.9733C117.686 54.7956 117.227 55.784 116.355 56.3762C116.023 56.6501 115.571 56.5437 115.179 56.5959C115.072 56.3728 114.925 56.1503 114.929 55.8945C115.094 54.5238 115.736 53.2505 115.827 51.8693C115.431 51.9632 115.187 52.2968 114.954 52.6061C114.908 52.5943 114.815 52.5714 114.77 52.5596C115.102 52.0535 115.503 51.4989 116.109 51.3369Z" fill="white"/>
<path d="M121.291 52.7466C121.213 52.0077 121.868 51.3071 122.59 51.3001C122.963 51.2522 123.292 51.4503 123.649 51.5087C123.943 51.5782 124.19 51.3877 124.446 51.2793C124.333 51.8639 124.213 52.447 124.094 53.0302C124.017 53.0288 123.94 53.0274 123.866 53.0274C123.78 52.65 123.817 52.1759 123.497 51.9021C123.144 51.5226 122.573 51.6539 122.13 51.7589C122.127 52.0724 122.016 52.4394 122.21 52.7223C122.691 53.4048 123.415 53.9665 123.634 54.8075C123.895 55.5179 123.327 56.1539 122.765 56.4764C121.906 56.8239 120.976 56.2352 120.121 56.58C120.212 55.985 120.316 55.3928 120.428 54.802C120.501 54.7894 120.575 54.7769 120.651 54.7658C120.749 55.2899 120.789 55.985 121.332 56.2519C121.783 56.304 122.546 56.4896 122.728 55.8863C122.981 55.3469 122.635 54.827 122.315 54.4204C121.911 53.9074 121.361 53.4431 121.291 52.7466Z" fill="white"/>
<path d="M126.689 51.9793C127.326 51.46 128.169 51.2056 128.981 51.3266C129.429 51.4051 129.818 51.8402 129.693 52.3247C129.646 52.8147 129.259 53.172 128.899 53.4612C128.076 54.0075 127.101 54.2765 126.123 54.3168C126.14 54.5622 126.173 55.0522 126.191 55.2976C126.369 55.8724 127.038 56.0955 127.58 56.0114C128.206 55.8363 128.748 55.4547 129.304 55.1266C129.052 55.6833 128.487 55.9919 127.998 56.295C127.497 56.6412 126.859 56.5849 126.288 56.5723C125.577 56.4827 125.101 55.7417 125.118 55.0487C125.021 53.824 125.744 52.6799 126.689 51.9793ZM127.303 52.046C126.676 52.5374 126.354 53.2777 126.146 54.029C127.088 53.9345 128.165 53.6329 128.686 52.7536C128.977 52.4665 128.851 52.0585 128.835 51.7005C128.304 51.6338 127.693 51.6116 127.303 52.046Z" fill="white"/>
<path d="M131.532 51.3454C131.821 51.1966 132.055 51.4434 132.303 51.5407C132.277 52.3512 131.929 53.0859 131.759 53.865C131.592 54.5101 131.421 55.1551 131.217 55.7897C131.475 55.8238 131.767 55.9419 131.999 55.7654C132.684 55.2482 133.145 54.4941 133.589 53.7705C133.994 53.0358 134.214 52.2163 134.508 51.4344C134.793 51.4309 135.089 51.4316 135.38 51.4302C134.961 52.6646 134.654 53.9325 134.293 55.1843C134.212 55.4762 134.145 55.7751 134.145 56.0803C134.599 55.9211 134.834 55.4665 135.186 55.1648C135.226 55.6931 134.748 56.026 134.407 56.3381C134.136 56.5932 133.732 56.5543 133.4 56.6252C133.324 56.4257 133.207 56.2214 133.249 56.0003C133.357 55.3657 133.576 54.7575 133.686 54.1236C133.105 54.8785 132.666 55.78 131.865 56.3312C131.511 56.5856 131 56.6982 130.602 56.5098C130.281 56.1963 130.409 55.659 130.483 55.267C130.756 54.1681 131.189 53.0991 131.284 51.9605C131.232 51.9452 131.125 51.9153 131.072 51.9001C130.838 52.135 130.605 52.3699 130.389 52.6222C130.34 52.6063 130.241 52.5736 130.191 52.5576C130.537 52.0703 130.938 51.5261 131.532 51.3454Z" fill="white"/>
<path d="M136.254 51.6776C136.895 51.5365 137.55 51.4697 138.191 51.3217C138.004 52.1148 137.732 52.8835 137.529 53.6718C138.082 52.8613 138.538 51.9076 139.447 51.4378C139.725 51.3286 140.079 51.2279 140.344 51.4162C140.539 51.5274 140.7 51.7353 140.598 51.9904C140.598 52.6472 140.32 53.2533 140.194 53.8886C140.737 53.0789 141.206 52.1926 141.968 51.5636C142.224 51.3745 142.547 51.2932 142.862 51.3036C143.185 51.3752 143.41 51.7255 143.348 52.0606C143.382 52.6382 143.081 53.1511 142.972 53.7023C142.8 54.4593 142.576 55.2009 142.379 55.9509C142.868 55.9356 143.119 55.4449 143.414 55.1182C143.441 55.2107 143.564 55.3107 143.494 55.4101C143.209 55.8063 142.877 56.1719 142.496 56.4729C142.203 56.6203 141.856 56.5501 141.543 56.5376C141.521 56.1706 141.506 55.7994 141.616 55.4442C141.835 54.7644 141.976 54.0631 142.175 53.3777C142.327 52.9113 142.365 52.4206 142.401 51.9348C142.034 52.0522 141.669 52.2295 141.417 52.5325C140.457 53.6801 139.86 55.0737 139.417 56.4959C139.124 56.4993 138.841 56.5056 138.555 56.5105C138.75 55.5888 139.184 54.7373 139.317 53.801C139.4 53.1838 139.909 52.4908 139.543 51.8778C138.9 52.1544 138.422 52.7049 138.04 53.2797C137.403 54.2549 137.037 55.3768 136.75 56.5007C136.446 56.5 136.153 56.5042 135.855 56.5049C136.251 54.9632 136.837 53.4709 137.068 51.8875C136.798 51.834 136.523 51.818 136.249 51.8117C136.25 51.7784 136.253 51.7109 136.254 51.6776Z" fill="white"/>
</svg>
