<svg width="60" height="60" viewBox="0 217 495 60" fill="none" xmlns="http://www.w3.org/2000/svg">
<g clip-path="url(#clip0_1045_756)">
<path d="M488.983 296.718C516.417 163.081 430.322 32.5071 296.686 5.07303C163.049 -22.361 32.4749 63.7334 5.0409 197.37C-22.3931 331.007 63.7013 461.581 197.338 489.015C330.975 516.449 461.549 430.355 488.983 296.718Z" fill="white"/>
<path d="M426.206 218.932L442.182 217.48H442.376C442.957 221.159 443.344 224.935 443.732 228.615C444.119 232.294 444.313 236.071 444.506 239.847H444.313L428.336 241.3L428.53 248.174L467.261 244.495L466.971 237.62L450.703 239.169H450.607C450.413 235.393 450.219 231.713 449.832 227.937C449.445 224.258 449.057 220.481 448.476 216.802H448.573L464.937 215.253L463.872 208.475L425.141 212.154L426.206 218.932Z" fill="black"/>
<path d="M144.374 97.6064L135.95 83.7599L140.016 81.2423L151.539 85.6965C157.349 88.0203 163.062 88.795 167.128 84.244L164.03 79.1121C162.093 81.2423 158.995 81.1455 154.541 79.5962L141.953 75.0453L146.117 51.3223L139.145 55.2922L136.143 76.1104L132.754 78.2406L124.233 64.2973L118.617 68.2673L138.854 101.383L144.374 97.6064Z" fill="black"/>
<path d="M229.179 37.3782L228.888 33.6019C229.566 33.5051 230.244 33.5051 230.825 33.4082C234.698 33.1177 238.571 32.9241 242.444 32.8273L244.962 65.6522L251.837 65.168L249.319 32.9241L248.835 26.7271C245.156 26.7271 241.379 26.7271 237.7 26.9207L222.982 28.0827C222.691 28.0827 222.304 28.1795 222.014 28.1795L222.498 34.2797L222.595 35.8289C224.337 59.2615 220.852 62.0695 216.882 62.36C216.01 62.4568 215.139 62.36 214.655 62.1664L214.461 67.8792C215.526 68.0729 217.753 68.2666 219.302 68.1697C226.855 67.5888 231.019 62.2632 229.179 37.3782Z" fill="black"/>
<path d="M191.196 75.3361C202.621 71.5598 207.947 60.134 204.461 49.6765C200.975 39.0254 190.227 32.9251 178.705 36.7015C167.279 40.4778 161.953 51.9036 165.439 62.3611C168.925 73.0122 179.77 79.1124 191.196 75.3361ZM180.641 42.8017C188.097 40.381 195.262 44.7382 197.683 52.0004C198.845 55.6799 198.651 59.4562 197.199 62.5547C195.746 65.6532 193.132 68.1708 189.356 69.4296C181.9 71.8503 174.735 67.493 172.314 60.2308C170.377 54.1306 172.411 48.0304 177.349 44.7382C178.414 43.9636 179.382 43.189 180.641 42.8017Z" fill="black"/>
<path d="M397.189 111.647C404.645 103.513 404.548 90.9256 395.639 82.792C390.217 77.9506 383.73 76.3045 377.629 77.6601L379.179 84.5349C383.342 83.4698 387.796 84.3412 391.379 87.5366C396.317 92.0875 396.898 98.7687 393.606 104.191C390.701 101.189 387.7 98.2846 384.601 95.5734C383.342 94.4114 381.987 93.2495 380.728 92.0875L376.758 96.7353C378.017 97.8004 379.275 98.9624 380.534 100.027C383.633 102.836 386.634 105.74 389.539 108.742C384.407 112.518 377.533 112.615 372.497 108.064C368.818 104.772 367.559 100.221 368.431 95.8639L361.556 94.8956C360.684 101.189 362.815 107.871 368.334 112.809C377.242 120.942 389.636 119.877 397.189 111.647Z" fill="black"/>
<path d="M299.19 214.577C307.711 204.701 311.293 192.694 311.293 181.268C311.293 172.069 308.776 153.672 292.605 140.987C281.47 132.37 271.69 128.303 248.161 128.303H236.251C235.864 128.303 235.573 128.303 235.089 128.303H186.094V359.82H326.011V315.376C326.011 272.868 312.262 244.304 276.725 231.716C287.861 227.068 294.736 220 299.19 214.577ZM271.4 210.123C265.009 218.063 254.648 225.422 239.931 225.422C239.834 225.422 239.737 225.422 239.64 225.422V236.945C278.952 236.945 294.348 263.088 294.348 310.922V346.942H269.076V269.673H239.931V347.039H217.66V139.825H240.608C249.226 139.825 262.201 141.762 271.4 153.188C276.144 158.997 279.146 166.647 280.114 174.393H239.931V185.819H280.405C280.114 193.178 278.565 201.408 271.4 210.123Z" fill="black"/>
<path d="M334.14 74.9476C338.013 76.8842 342.758 75.3349 344.694 71.4618C346.631 67.5886 345.082 62.844 341.208 60.9074C337.335 58.9709 332.591 60.5201 330.654 64.3933C328.717 68.2664 330.267 73.011 334.14 74.9476Z" fill="black"/>
<path d="M273.027 58.3889C276.125 58.7762 279.127 59.2603 282.225 59.8413C285.227 60.4223 288.326 61.1001 291.327 61.7779L293.361 71.6544L300.623 73.6878L290.94 31.0832L284.646 30.0181L260.148 66.1352L267.507 66.813L273.027 58.3889ZM286.099 38.7326L289.875 55.2904C287.648 54.8062 285.518 54.3221 283.29 53.9348C281.063 53.5474 278.933 53.1601 276.706 52.7728L286.099 38.7326Z" fill="black"/>
<path d="M428.518 158.028C418.06 161.901 412.444 172.94 416.608 184.269C420.772 195.598 432.488 200.342 442.849 196.469C453.306 192.596 458.922 181.558 454.759 170.229C450.498 158.9 438.879 154.155 428.518 158.028ZM448.755 172.359C451.466 179.621 447.496 187.077 440.331 189.691C439.653 189.982 438.975 189.885 438.394 190.079C431.81 191.628 425.129 188.82 422.708 182.139C420.965 177.588 421.934 172.94 424.645 169.551C425.032 168.97 425.613 168.486 426.097 168.002C426.194 167.905 426.291 167.711 426.388 167.614C426.678 167.324 427.066 167.13 427.453 166.84C427.84 166.549 428.227 166.259 428.615 165.968C428.615 165.968 428.615 165.968 428.712 165.968C429.486 165.484 430.261 165.097 431.132 164.806C434.715 163.451 438.491 163.548 441.687 164.806C444.785 166.162 447.4 168.679 448.755 172.359Z" fill="black"/>
<path d="M393.14 139.532L406.696 130.623L409.311 134.593L405.244 146.213C403.114 152.119 402.533 157.832 407.18 161.802L412.215 158.51C410.085 156.67 410.085 153.572 411.441 149.118L415.508 136.336L439.327 139.725L435.067 132.85L414.152 130.526L411.925 127.234L425.578 118.229L421.414 112.71L388.977 134.012L393.14 139.532Z" fill="black"/>
<path d="M59.9217 180.2C64.279 180.587 68.0553 177.489 68.5395 173.131C68.9268 168.774 65.8282 164.998 61.471 164.514C57.1137 164.126 53.3374 167.225 52.8532 171.582C52.3691 175.939 55.5644 179.716 59.9217 180.2Z" fill="black"/>
<path d="M312.954 415.98L301.044 449.87L292.33 422.661L285.648 424.211L297.655 461.393L304.143 459.747L315.859 426.147L324.574 453.163L330.867 450.645L318.957 413.56L312.954 415.98Z" fill="black"/>
<path d="M247.117 440.282C242.759 440.282 239.273 443.768 239.273 448.125C239.273 452.483 242.759 455.968 247.117 455.968C251.474 455.968 254.96 452.483 254.96 448.125C254.96 443.865 251.474 440.282 247.117 440.282Z" fill="black"/>
<path d="M350.744 395.84L359.265 409.687L355.198 412.204L343.675 407.847C337.866 405.523 332.153 404.845 328.086 409.396L331.281 414.528C333.218 412.398 336.316 412.495 340.77 414.044L353.455 418.498L349.485 442.221L356.457 438.155L359.362 417.24L362.751 415.109L371.368 428.956L376.984 424.986L356.554 391.967L350.744 395.84Z" fill="black"/>
<path d="M387.809 361.365L394.2 396.708L373.188 377.342L368.25 381.99L397.008 408.424L401.85 403.679L395.459 368.724L416.374 387.896L420.634 382.668L391.876 356.233L387.809 361.365Z" fill="black"/>
<path d="M448.8 262.019C437.762 260.083 427.304 266.764 425.271 278.674C423.141 290.584 430.79 300.557 441.732 302.494C452.77 304.43 463.228 297.749 465.261 285.839C467.295 273.929 459.645 263.859 448.8 262.019ZM458.967 284.58C458.677 286.517 457.902 288.26 456.934 289.712C454.029 294.07 448.51 296.297 442.894 295.328C436.213 294.166 431.468 289.035 431.274 282.644C431.274 281.772 431.274 280.804 431.468 279.836C431.758 277.899 432.533 276.156 433.501 274.704C436.406 270.347 441.926 268.12 447.542 269.088C455.191 270.443 460.323 276.931 458.967 284.58Z" fill="black"/>
<path d="M179.414 427.212C177.864 432.441 180.188 435.83 184.158 438.638C180.963 439.316 177.671 440.962 176.315 445.513C175.541 448.127 175.831 450.451 176.993 452.581C178.542 455.389 181.544 457.81 185.804 459.069L200.135 462.748L210.98 425.276L196.262 421.015C188.031 418.498 181.447 420.434 179.414 427.212ZM188.516 453.162C184.255 451.904 182.415 449.386 183.287 446.481C183.48 445.803 183.771 445.222 184.061 444.738C185.127 443.286 186.773 442.705 188.903 442.802C189.871 442.802 190.839 442.995 191.905 443.286L198.295 445.126L195.39 455.099L188.516 453.162ZM192.098 437.282C186.869 435.733 184.933 433.119 185.804 429.923C186.579 427.309 188.612 426.05 191.42 426.244C192.389 426.244 193.454 426.438 194.519 426.825L202.846 429.246L199.845 439.606L192.098 437.282Z" fill="black"/>
<path d="M416.195 312.564L429.944 320.407C434.592 323.021 440.111 326.023 444.662 328.54L444.565 328.637C439.627 327.475 410.966 323.989 410.966 323.989L408.448 329.218C408.448 329.218 428.201 350.908 431.978 354.2L431.881 354.394C427.136 351.973 421.52 349.552 416.872 347.519L402.154 341.128L398.281 347.325L434.689 362.527L439.627 354.103C439.627 354.103 421.326 334.156 417.937 331.348L418.034 331.155C422.392 332.123 449.019 335.028 449.019 335.028L452.796 325.829L418.712 305.786L416.195 312.564Z" fill="black"/>
<path d="M70.5677 288.744L60.788 286.323C60.1102 283.322 59.626 280.223 59.1419 277.221C58.5609 274.22 58.1736 271.121 57.8831 268.023L66.404 262.697L65.9199 255.145L29.125 278.674L30.0933 284.968L72.4074 295.813L70.5677 288.744ZM52.0734 271.605C52.3639 273.832 52.6544 276.06 53.0417 278.287C53.429 280.514 53.8163 282.644 54.2036 284.871L37.7428 280.707L52.0734 271.605Z" fill="black"/>
<path d="M142.254 410.264C138.284 417.042 141.189 423.82 148.741 428.371L154.067 431.567L146.901 443.767L152.808 447.253L172.755 413.46L161.523 406.682C153.68 402.131 146.224 403.486 142.254 410.264ZM157.069 426.338L151.937 423.336C147.482 420.722 146.03 417.333 148.063 413.847C149.225 411.91 150.678 410.845 152.421 410.555C154.164 410.264 156.197 410.845 158.424 412.104L163.653 415.203L157.069 426.338Z" fill="black"/>
<path d="M94.5811 149.409C103.877 134.884 115.206 121.813 128.181 110.484L123.339 106.223L98.3574 84.6304C96.7113 86.1796 94.9684 87.7289 93.4191 89.375L118.401 110.871C114.625 114.454 111.042 118.133 107.556 122.006L82.768 100.607C81.2187 102.35 79.7663 104.093 78.217 105.836L103.005 127.235C99.713 131.108 96.6145 135.175 93.7096 139.435L68.7278 117.939C67.3722 119.779 66.1134 121.716 64.7578 123.556L89.7396 145.148L94.5811 149.409Z" fill="black"/>
<path d="M38.9199 242.267C45.6011 242.848 49.3774 238.781 50.733 235.586L57.6078 241.493C59.4476 243.139 60.7063 246.237 59.9317 248.368L65.8383 248.271C67.2907 245.075 66.5161 240.428 61.8683 236.554L52.6696 228.808L53.0569 223.967L67.097 225.225L68.0653 218.254L29.237 215.155C28.8497 217.286 27.9782 225.903 27.8814 227.065C26.9131 237.813 32.1419 241.783 38.9199 242.267ZM34.9499 222.611L46.5694 223.579L46.182 228.033C45.8916 232.003 43.5677 235.392 39.5009 235.005C36.4023 234.715 33.9816 232.875 34.3689 227.259C34.5626 226 34.6594 224.451 34.9499 222.611Z" fill="black"/>
<path d="M97.5113 349.553C87.7316 335.319 80.1789 319.826 74.8534 303.365L69.0436 306.173L39.4141 320.698C40.1887 322.828 40.9633 324.958 41.8348 327.185L71.3675 312.564C73.2073 317.405 75.1438 322.247 77.3709 326.895L47.935 341.322C48.9033 343.452 49.9684 345.486 50.9367 347.519L80.3726 333.092C82.6965 337.643 85.214 342.097 87.9252 346.454L58.4893 361.075C59.6513 363.012 60.91 364.948 62.1688 366.885L91.7984 352.361L97.5113 349.553Z" fill="black"/>
<path d="M136.631 391.378L114.078 423.46L119.702 427.414L142.255 395.331L136.631 391.378Z" fill="black"/>
<path d="M114.453 369.404C109.418 363.982 102.737 361.949 96.5401 362.82L97.5084 369.695C101.866 368.823 106.417 369.985 109.709 373.665C115.034 379.378 114.163 387.802 108.547 392.934C102.834 398.162 94.6036 398.453 89.278 392.74C85.9858 389.254 85.1144 384.703 86.1795 380.54L79.3046 379.087C78.0459 385.091 79.6919 391.675 84.5334 396.904C92.7638 405.715 105.352 405.715 113.388 398.259C121.619 390.61 122.587 378.313 114.453 369.404Z" fill="black"/>
</g>
<defs>
<clipPath id="clip0_1045_756">
<rect width="494.02" height="494.02" fill="white"/>
</clipPath>
</defs>
</svg>
