<svg width="66" height="70" viewBox="0 135 325 70" fill="none" xmlns="http://www.w3.org/2000/svg">
<path d="M60.8672 69.61C61.2072 69.13 62.8272 69.03 63.4872 68.98L260.977 69.23L262.487 70.22L262.467 270.98L60.9972 271.23L60.8672 69.62V69.61ZM253.967 262.72V78.74C253.967 78.69 253.267 77.99 253.217 77.99H69.9972C69.9072 77.99 69.1172 78.76 69.0072 79C67.8172 138.43 69.6972 198.04 68.7772 257.51C68.7372 259.93 67.1472 261.84 70.2272 263L251.247 263.25L253.967 262.73V262.72Z" fill="white"/>
<path d="M9.09793 0.100098L23.7679 33.2501C25.4679 34.4901 26.3079 32.6301 26.9079 31.3901C31.8179 21.1201 35.7279 10.3101 40.7979 0.100098H49.0379C49.0879 0.100098 49.7879 0.800098 49.7879 0.850098V67.2501C49.7879 68.4201 42.3079 70.0501 41.4079 66.1401C40.3279 52.5901 42.4679 37.6701 41.3279 24.2801C41.2479 23.2901 40.5279 19.7201 39.4079 21.9101C35.9479 28.6501 33.2179 37.6501 29.5379 43.9901C27.7479 47.0701 23.5279 47.6501 21.1179 44.9901C18.1179 37.9301 14.2779 31.2001 11.6479 24.0101L9.11793 21.0601C8.55793 21.2001 8.38793 23.2201 8.33793 23.7901C7.28793 37.4501 9.20793 52.4201 8.31793 66.2201C8.25793 68.8801 5.15793 68.6701 3.11793 68.4901C-1.07207 68.1201 0.427932 64.5201 0.407932 61.7701C0.277932 43.6201 0.387932 25.4601 0.407932 7.3001C0.387932 6.2901 -0.532068 0.100098 1.10793 0.100098H9.09793Z" fill="white"/>
<path d="M43.1182 275.88C54.1682 283.08 51.5282 303.12 38.3182 306.42C34.9182 307.27 30.2182 305.03 32.5382 310.17C36.7182 319.45 43.8482 328.98 48.4082 338.25C50.6982 342.32 40.3982 341.42 39.4182 340.47L21.8282 308.89C19.8282 306.46 14.5382 306.88 11.5682 307.13C9.59817 307.3 8.68817 307.25 8.38817 309.43L8.23817 339.76C7.71817 341.67 2.53817 341.43 1.34817 340.86C-0.951831 339.76 0.368169 336.68 0.378169 334.89C0.438169 316.07 0.148169 297.24 0.378169 278.43C0.428169 274.77 -0.991831 273.09 4.07817 272.69C11.5682 272.11 22.9682 272.27 30.5482 272.71C34.7282 272.96 39.5382 273.56 43.1082 275.88H43.1182ZM38.6282 283.36C37.0282 281.92 33.1982 280.9 31.0582 280.7C28.3182 280.44 11.5182 280.35 9.96817 281.06C9.43817 281.3 8.96817 281.77 8.71817 282.31C8.06817 283.73 8.06817 297.16 8.80817 298.33C9.29817 299.11 10.7382 299.11 11.5682 299.18C16.9382 299.63 26.7182 299.64 32.0782 299.18C35.8482 298.86 40.1582 297.03 40.7482 292.88C41.1782 289.88 41.0282 285.53 38.6182 283.37L38.6282 283.36Z" fill="white"/>
<path d="M314.67 278.41C317.98 281.16 322.21 287.48 321.37 291.93C320.87 294.58 314.25 293.88 312.68 292.73C312.16 292.35 312.22 289.4 311.71 288.34C311.49 287.89 308.19 284.11 307.63 283.69C302.02 279.51 292.69 279.72 287.64 284.66C283.22 288.99 283.22 296.76 289.06 299.76C294.9 302.76 303.47 301.82 309.98 304.3C331.52 312.51 325 339.26 302.63 341.09C290.83 342.06 278.63 338.61 274.19 326.61C272.71 322.61 271.47 318.87 277.16 318.6C283.18 318.31 282.22 324.66 285.7 328.58C291 334.56 306.14 335.1 311.37 328.87C316.71 322.5 313.38 314.27 305.74 312.03C303.61 311.41 302.09 311.91 300.2 311.58C288.61 309.58 274.34 306.46 275.48 291.49C276.89 272.99 301.77 267.7 314.65 278.4L314.67 278.41Z" fill="white"/>
<path d="M317.02 67.8501C316.86 67.7201 315.11 65.3801 315 65.1301C313.64 61.8301 312.97 56.4601 311.59 53.0601C311.01 51.6301 309.72 50.2101 308.16 50.0001C301.75 49.1501 293.06 50.4701 286.43 50.2801C284.86 50.9901 282.39 58.8501 281.64 60.9701C280.64 63.7901 280.83 68.1001 276.69 68.4901C271.3 69.0101 271.28 66.9801 272.57 62.3901C274.87 54.2101 278.46 46.0901 281.16 38.0301C284.88 26.9201 288.26 13.7301 292.66 3.10012C293.06 2.14012 293.71 0.500117 294.74 0.190117C295.62 -0.0698828 300.16 -0.0698828 301.04 0.190117C302.05 0.490117 303.07 2.73012 303.49 3.73012C307.23 12.7401 309.48 22.8701 312.61 32.0601C315.74 41.2501 318.75 49.5201 321.61 58.5101C322.29 60.6401 325.64 66.1501 323.07 67.9601C321.87 68.8001 318.18 68.7901 317.01 67.8501H317.02ZM289.42 41.5401C290.12 41.9901 303.86 41.5401 306.14 41.5401C307.01 41.5401 306.88 39.6201 306.78 38.9201C306.19 34.6801 302.32 24.6101 300.75 19.9601C300.04 17.8701 299.1 15.5801 298.15 13.5901C296.55 13.6201 295.09 21.3901 294.56 22.9701C292.97 27.6801 291.47 31.7301 290.18 36.5601C289.94 37.4701 289.01 38.2301 288.93 39.3301C288.9 39.7001 289.32 41.4801 289.42 41.5401Z" fill="white"/>
<path d="M215.2 139.73C237.29 177.84 215.54 225.25 172.21 233.12C123.06 242.05 82.9202 189.77 104.62 144.55C126.46 99.03 189.66 95.67 215.2 139.72V139.73Z" fill="#CCCCCC"/>
<path d="M203.648 146.42C221.428 177.09 203.918 215.25 169.048 221.59C129.488 228.78 97.1776 186.7 114.648 150.31C132.228 113.68 183.088 110.97 203.648 146.43V146.42Z" fill="white"/>
</svg>
