<svg width="160" height="94" viewBox="0 40 298 94" fill="none" xmlns="http://www.w3.org/2000/svg">
<path d="M149.84 0C151.11 1.25149 153.436 5.5112 154.707 6.26831C155.863 6.95624 159.787 7.18943 161.468 7.57965C182.431 12.4464 199.687 30.0038 202.32 51.6226C204.477 53.4027 206.776 55.1571 209.189 56.5345C210.243 88.5134 183.549 114.157 152.274 115.855C129.581 117.087 106.998 106.061 95.533 86.3711C75.3141 51.6483 96.4915 10.221 134.272 1.38518L142.09 0H149.84ZM148.795 1.69844C114.177 0.891586 84.5308 31.483 90.2014 66.5308C95.2089 97.4806 125.024 117.004 155.45 113.864C183.973 110.921 207.43 86.9953 207.581 57.9811C203.909 54.8928 199.707 52.309 195.87 49.3567C182.837 39.327 170.98 28.0527 160.008 15.8154L148.794 1.69844H148.795ZM200.215 50.0135C196.679 28.261 178.138 11.6582 156.624 8.38962C156.393 8.66556 157.369 9.86885 157.598 10.1557C168.879 24.2407 182.656 36.3941 196.585 47.7453L200.214 50.0135H200.215Z" fill="white"/>
<path d="M0 143.27H5.8128V173.602C5.35185 173.688 3.87494 173.611 3.87494 173.118V144.883L1.93553 144.882L1.93708 173.603L0 173.279V143.27V143.27Z" fill="white"/>
<path d="M225.727 143.753C225.949 143.046 227.987 142.928 227.987 144.075V158.435C228.637 158.231 230.247 156.143 230.247 155.692V143.269H232.185V173.601H230.247V158.758C229.664 159.167 228.647 160.311 228.355 160.901C227.092 163.44 228.748 169.934 227.922 172.729C227.559 173.955 225.727 173.708 225.727 173.118V143.754L225.727 143.753Z" fill="white"/>
<path d="M89.7738 157.789H92.0342V143.752C92.0342 143.092 94.2947 143.092 94.2947 143.752V173.116C94.2947 173.776 92.0342 173.776 92.0342 173.116V159.403H89.7738V173.116C89.7738 173.609 88.2977 173.685 87.8359 173.6V143.269C88.2969 143.183 89.7738 143.259 89.7738 143.753V157.79V157.789Z" fill="white"/>
<path d="M255.758 143.27V159.081C256.186 158.748 258.341 156.216 258.341 156.015V143.27H260.279V173.601C259.818 173.687 258.341 173.611 258.341 173.117V158.758C257.894 158.646 258.002 159.2 257.694 159.559C257.379 159.925 255.758 161.608 255.758 161.823V173.601C255.297 173.687 253.82 173.611 253.82 173.117V143.27H255.758Z" fill="white"/>
<path d="M173.384 143.299L176.968 173.6C176.254 173.583 175.386 173.839 175.091 173.052C174.549 171.607 174.378 164.25 174.062 163.916C173.953 163.801 171.828 164.009 171.337 163.905L169.852 173.588C166.52 174.366 168.612 169.534 168.86 167.595C169.817 160.122 170.244 152.552 171.193 145.08C171.431 143.199 171.315 143.018 173.384 143.299ZM173.74 162.306L173.089 154.402L172.45 151.336L171.477 162.307H173.74V162.306Z" fill="white"/>
<path d="M63.2883 143.273L66.8438 173.603C66.033 173.592 65.4003 173.85 64.9689 173.054C64.2592 171.743 64.2576 164.25 63.9389 163.919C63.8301 163.806 61.708 164.011 61.2183 163.902L59.7399 173.603C59.2097 173.584 58.2676 173.76 57.9427 173.3C57.3224 172.422 58.87 165.876 59.0597 164.371C59.8533 158.068 60.0259 151.3 61.0753 145.088C61.4018 143.155 61.0621 143.084 63.2883 143.273ZM63.6164 162.309L62.4861 152.629C61.9249 153.006 62.0454 153.511 61.9871 154.066C61.6979 156.812 61.6505 159.605 61.0318 162.304L63.6164 162.308V162.309Z" fill="white"/>
<path d="M36.4941 173.601C35.3335 173.593 34.8687 173.976 34.6425 172.721C33.4734 166.241 33.583 159.022 32.5888 152.493C32.55 152.238 32.3727 151.326 32.1341 151.332L29.6684 173.072C29.4329 173.807 28.4076 173.593 27.7749 173.601C27.5603 173.395 28.0228 168.473 28.1231 167.656C28.2086 166.962 28.633 166.363 28.7186 165.67C29.5643 158.858 29.6848 150.626 31.0124 144.084C31.2332 142.998 32.1131 143.13 32.9643 143.408C34.6441 153.308 35.8085 163.505 36.4941 173.601Z" fill="white"/>
<path d="M203.766 143.27V158.597C203.766 159.865 199.891 159.197 199.891 159.404V173.601C199.43 173.687 197.953 173.611 197.953 173.117V143.27H203.766ZM201.829 144.882H199.891V157.79H201.829V144.882Z" fill="white"/>
<path d="M117.546 144.882V157.79C118.465 157.513 123.466 157.844 121.428 159.249C120.646 159.788 118.21 158.959 117.688 159.706C117.065 160.597 117.831 169.646 117.592 171.459C117.962 172.584 120.587 171.563 121.43 172.142C122.094 172.596 121.581 173.601 121.26 173.601H116.094C116.059 173.601 115.609 173.151 115.609 173.117V143.27H121.26C121.532 143.27 121.864 144.001 121.739 144.394C121.459 145.28 118.415 144.746 117.546 144.883V144.882Z" fill="white"/>
<path d="M148.228 143.268C148.373 143.36 148.456 144.702 148.195 144.852C147.886 145.029 146.29 144.786 146.29 144.882V173.6C145.485 173.61 144.451 173.84 144.352 172.794L144.354 144.881C142.564 145.652 141.856 143.268 142.899 143.268C143.713 143.268 148.003 143.126 148.228 143.268Z" fill="white"/>
<path d="M297.096 143.27V173.117C297.096 173.61 295.62 173.686 295.158 173.602V146.658C295.158 146.157 293.661 146.097 293.219 146.173C293.251 144.294 295.247 142.507 297.095 143.27L297.096 143.27Z" fill="white"/>
<path d="M260.279 140.041V141.655H254.304C253.881 141.655 253.714 140.463 253.82 140.041H260.279Z" fill="white"/>
</svg>
