<svg width="267" height="40" viewBox="0 0 608 91" fill="none" xmlns="http://www.w3.org/2000/svg">
<path d="M21.4881 0.00159689C23.4658 0.965421 25.6438 0.902835 27.7092 1.74149C29.036 2.27973 32.6284 5.1712 33.3419 5.10861C33.9803 5.04603 35.4072 3.38124 36.0456 2.98069C36.3335 2.79293 38.2862 1.80407 38.6367 1.6789C40.6645 0.940387 43.1804 0.827732 45.2207 0.00159689H48.5252C50.4028 1.01549 52.7686 0.977938 54.7463 1.72897C59.9034 3.68165 63.7587 9.07656 65.098 14.1585C65.1982 14.5466 65.6363 15.0723 65.6363 15.1224V29.4921C65.6363 29.4921 65.2232 29.9427 65.1856 29.9427H55.272C55.272 29.9427 54.8214 29.5297 54.8214 29.4921V16.9123C54.8214 16.7496 53.407 14.3588 53.1816 14.0584C50.6156 10.6162 44.1818 10.103 41.1151 12.9819C37.6979 16.1863 38.7118 20.4922 38.6116 24.698C47.1984 35.563 56.8116 45.5266 65.5737 56.2038L65.6237 75.5929C62.7448 89.074 47.599 95.0572 36.0581 88.035C35.2695 87.5469 33.9678 85.832 33.079 85.9196C32.6034 85.9697 30.8134 87.672 30.125 88.0851C20.1488 94.0683 6.85551 90.4759 2.07394 79.7111C1.78605 79.0602 0.196363 74.1159 0.196363 73.803V61.5236C0.196363 61.5236 0.609431 61.073 0.646982 61.073H11.612V74.1034C11.612 74.2786 13.0515 76.9448 13.2893 77.2202C13.4896 77.4705 16.1433 79.5859 16.331 79.6235C17.783 79.9239 21.3379 79.8863 22.7899 79.5484C24.9679 79.0477 27.3086 76.1187 27.7342 74.0033C27.947 72.9518 28.0096 68.2453 27.8093 67.2064C27.6591 66.3928 26.7704 66.0173 26.3197 65.4039C19.986 57.0174 12.1378 48.1678 5.30338 39.9565C3.7888 38.1415 1.83612 36.339 0.359087 34.4114C0.509293 29.3169 -0.379427 23.0708 0.196363 18.0889C0.509293 15.3226 2.2617 10.7038 3.68866 8.38812C5.391 5.62182 8.49526 3.08083 11.4994 1.80407C13.5272 0.940387 15.918 0.890318 17.9332 -0.0234375H21.5382L21.4881 0.00159689ZM37.3098 39.9315C36.3585 38.8299 34.9316 37.6658 33.9552 36.5393C32.7911 35.1874 28.4352 30.4935 27.9595 29.3419C27.0082 26.9887 28.4101 20.0041 27.7217 17.0125C27.5715 16.3616 26.0319 13.733 25.5186 13.2198C23.1779 10.8916 17.7204 10.4535 15.0418 12.2935C13.765 13.1822 11.7748 15.9861 11.5745 17.5132C11.0488 21.4436 11.9375 26.5756 11.6496 30.6437C20.4116 41.4836 29.5241 51.8478 38.4614 62.6001C39.3126 67.2565 37.2473 73.0895 40.1262 77.12C42.1164 79.8989 46.6727 80.4246 49.802 79.5859C50.7909 79.3231 52.706 77.8836 53.3193 77.1075C56.1983 73.44 54.3332 65.2663 54.7838 60.7225C53.7574 58.6321 51.9049 57.3929 50.4904 55.7282C46.0844 50.5085 41.7409 45.0635 37.3349 39.9565L37.3098 39.9315Z" fill="white"/>
<path d="M163.67 1.5047L176.888 24.2735C178.954 23.9981 177.927 21.2443 177.915 19.93C177.852 14.7229 178.015 9.51571 178.165 4.34611C178.165 3.93304 177.477 1.5047 178.378 1.5047H189.043V45.0771C189.043 46.0534 194.713 54.5901 195.564 56.0922C197.504 59.5469 199.294 63.9405 201.535 67.3577C202.111 68.2339 203.462 68.8222 203.462 67.5329V1.5047H214.127L214.277 90.139H202.411C201.122 89.1376 200.746 87.285 199.983 85.9707C197.229 81.2643 194.362 75.619 191.396 71.1754C191.133 70.7874 189.043 68.1087 189.043 69.6233V89.6883C189.043 89.6883 188.63 90.139 188.592 90.139H179.88C179.167 90.139 177.99 90.8149 177.952 89.075C177.602 76.3325 178.466 63.2395 178.165 50.4595C178.078 46.7919 170.042 34.5751 167.763 30.6447C166.462 28.3916 165.285 26.0009 164.083 23.6977C163.708 23.4724 162.619 23.7728 162.619 24.1108V89.6883C162.619 89.6883 162.206 90.139 162.168 90.139H151.504C151.604 89.8511 151.203 89.4881 151.203 89.3879V1.94281C151.203 1.94281 151.616 1.49219 151.654 1.49219H163.67V1.5047Z" fill="white"/>
<path d="M381.506 11.9816H354.932C353.718 11.9816 353.355 13.5212 353.268 14.5101C352.517 22.6963 353.868 31.9841 353.268 40.2955C353.08 40.7336 354.156 41.9227 354.332 41.9227H373.245C373.245 41.9227 373.696 42.3358 373.696 42.3733V52.5498C373.696 53.3634 371.668 52.7 371.155 52.6875C366.561 52.5498 360.966 52.4247 356.422 52.6875C354.369 52.8127 353.48 52.5874 353.268 54.9281C352.767 60.3731 352.767 71.6636 353.268 77.1086C353.305 77.5467 353.555 79.0362 354.031 79.0362H381.056C381.056 79.0362 381.506 79.4493 381.506 79.4868V89.3629C381.506 89.4755 381.206 89.8511 381.156 90.0639L380.768 90.139L315.453 89.8135V1.94281C315.453 1.94281 315.866 1.49219 315.904 1.49219H381.056C381.056 1.49219 381.506 1.90525 381.506 1.94281V11.9691V11.9816ZM326.856 13.033V41.4846C326.856 41.4846 327.269 41.9352 327.307 41.9352H341.714C341.714 41.9352 342.24 41.4721 342.315 41.3344V12.8703C341.714 12.3821 341.013 12.0567 340.225 11.9691C338.898 11.8064 328.408 11.8439 327.758 12.1318C327.607 12.1944 326.869 12.9454 326.856 13.0205V13.033ZM326.856 53.4511V78.5981C326.856 78.5981 327.269 79.0487 327.307 79.0487H342.015C342.015 79.0487 342.465 78.6357 342.465 78.5981V53.7515C342.465 53.6013 341.877 53.1632 341.639 53.0756C339.937 52.4747 330.599 52.4497 328.496 52.7C328.033 52.7501 326.981 53.013 326.856 53.4511Z" fill="white"/>
<path d="M578.775 1.50217H589.44L607.014 89.9862L595.949 90.0864C595.473 87.6705 594.522 85.3048 594.684 82.8139C593.746 80.1352 593.22 77.3438 592.669 74.6526C592.481 73.7639 592.131 69.1826 590.954 69.1826H583.744C583.131 69.1826 583.219 71.7737 583.306 72.3119C583.432 73.063 583.995 73.5637 584.12 74.1895C584.971 78.3327 585.322 83.0267 586.06 87.2324C586.123 87.5954 587.287 90.1489 586.148 90.1489H576.535C575.195 90.1489 575.308 87.4577 575.17 86.7192C574.432 82.939 573.518 79.0712 572.792 75.3161C572.517 73.9016 572.729 69.5582 570.814 69.1952C565.595 69.5456 559.736 68.707 554.592 69.1701C551.525 69.4455 552.677 71.1604 552.339 73.2132C551.538 77.9822 550.574 83.7276 549.372 88.2213C549.184 88.8972 549.623 89.836 548.746 90.3117L538.57 90.1239C538.37 90.0113 538.495 86.6191 538.557 86.1184C539.308 80.4982 540.873 73.9767 541.912 68.2063C545.329 49.1176 548.934 29.403 552.126 10.114C552.451 8.13628 553.002 6.22115 553.49 4.2935C553.703 3.45485 553.39 2.4034 553.903 1.55223C555.931 1.70244 569.938 1.0891 570.526 1.80258C571.49 2.95416 571.052 5.47012 571.29 6.73435C574.219 22.4685 577.336 38.0649 580.265 53.774C580.528 55.2134 580.352 57.2663 581.629 58.4053H588.539C588.539 58.4053 589.077 57.9422 589.139 57.8045C589.69 56.6654 588.814 56.1397 588.701 55.251C587.174 43.0217 583.932 31.0553 581.792 19.0137C581.241 15.8969 580.865 12.8427 580.252 9.77603C579.701 7.02225 578.938 4.3686 578.775 1.51468V1.50217ZM555.506 58.3928H569.012C570.263 58.3928 568.949 54.55 568.874 54.0368C567.322 43.5224 565.394 32.6074 562.928 22.2432C562.741 21.4295 563.229 19.8148 561.814 20.0652C561.664 20.0902 560.876 22.7063 560.838 22.9817C559.086 33.2082 557.934 43.5099 555.844 53.6113C555.681 54.3873 554.104 57.9672 555.506 58.3928Z" fill="white"/>
<path d="M463.933 79.0479H434.505C434.192 79.0479 434.042 78.4596 434.117 78.0716C434.243 77.4582 435.832 74.2288 436.233 73.29C443.793 55.9662 452.342 38.9303 460.228 21.7692C460.766 20.5926 462.619 16.7874 463.658 14.1963V2.11725C463.583 1.77928 463.47 1.55398 463.32 1.50391H399.37C399.37 1.50391 398.919 1.91697 398.919 1.95453V11.9808H424.291C425.193 11.9808 424.742 14.1212 424.554 14.647C422.764 19.6664 419.435 25.8874 417.157 30.9318C410.46 45.7397 402.687 61.0357 396.541 76.0188C396.403 76.3442 396.19 76.7698 395.977 77.1954V82.4902C395.977 82.753 395.952 82.9909 395.902 83.2162V90.1382H463.608C463.608 90.1382 464.359 89.4372 464.359 89.3871V79.5111C464.359 79.5111 463.946 79.0604 463.908 79.0604L463.933 79.0479ZM422.051 79.0479H407.794C407.593 79.0479 407.193 78.4471 407.456 78.1342C408.47 76.3442 409.095 74.379 409.934 72.5014C418.871 52.549 428.297 32.7093 437.409 12.7569C437.56 12.5065 437.772 12.3062 438.035 12.1936C438.899 11.793 448.562 11.8181 450.139 11.9558C450.69 12.0058 451.641 12.0684 451.942 12.5691C452.518 13.5204 449.939 17.5885 449.413 18.7401C441.54 36.0514 433.717 53.3877 425.768 70.6239C424.504 73.3651 422.689 76.0939 422.051 79.0354V79.0479Z" fill="white"/>
<path d="M301.034 12.5824H283.772C283.672 12.5824 283.322 12.983 283.021 12.8828V89.6883C283.021 89.6883 282.608 90.139 282.571 90.139H272.657C272.657 90.139 272.207 89.7259 272.207 89.6883V13.3335C272.207 13.2709 271.268 12.5824 271.155 12.5824H258.538C258.538 12.5824 258.087 12.9955 258.087 13.033V89.3879C258.087 89.4881 257.687 89.8385 257.787 90.139H247.272V13.6214C247.272 13.3084 246.534 12.5699 246.221 12.5699H231.062V1.94281C231.062 1.94281 231.476 1.49219 231.513 1.49219H300.57C300.57 1.49219 301.021 1.90525 301.021 1.94281V12.5699L301.034 12.5824Z" fill="white"/>
<path d="M521.438 90.1218H511.074V23.0547H520.988C520.988 23.0547 521.514 23.5178 521.589 23.6555L521.764 88.4946L521.451 90.1218H521.438Z" fill="white"/>
<path d="M98.9551 24.5605V90.1381H88.2905C88.2905 90.1381 87.8398 89.7251 87.8398 89.6875V24.5605H98.9551Z" fill="white"/>
<path d="M113.83 24.5594H123.743C123.743 24.5594 124.194 24.9725 124.194 25.01V89.6864C124.194 89.6864 123.781 90.137 123.743 90.137H113.83C113.83 90.137 113.379 89.7239 113.379 89.6864V24.9975C113.379 24.9099 113.729 24.6971 113.83 24.5469V24.5594Z" fill="white"/>
<path d="M495.913 90.1218H485.398V23.0547H495.462C495.462 23.0547 495.913 23.4678 495.913 23.5053V90.1343V90.1218Z" fill="white"/>
<path d="M86.957 1.50391H123.745C123.745 1.50391 124.196 1.91697 124.196 1.95453V12.131C124.196 12.131 123.783 12.5816 123.745 12.5816H88.0085C87.8958 12.5816 86.957 11.9057 86.957 11.8306V1.50391Z" fill="white"/>
<path d="M520.834 11.9808H485.548C485.448 11.9808 485.048 11.5427 485.16 11.3049L485.398 1.50391H520.384C520.446 1.50391 520.722 1.7918 520.747 1.94201L520.834 11.9808Z" fill="white"/>
</svg>
