<svg width="312" height="37" viewBox="0 0 632 77" fill="none" xmlns="http://www.w3.org/2000/svg">
<path d="M346.087 0L405.858 29.0131L408.885 30.182L430.084 20.3348L471.682 0H472.835L473.636 2.08151V66.3683C473.636 67.4411 472.963 68.1296 471.874 68.1135L413.192 39.7089C411.19 39.0844 409.461 37.5153 407.267 38.54C387.781 47.3624 368.968 57.9301 349.433 66.6084C347.992 67.2489 344.518 69.3144 344.55 66.7525C345.751 45.6812 343.029 22.9767 344.55 2.08151C344.614 1.20087 344.71 0.656477 345.35 0H346.119L346.087 0ZM351.083 11.2722V57.1616C351.083 57.3217 351.707 57.8181 352.027 57.738L399.55 35.0655L400.623 34.2169C400.014 33.5124 399.23 33.032 398.413 32.5997C385.812 25.7787 371.193 19.6143 358.128 13.4498C357.023 12.9374 351.723 9.23872 351.099 11.2722H351.083ZM466.671 10.7118C465.854 10.6638 465.182 10.6477 464.381 10.9199C462.235 11.6405 458.809 13.9141 456.551 14.9869C443.806 21.0073 431.109 27.1397 418.379 33.1921C417.195 33.8967 416.954 34.377 418.267 34.9694C433.975 42.0466 449.314 49.9884 464.845 57.4498C466.863 58.0903 466.655 58.0102 466.655 56.409V10.7118H466.671Z" fill="white"/>
<path d="M631.048 63.4715V65.0086C630.408 65.4409 629.687 65.3769 628.951 65.4089C607.335 66.1615 585.287 64.8005 563.623 65.4089C562.743 65.473 561.958 65.2328 561.59 64.3842L595.903 3.82812L598.16 5.78155C608.44 24.0829 618.623 42.4642 629.047 60.6695C629.575 61.5981 630.184 62.831 631.032 63.4715H631.048ZM572.718 58.8441L618.559 59.2604L619.744 58.4919L596.287 16.8296L572.718 58.8441Z" fill="white"/>
<path d="M186.468 11.7051C201.711 26.4038 198.605 50.5974 180.432 61.2451C154.669 76.3441 123.302 50.3252 134.558 22.4649C143.044 1.48966 170.136 -4.01835 186.452 11.7211L186.468 11.7051ZM182.241 51.3659C190.791 42.6716 192.04 29.0937 184.563 19.1505C172.106 2.57845 144.341 7.84628 139.666 28.2932C133.982 53.1432 164.58 69.315 182.241 51.3659Z" fill="white"/>
<path d="M514.597 2.77126C549.583 -0.83136 564.698 44.5136 534.404 61.486C507.264 76.697 476.057 47.78 490.228 19.7916C494.631 11.0973 504.814 3.77999 514.597 2.77126ZM537.206 16.9576C528.559 7.78291 512.564 6.72614 502.765 14.7159C483.455 30.4714 496.216 60.8775 521.002 58.8761C541.721 57.1948 551.392 32.0085 537.19 16.9576H537.206Z" fill="white"/>
<path d="M295.301 2.77116C327.548 -0.35111 344.377 38.9735 319.014 58.876C297.783 75.5441 265.856 59.2282 267.377 32.3127C268.193 17.71 280.586 4.1962 295.317 2.77116H295.301ZM294.148 9.65617C278.761 11.8978 270.131 29.8949 276.119 43.841C284.189 62.6227 311.217 64.2079 321.192 46.515C332.176 26.9968 315.812 6.50188 294.148 9.65617Z" fill="white"/>
<path d="M54.3567 11.7071C55.5736 12.876 59.1122 16.2384 59.2082 17.8076C59.3043 19.3767 55.0452 22.0186 53.6042 20.6576C51.7148 18.5601 49.8895 16.1103 47.6478 14.3491C32.6129 2.54847 8.67549 12.2355 6.96224 31.5295C4.91275 54.7464 33.0452 68.0521 49.8094 52.0245C51.0743 50.8236 52.5474 47.6373 54.3727 47.8134C54.9011 47.8614 57.7512 49.5587 58.0394 49.9109C59.7366 51.9444 54.9812 56.2035 53.444 57.5645C37.9768 71.2224 12.8865 66.7552 3.56777 48.3418C-12.2998 16.9429 28.3858 -13.159 54.3567 11.7071Z" fill="white"/>
<path d="M236.086 16.9872C232.836 13.4967 227.664 10.5185 222.893 9.65389C220.635 9.23759 217.961 10.4064 217.208 7.28417C216.28 3.45738 217.801 2.33657 221.42 2.70484C253.619 6.08329 260.68 50.5476 229.217 63.5331C227.248 64.3497 223.885 64.1255 223.549 66.6874C223.277 68.8489 224.109 74.5811 223.373 76.0702C222.829 77.191 217.705 77.4152 217 75.9101C216.184 74.1808 216.456 61.2434 217.641 59.6422C218.233 58.8417 224.286 58.1852 225.983 57.6248C243.291 52.0367 248.335 30.1168 236.086 16.9552V16.9872Z" fill="white"/>
<path d="M95.5209 25.4576C93.3754 27.5711 89.6767 30.3732 88.0115 32.6949C87.6272 33.2232 87.0988 33.7997 87.291 34.5202L112.765 59.6585C113.966 61.708 110.172 65.0224 108.346 64.462L78.3885 35.0005C77.8601 34.4081 77.8601 33.6395 78.3885 33.0471C85.8659 25.8419 93.0231 18.3004 100.485 11.0631C102.582 9.02965 104.888 6.46778 107.033 4.57841C107.706 3.98598 108.715 3.23343 109.627 3.47361C110.38 3.68176 114.287 7.39646 112.605 8.61334C106.937 14.2494 101.237 19.8535 95.5209 25.4416V25.4576Z" fill="white"/>
</svg>
