<svg width="143" height="99" viewBox="0 50 296 99" fill="none" xmlns="http://www.w3.org/2000/svg">
<g clip-path="url(#clip0_1043_656)">
<path d="M0.0663738 39.2849C2.36733 7.77544 36.8455 -10.8494 63.9582 6.8623C91.972 25.1614 87.3539 68.2118 55.9813 80.0102C29.2588 90.0628 2.0415 71.1161 0.0663738 43.5047C-0.0221246 42.2898 -0.0221246 40.4997 0.0663738 39.2849Z" fill="white"/>
<path d="M189.404 204.455L189.203 166.578C189.203 165.713 192.421 166.014 192.421 166.376V169.289L194.457 167.809C206.247 161.059 217.293 170.91 213.705 183.634C211.678 190.822 205.511 193.807 198.343 193.208C196.247 193.031 194.332 192.17 192.421 191.393C192.196 195.432 192.711 199.768 192.433 203.771C192.405 204.177 192.401 204.266 192.019 204.455H189.404ZM207.615 170.982C204.175 168.03 199.047 168.267 195.249 170.407C194.388 170.894 192.55 172.169 192.413 173.199L192.457 187.95C196.786 190.351 202.208 191.265 206.545 188.372C211.867 184.824 212.454 175.13 207.619 170.982H207.615Z" fill="white"/>
<path d="M56.1483 99.3684H31.2239C31.2883 99.5655 31.0228 99.8028 31.0228 99.8712V137.346H28.1064C28.0863 137.346 27.8047 137.065 27.8047 137.045V96.456C27.8047 96.4359 28.0863 96.1543 28.1064 96.1543H59.463C59.4831 96.1543 59.7647 96.4359 59.7647 96.456V137.045C59.7647 137.407 56.3575 137.716 56.3454 136.843L56.1443 99.3684H56.1483Z" fill="white"/>
<path d="M209.592 96.6726C210.079 97.3042 210.63 97.5818 210.424 98.3823C210.404 98.4587 209.608 99.3879 209.515 99.4724C207.045 101.669 203.284 101.504 200.219 102.24C192.64 104.058 190.661 108.274 189.591 115.527C189.491 116.207 188.73 117.2 189.603 117.651C189.744 116.404 191.059 114.968 192.013 114.131C198.883 108.109 209.958 110.764 212.621 119.654C215.944 130.74 206 141.167 194.792 137.076C185.303 133.609 185.194 121.561 186.739 113.282C188.115 105.913 191.148 101.122 198.763 99.1787C201.599 98.4587 205.34 98.6317 207.677 96.8376C208.091 96.5198 208.369 95.7876 208.827 95.7756C209.286 95.7635 209.33 96.3388 209.588 96.6726H209.592ZM206.012 115.921C199.073 110.957 188.091 116.275 189.615 125.579C191.647 137.985 208.292 137.853 209.889 124.972C210.239 122.152 208.369 117.607 206.012 115.921Z" fill="white"/>
<path d="M250.51 113.834C250.804 113.89 250.881 113.834 251.098 113.693C253.322 112.265 254.758 110.849 257.699 110.475C268.017 109.164 273.464 116.449 272.398 126.176C271.396 135.351 261.794 140.005 253.23 137.129C252.296 136.815 251.484 136.103 250.502 135.935V148.996H247.586V110.817H250.502V113.83L250.51 113.834ZM266.673 116.561C262.373 111.758 254.187 112.704 250.514 117.756L250.623 132.314C253.893 134.768 259.059 135.52 262.908 133.963C268.504 131.703 270.036 125.238 268.532 119.828C268.19 118.601 267.506 117.491 266.673 116.561Z" fill="white"/>
<path d="M158.851 113.834L161.932 111.79C165.279 110.133 170.126 109.819 173.578 111.271C181.168 114.465 182.46 125 178.694 131.561C175.637 136.891 170.255 138.251 164.374 137.752C162.455 137.591 160.572 136.722 158.855 135.938V149H155.641V110.821H158.855V113.834H158.851ZM175.657 130.238C181.096 121.203 173.682 109.879 162.934 114.401C161.84 114.859 159 116.549 158.839 117.74L158.891 132.479C162.829 135.005 168.4 135.725 172.544 133.251C173.461 132.704 175.126 131.123 175.657 130.238Z" fill="white"/>
<path d="M72.5258 124.885C72.3769 124.925 72.2482 125.15 72.2563 125.343C72.2643 125.581 72.6022 127.242 72.6827 127.54C74.69 134.966 83.9783 136.591 89.8916 132.805L91.5167 131.615C92.7597 133.747 92.9206 134.254 90.857 135.581C82.4255 141.008 70.2329 136.768 68.7927 126.405C67.3647 116.14 75.229 108.147 85.7321 110.677C89.618 111.614 94.1274 116.24 94.1274 120.367V124.587C94.1274 124.607 93.8458 124.889 93.8257 124.889H72.5217L72.5258 124.885ZM72.2241 122.073H90.9173C90.7363 120.661 90.6438 119.684 90.1168 118.352C88.2141 113.537 81.8583 112.354 77.4535 114.337C74.2837 115.765 72.5419 118.654 72.2241 122.073Z" fill="white"/>
<path d="M126.899 124.884C126.806 134.558 137.607 137.161 144.836 132.523C145.198 132.289 145.383 131.513 146.192 131.714C146.115 132.993 147.471 133.388 146.405 134.643C143.508 138.058 135.825 138.38 131.879 137.084C120.262 133.271 120.133 115.149 131.328 111.13C138.275 108.636 146.316 111.448 148.054 118.902C148.106 119.135 148.4 119.328 148.4 119.357V124.884H126.895H126.899ZM126.497 122.072H145.19C145.677 112.333 131.634 110.414 127.619 118.279C127.514 118.484 127.136 119.163 127.12 119.22C126.851 120.02 126.778 121.207 126.497 122.072Z" fill="white"/>
<path d="M160.555 180.142C160.197 180.243 160.422 182.025 160.498 182.407C162.288 190.955 172.84 192.074 178.994 187.367C179.131 187.262 179.163 186.965 179.244 186.973C179.891 187.033 179.674 187.653 179.767 187.814C180.052 188.312 180.422 188.361 180.374 189.294C180.334 190.074 178.371 191.265 177.675 191.631C172.844 194.157 166.054 193.799 161.681 190.477C154.428 184.962 154.995 171.317 163.431 167.145C169.328 164.229 177.699 165.532 180.789 171.779C182.132 174.499 182.192 177.186 181.963 180.15H160.559L160.555 180.142ZM178.745 177.528C178.91 166.908 163.789 165.637 160.595 175.154C160.365 175.838 160.168 176.804 160.052 177.528H178.745Z" fill="white"/>
<path d="M82.3951 169.375C89.4026 176.169 86.8965 189.355 77.4835 192.537C66.2039 196.35 56.1755 187.038 59.0195 175.485C61.4854 165.456 75.2831 162.476 82.3951 169.375ZM65.0655 187.295C70.4639 192.481 80.062 190.421 82.4112 183.196C85.3437 174.165 77.1254 165.915 68.2072 169.6C61.425 172.404 59.9407 182.376 65.0696 187.299L65.0655 187.295Z" fill="white"/>
<path d="M129.101 189.589H145.582V166.382C145.582 165.867 148.108 166.149 148.595 166.08V189.287C148.595 189.307 148.876 189.589 148.896 189.589H152.915C152.935 189.589 153.217 189.87 153.217 189.89V199.134C153.217 199.589 150.003 199.589 150.003 199.134V192.807H125.883V166.382C125.883 165.927 129.097 165.927 129.097 166.382V189.589H129.101Z" fill="white"/>
<path d="M219.354 110.82L229.909 133.126L238.449 110.82H242.066L240.038 116.488C237.226 122.526 234.986 129.135 232.351 135.367C230.818 138.991 227.681 147.358 223.775 148.698C222.314 149.196 218.006 149.019 217.121 147.7C216.803 147.229 217.777 145.186 218.24 145.182C218.702 145.178 220.126 145.982 221.063 145.982C225.018 145.982 227.295 140.262 228.3 137.12C226.2 132.527 223.847 128.057 221.623 123.524C219.917 120.052 216.948 115.028 215.653 111.412C215.581 111.211 215.484 111.066 215.54 110.824H219.358L219.354 110.82Z" fill="white"/>
<path d="M96.7445 166.076V177.528H113.628V166.377C113.628 165.867 116.576 166.048 117.043 166.277V192.601C116.576 192.83 113.628 193.011 113.628 192.501V181.048C113.628 181.028 113.346 180.746 113.326 180.746H96.7445V192.802H93.8281V166.08H96.7445V166.076Z" fill="white"/>
<path d="M56.1421 151.609L37.0626 171.172L54.4003 189.611C54.8066 190.11 55.2048 190.629 55.6232 191.116C56.0898 191.663 56.9506 191.936 56.7455 192.801H52.8274L33.0078 171.397L33.0802 170.946L45.6188 158.371C46.3992 157.599 51.7494 151.609 52.22 151.609H56.1381H56.1421Z" fill="white"/>
<path d="M240.659 166.076V169.491H230.208V192.799H227.292C227.272 192.799 226.99 192.517 226.99 192.497V169.491H216.539V166.378C216.539 166.358 216.821 166.076 216.841 166.076H240.659Z" fill="white"/>
<path d="M110.415 114.236V137.04C110.415 137.06 110.134 137.342 110.114 137.342H107.197V114.236H96.7464C96.4407 113.137 96.4367 111.927 96.7464 110.82H120.565C121.027 110.82 121.083 114.236 120.363 114.236H110.415Z" fill="white"/>
<path d="M31.0258 151.609H28.1094V192.801H31.0258V151.609Z" fill="white"/>
<path d="M295.425 110.82C295.819 110.941 295.832 113.282 295.735 113.697C295.707 113.817 295.293 114.035 295.224 114.035H282.863V137.342H279.648V111.118C279.648 111.098 279.93 110.816 279.95 110.816H295.425V110.82Z" fill="white"/>
</g>
<defs>
<clipPath id="clip0_1043_656">
<rect width="295.79" height="204.455" fill="white"/>
</clipPath>
</defs>
</svg>
