<svg width="170" height="45" viewBox="0 40 484 41" fill="none" xmlns="http://www.w3.org/2000/svg">
<path d="M235.094 66.644L235.745 66.3516L283.384 66.3534C289.246 66.6779 295.528 68.3349 298.779 73.6237C301.357 77.8166 301.374 85.0494 297.842 88.7289C296.901 89.7093 295.525 90.2477 294.621 91.2655C294.879 91.2554 295.129 91.2763 295.376 91.3614C300.562 93.1536 303.268 97.4757 303.511 102.862C304.042 114.598 296.022 119.823 285.085 119.955L235.473 119.853C235.387 119.801 235.094 119.34 235.094 119.287V66.644H235.094ZM280.163 77.4932H251.817L251.534 77.7761V86.4556C251.534 86.5247 251.726 86.7605 251.755 86.8963C253.844 86.8505 255.937 86.9213 258.061 86.9356C261.229 86.9571 264.493 86.7707 267.682 86.7296C271.571 86.6795 275.993 87.044 279.792 86.745C282.805 86.508 284.487 84.8606 284.202 81.7606C283.986 79.411 282.553 77.7743 280.163 77.4926L280.163 77.4932ZM251.818 97.4936L251.534 97.7765V108.154L251.818 108.437H281.676C281.819 108.437 284.164 107.686 284.402 107.573C287.974 105.874 288.142 100.073 284.733 98.4025C283.836 97.9629 281.701 97.493 280.731 97.493H251.819L251.818 97.4936Z" fill="white"/>
<path d="M370.504 -1.76172L353.771 -1.56458V18.8134H325.142L324.859 18.5305V-1.46988L324.575 -1.75278H307.379C307.316 -1.75278 307.091 -1.50264 306.906 -1.56398V53.4372L307.155 53.6856H307.284C307.336 53.6856 307.379 53.6993 307.415 53.7202H324.386C324.449 53.7202 324.673 53.47 324.859 53.5313V31.3612L325.142 31.0783H353.771V53.4372L354.055 53.7202H370.684C370.759 53.7202 371.11 53.5004 371.17 53.4027L371.307 -1.24296L370.504 -1.76112V-1.76172Z" fill="white"/>
<path d="M369.827 66.36C369.86 66.7554 369.835 67.1074 369.735 67.4946C369.301 69.1819 366.956 74.4183 366.081 76.1097C365.828 76.5993 365.652 77.1323 365.197 77.4921H325.513L325.23 77.775V86.4545C325.396 86.7249 325.606 86.7141 325.881 86.7469C327.089 86.891 328.818 86.6439 330.041 86.5414C339.782 87.2162 350.688 85.6713 360.293 86.5402C360.706 86.5778 361.523 86.6516 361.519 87.2043C361.379 87.6617 361.009 87.9667 360.81 88.3955C359.613 90.9762 358.35 94.24 356.985 96.6521C356.795 96.9874 356.443 97.502 356.057 97.5842L326.259 97.4835L325.229 97.6813V107.776C325.229 107.877 325.521 108.195 325.418 108.436H369.448C369.421 108.991 369.132 109.564 368.914 110.073C367.746 112.801 366.118 116.742 364.676 119.237C364.484 119.568 364.28 119.882 363.869 119.941L309.063 119.954C308.439 119.954 307.856 119.823 307.867 119.1C307.87 118.923 308.032 118.777 308.032 118.719V66.6423L308.316 66.3594H369.826L369.827 66.36Z" fill="white"/>
<path d="M438.137 53.7195L437.213 52.7552L431.628 43.2872C431.094 42.7732 427.897 42.9596 426.98 42.9566C425.848 42.9525 424.524 43.1115 423.397 43.1156C415.835 43.1442 408.254 42.9155 400.728 42.9566C398.465 42.9691 396.211 43.0257 393.953 43.012L393.434 43.2884L388.102 53.4032C387.713 53.6254 387.378 53.6915 386.935 53.7308C382.479 54.1245 377.451 53.4092 372.932 53.7296L372.109 53.2114L402.246 -1.36336L402.693 -1.67188L420.047 -1.61529C420.692 -1.31571 422.766 2.68901 423.336 3.59132C429.624 13.54 435.971 23.4672 442.171 33.4654C446.247 40.0383 450.32 46.6427 454.296 53.2579L454.011 53.7195H438.138H438.137ZM424.248 31.0771L411.851 9.76399L399.87 31.0771H424.248Z" fill="white"/>
<path d="M232.075 12.675C231.403 3.10272 224.555 -0.844229 216.019 -1.64648H183.367C180.631 -1.61373 177.901 -1.60539 175.185 -1.64648H169.922L169.328 -1.5631V53.4381C169.328 53.5382 169.642 53.7472 169.804 53.7175L186.143 53.624C186.233 53.5823 186.524 53.2821 186.524 53.2493V32.0226L219.279 32.0077C230.591 30.162 232.805 23.1144 232.074 12.6756L232.075 12.675ZM217.957 19.7261C217.287 20.1961 214.973 20.8899 214.21 20.8899H186.525V10.1348C187.371 10.0919 188.238 10.1914 189.084 10.1426C195.657 9.76495 202.313 9.97758 208.911 10.1426C211.493 10.2069 215.458 9.67204 217.707 10.7935C220.723 12.2968 220.517 17.9334 217.957 19.7261Z" fill="white"/>
<path d="M238.909 53.37L244.342 43.2861C244.967 42.6072 245.936 43.1551 246.547 43.1349C246.926 43.1224 247.271 42.9627 247.653 42.9556C259.144 42.7364 270.68 43.0711 282.165 43.0455L282.535 43.2909L288.509 53.1026L288.843 53.3694H305.19C305.248 53.1598 305.218 52.9472 305.161 52.728C305.106 52.5189 304.073 50.8156 303.851 50.4451C293.899 33.8139 282.829 17.2882 272.432 0.871451C272.178 0.470621 271.243 -1.4299 271.139 -1.51626C270.948 -1.67349 270.253 -1.73841 269.966 -1.76104C265.88 -2.08087 259.132 -2.04633 255.023 -1.76223C254.625 -1.73484 254.19 -1.78784 253.855 -1.5109C246.443 11.1179 239.378 23.9534 232.073 36.6454C229.238 41.5715 226.087 46.3647 223.377 51.3593C222.925 52.192 222.324 52.9406 222.646 53.3694H238.909L238.909 53.37ZM262.591 9.37643L275.723 31.0772H250.59L262.592 9.37643H262.591Z" fill="white"/>
<path d="M52.0362 39.228C48.5147 37.695 46.7867 35.2197 46.4912 31.3681C46.2178 27.8029 46.113 20.4879 46.4918 17.0156C46.583 16.1788 47.0917 14.4159 47.4753 13.6577C48.6755 11.2855 50.7859 10.7096 53.2049 10.133L87.1442 10.0526L92.3883 -1.13069C92.4235 -1.35404 92.2549 -1.5339 92.0333 -1.64647H89.36C89.2945 -1.64647 89.2427 -1.66672 89.2028 -1.69829C75.7159 -1.36893 61.8848 -2.37011 48.4849 -1.74951C38.2813 -1.27721 30.4514 3.55658 28.9176 14.1854C29.306 21.5921 28.4202 29.4831 28.9265 36.832C29.7098 48.1964 39.1212 53.3423 49.6184 53.7199L89.9789 53.6389L95.8205 40.5139H57.1755C56.1045 40.5139 53.1155 39.6992 52.0368 39.2298L52.0362 39.228Z" fill="white"/>
<path d="M410.178 119.948L409.977 119.374L438.805 66.8311L439.188 66.4588L453.357 66.457C457.206 73.1383 460.849 79.959 464.694 86.6474C471.002 97.6181 477.675 108.428 483.785 119.483L483.499 119.948H469.326C469.206 119.948 468.793 119.599 468.69 119.451L462.501 108.65C461.888 107.768 461.707 108.266 460.831 108.26C450.699 108.19 440.564 108.261 430.433 108.285L424.162 119.948H410.177H410.178ZM436.634 96.1732H455.72L456.006 95.7087C453.113 90.8207 450.489 85.7588 447.652 80.8321C447.178 80.009 446.695 79.1341 446.183 78.3366C446.058 78.1413 446.055 77.8167 445.706 77.8691L436.365 95.7218L436.634 96.1732Z" fill="white"/>
<path d="M230.467 108.437L230.676 108.828C230.613 108.957 230.552 109.089 230.499 109.223C229.422 111.986 227.705 115.623 226.38 118.319C226.17 118.748 225.755 119.782 225.328 119.91L191.152 119.956C179.624 119.4 171.549 113.302 170.849 101.36C170.567 96.5662 170.62 90.3197 170.843 85.5032C171.347 74.6052 178.293 67.177 189.275 66.364C201.176 65.4826 214.12 67.0251 226.13 66.3515L226.79 66.4474L226.94 66.9763L222.79 76.62L222.116 77.4562L195.132 77.495C192.055 77.6516 188.418 79.7463 188.042 83.0583C187.725 85.8588 188.046 89.29 188.051 92.1083C188.062 98.5454 186.448 105.206 194.054 107.624C194.502 107.766 197.184 108.437 197.397 108.437H230.467H230.467Z" fill="white"/>
<path d="M164.807 -1.64648H99.7704C99.5828 -1.52558 99.5036 -1.31296 99.3785 -1.12773C98.2301 0.572076 96.6772 4.43148 95.8248 6.45588C95.5162 7.18904 94.6984 8.91684 94.5757 9.56186C94.5346 9.77746 94.4417 9.88169 94.6835 10.0473L119.068 10.1348V53.4375L119.352 53.7204H136.737C136.812 53.7204 137.163 53.5007 137.223 53.403C137.702 52.2535 137.221 50.998 137.201 49.8616C136.963 36.6289 137.398 23.3676 137.21 10.1348H159.792C159.886 10.1348 160.201 9.92815 160.257 9.79295L165.054 -0.853759C165.23 -1.23076 165.078 -1.50116 164.807 -1.64648Z" fill="white"/>
<path d="M429.921 66.36L429.869 67.5345L425.635 77.3158C424.972 77.8125 424.48 77.473 423.788 77.482C418.997 77.5445 413.513 77.1157 408.841 77.4826C408.477 77.5111 408.157 77.5933 407.811 77.6803V119.663L407.527 119.945H391.275C391.242 119.945 390.803 119.507 390.803 119.474V77.7744L390.52 77.4915H372.756C372.641 77.4915 372.491 77.2199 372.5 77.0585C372.519 76.7202 374.022 73.2622 374.296 72.6136C374.922 71.1312 375.921 68.5476 376.677 67.2557C376.786 67.0705 377.386 66.3594 377.48 66.3594H429.92L429.921 66.36Z" fill="white"/>
<path d="M89.0207 115.986C89.2119 116.202 90.5366 114.784 90.7266 114.575C91.2741 113.972 92.2873 112.221 92.9407 112.073C93.5381 111.938 98.0032 111.913 98.5238 112.063C98.7722 112.135 98.9848 112.389 99.1129 112.608C100.119 114.329 100.574 117.18 101.588 119.001L104.127 112.294C104.49 111.863 106.881 111.922 107.082 112.199L107.173 112.497C106.203 115.173 105.32 117.902 104.263 120.544C103.699 121.954 102.287 125.812 101.404 126.747C100.497 127.709 98.0592 128.593 96.9816 127.566L96.984 125.258L99.2272 124.951L100.166 123.061L95.9154 112.592L92.4147 116.637C92.1383 116.976 92.1383 117.449 92.4147 117.787L96.4884 122.587C96.9203 123.39 94.4775 123.207 94.0284 123.155C93.0449 123.042 92.7721 122.693 92.136 122.026C91.6201 121.485 90.1953 119.298 89.7754 119.087C89.4549 118.926 89.0201 119.38 89.0201 119.477V122.967C87.793 123.141 86.1467 123.759 85.9858 122.129C85.6886 119.128 86.1973 115.593 86.0347 112.533C86.2568 111.78 88.4763 111.846 89.0201 112.306V115.986H89.0207Z" fill="white"/>
<path d="M49.7109 91.927C49.8664 91.4243 51.9125 91.6918 52.4247 91.6703L52.828 92.7751C55.8968 89.7347 61.0016 91.8675 61.4257 96.08C61.5865 97.6762 61.434 99.161 60.621 100.555C59.4267 102.604 56.6217 103.777 54.3922 102.726C53.8376 102.464 53.4999 101.948 52.9239 101.833V106.078C52.9239 106.131 52.6308 106.593 52.5457 106.644L49.7115 106.55V91.927H49.7109ZM55.1433 94.1408C51.2156 94.7638 52.8155 102.3 57.025 99.9847C59.578 98.5809 58.6339 93.5869 55.1433 94.1408Z" fill="white"/>
<path d="M77.7798 91.6456C78.2676 91.7802 80.3512 96.359 80.8051 97.1184L82.7547 93.4055C83.3486 92.5306 83.5439 91.5961 84.7674 91.4526C85.9427 91.3144 87.2001 91.1292 87.3335 92.4836C87.5265 94.4347 87.592 100.645 87.2716 102.452C87.2442 102.606 87.1953 102.931 87.0077 102.974C86.2923 102.822 84.7776 103.301 84.3064 102.661C84.167 102.472 84.3147 99.6568 84.307 99.091C84.3022 98.7592 84.1569 98.4573 84.1473 98.1553C84.1307 97.6354 84.6834 96.7146 83.9228 96.3626C83.9323 96.6175 83.9234 96.8665 83.815 97.1053C83.5767 97.6276 81.7028 101.059 81.4657 101.174C81.1065 101.349 80.5555 101.368 80.2333 101.081C79.7943 100.692 78.7805 98.0219 78.3296 97.3227C78.1562 97.0535 77.865 96.692 77.4968 96.7408C77.5719 98.1327 78.0139 101.214 77.647 102.457C77.4123 103.252 75.4627 103.003 74.8289 102.856C74.7134 102.558 74.6752 102.255 74.6526 101.937C74.481 99.5466 74.3816 94.5949 74.6514 92.2959C74.6836 92.0214 74.6746 91.8105 74.9445 91.645H77.7792L77.7798 91.6456Z" fill="white"/>
<path d="M139.088 81.6435V86.0776C138.415 86.6583 137.239 86.2378 136.379 86.3683C135.901 86.2575 136.086 83.7924 136.062 83.2492C136.005 81.9359 136.077 80.9341 136.073 79.6697C136.062 76.9348 135.955 74.1439 136.064 71.4542H138.899L138.9 72.397C139.506 72.559 139.667 71.9467 140.046 71.7496C144.015 69.6805 147.777 72.6126 147.788 76.8407C147.797 80.2296 145.173 83.2551 141.632 82.7834C140.795 82.6721 139.926 81.8269 139.088 81.6435H139.088ZM139.717 79.3159C141.333 80.9073 144.217 79.9925 144.555 77.7632C144.879 75.6293 144.163 73.4762 141.638 73.7091C139.402 73.9152 138.222 77.8436 139.717 79.3159Z" fill="white"/>
<path d="M3.32098 112.023C3.94106 112.197 5.67561 116.337 6.15749 117.119C6.47081 117.219 6.62747 116.644 6.77102 116.416C7.66986 114.985 8.19821 113.281 9.36808 112.023H12.4863C12.425 112.209 12.6752 112.433 12.6752 112.495V122.967C12.207 123.117 9.65161 123.528 9.65161 122.873V116.552C8.64912 117.144 7.40956 121.346 6.18489 121.23C4.29607 120.325 4.17992 117.763 2.84862 116.363V122.873C2.13384 123.434 0.85556 123.151 0.0138983 122.967V112.873C0.0138983 112.701 -0.0951068 112.023 0.29743 112.023H3.32098Z" fill="white"/>
<path d="M36.6671 121.08C37.6279 120.953 37.8543 121.226 37.9728 122.135C38.0443 122.685 38.0896 125.711 37.8144 125.902L35.1839 125.958L34.7765 123.486L34.4167 123.241C31.8995 122.877 29.0332 123.43 26.5559 123.158C26.1997 123.119 25.8733 123.05 25.6094 122.787L25.747 121.023C25.9215 120.54 26.4629 120.485 26.7131 120.082C26.8567 119.851 27.3618 117.906 27.3993 117.578C27.5327 116.424 27.1057 113.06 27.6769 112.383C27.9086 112.109 28.095 112.057 28.4393 112.013C29.8213 111.836 34.4519 111.832 35.8279 112.014C36.4461 112.096 36.5957 112.238 36.6784 112.863C36.8357 114.059 36.3669 120.801 36.6689 121.08H36.6671ZM29.96 120.891C30.8202 121.022 32.2307 120.891 33.1724 120.891C33.2058 120.891 33.6448 120.453 33.6448 120.419V114.759C33.2808 114.291 30.6993 114.389 30.5146 114.653C30.4479 116.676 30.1405 118.671 29.4871 120.59C29.502 120.698 29.9178 120.885 29.9594 120.891H29.96Z" fill="white"/>
<path d="M38.375 102.965V91.9267L38.8474 91.6438C41.4408 91.8379 47.3235 90.2352 47.8013 94.0237C47.9823 95.4591 47.7089 96.0392 46.6975 97.0213C48.441 98.2083 48.4285 101.142 46.6671 102.282C46.28 102.532 45.1107 102.965 44.7056 102.965H38.375ZM41.2097 95.9838H43.9497C44.1076 95.9838 44.8563 95.5246 44.9129 95.2405C45.2 93.7879 42.6697 93.5473 41.6755 93.7069L41.4259 93.7456L41.2103 95.9838H41.2097ZM41.2097 100.701H43.9497C44.3167 100.701 45.2405 99.7062 45.1017 99.1869C44.7432 97.8409 42.5077 98.4579 41.5076 98.0803C41.0173 98.1982 41.1186 100.227 41.2097 100.701Z" fill="white"/>
<path d="M146.749 112.023C146.811 112.037 147.803 112.527 147.889 112.583C149.838 113.867 149.626 116.074 147.978 117.492C149.383 118.015 149.664 119.215 149.493 120.614C149.297 122.223 147.369 122.929 145.971 123.134C144.901 123.29 141.77 123.448 140.721 123.341C140.375 123.306 140.085 123.119 139.852 122.873V112.023H146.749ZM142.891 116.535C147.12 116.817 147.325 113.698 142.875 114.287L142.891 116.535ZM142.876 118.627L143.052 120.997C143.934 121.166 146.868 120.973 146.534 119.61C146.473 119.365 145.965 118.627 145.805 118.627H142.876Z" fill="white"/>
<path d="M72.9535 97.8716C72.7676 97.8103 72.5437 98.0604 72.4811 98.0604H65.3946C65.705 100.383 68.0447 100.928 69.983 100.094C70.6072 99.8264 71.1153 99.0443 71.8194 99.4761C71.8771 99.5119 72.586 100.468 72.6283 100.57C73.187 101.922 70.083 103.021 69.0603 103.135C60.3601 104.103 60.0849 91.7073 67.5628 91.2577C69.2032 91.1588 70.9414 91.8252 71.9033 93.1665C72.0475 93.3678 72.9547 95.0241 72.9547 95.1361V97.8722L72.9535 97.8716ZM65.6782 95.796H69.8358L70.092 95.3583C69.6327 93.232 65.8979 93.5626 65.4756 95.4113L65.6782 95.796Z" fill="white"/>
<path d="M91.8518 98.0609C92.2259 100.272 94.6478 100.853 96.5205 99.9864C96.9977 99.7654 97.0852 99.2729 97.7935 99.3747C98.0693 99.4146 98.9097 100.186 99.0432 100.409C99.8056 101.686 97.2925 102.758 96.2722 102.946C92.4939 103.64 89.0433 101.913 88.8229 97.7857C88.59 93.4248 92.3081 90.0925 96.6099 91.7072C98.6024 92.4546 99.8955 94.9638 99.609 97.0329C99.5524 97.4409 99.1319 98.0615 98.7495 98.0615H91.8518V98.0609ZM92.0406 95.797H96.2924C96.6427 95.797 96.626 95.0829 96.3996 94.7458C95.3799 93.2253 92.0847 93.7697 92.0406 95.797Z" fill="white"/>
<path d="M42.1544 118.249C42.3504 118.474 43.2201 117.284 43.3666 117.1C44.0766 116.21 46.1751 112.543 46.7738 112.201C47.2866 111.907 49.7133 111.854 49.7133 112.494V122.872C48.9187 123.48 47.6136 123.079 46.6898 122.966V116.551L41.9549 122.861C41.3003 123.386 40.0822 123.168 39.3203 122.966V112.305C39.9499 111.843 41.5475 111.849 42.155 112.305V118.249H42.1544Z" fill="white"/>
<path d="M29.819 91.314C30.3039 91.2378 30.7798 91.2396 31.267 91.2884C38.7199 92.0413 38.4816 102.682 31.0943 103.152C23.9298 103.608 22.7849 92.4177 29.8196 91.314H29.819ZM29.6236 94.3253C29.2585 94.4337 28.415 95.4349 28.2929 95.8268C27.4334 98.5885 29.5468 101.506 32.3768 100.093C34.2805 99.143 34.0905 94.8649 31.9955 94.3325C31.5839 94.2277 30.0114 94.2104 29.6236 94.3253Z" fill="white"/>
<path d="M158.674 93.0343C161.315 95.7364 160.767 101.032 157.168 102.625C151.862 104.974 146.895 100.175 149.031 94.8782C150.617 90.9473 155.765 90.0587 158.673 93.0337L158.674 93.0343ZM154.168 94.1486C151.153 94.4256 150.592 98.5089 152.785 99.9514C154.395 101.01 156.926 100.329 157.211 98.3284C157.545 95.9836 156.942 93.8937 154.168 94.1486Z" fill="white"/>
<path d="M121.708 91.9276C121.886 91.3564 122.754 91.6673 123.112 91.6495C123.713 91.6191 124.325 91.1075 124.694 91.9663C124.607 95.4618 124.904 99.0127 124.823 102.498C124.819 102.655 124.797 102.935 124.609 102.975L121.708 102.777V98.5315L121.41 98.27C119.935 98.5761 117.978 97.7876 116.606 98.5315V102.683C116.111 103.147 113.567 103.19 113.438 102.472L113.609 91.9544L113.892 91.6703C114.844 91.7394 115.829 91.1545 116.606 91.9276V95.5124L116.89 95.7954H121.425L121.709 95.5124V91.9276H121.708Z" fill="white"/>
<path d="M70.3029 116.739L65.8652 122.78C65.2076 123.341 64.1104 123.202 63.2991 123.072L63.1484 112.331C63.3402 111.747 65.0962 112.124 65.6377 112.015C65.7628 112.053 65.9564 112.441 65.9564 112.493V118.059L66.9803 117.1L70.4923 112.117L72.9214 112.047L73.2972 122.645C73.1018 123.484 70.9497 123.156 70.3029 122.965V116.738V116.739Z" fill="white"/>
<path d="M92.3703 71.124C96.9431 70.4581 99.8851 73.8875 99.2108 78.3317C98.6175 82.2447 93.234 83.969 90.0562 81.8356C85.7573 78.9494 87.1964 71.8774 92.3703 71.124ZM91.3446 79.3234C92.7372 80.8832 95.8716 79.9976 96.1873 77.9535C96.447 76.2728 96.0985 74.1632 94.1733 73.7636C92.2238 73.3592 90.4743 74.8916 90.5142 76.8332C90.5249 77.3466 91.0235 78.9637 91.3446 79.3228V79.3234Z" fill="white"/>
<path d="M24.7674 118.251H17.8697C17.803 118.251 17.5695 118.456 17.417 118.461C17.4855 120.452 19.3249 120.968 21.0708 120.692C22.3294 120.494 23.6237 118.655 24.4863 120.903C24.8937 121.965 21.9392 123.209 21.0708 123.334C17.1573 123.898 14.2386 121.524 14.2035 117.57C14.1302 109.301 26.4174 110.045 24.7668 118.251H24.7674ZM17.3974 116.176H21.6492C22.3913 116.176 21.7039 114.495 20.5049 114.3C19.0062 114.056 17.6398 114.581 17.3974 116.176Z" fill="white"/>
<path d="M160.446 122.871C160.294 123.366 158.357 123.187 157.987 122.869C157.668 122.594 158.038 122.031 157.327 122.206C157.258 122.226 157.241 122.536 156.998 122.642C156.141 123.014 154.26 123.458 153.355 123.346C152.205 123.205 150.638 121.958 150.442 120.787C150.277 119.797 150.859 118.074 151.725 117.517C151.979 117.354 154.164 116.362 154.305 116.362H157.14C157.688 116.362 157.25 115.064 156.873 114.741C156.502 114.423 155.553 114.238 155.063 114.273C153.98 114.351 152.583 115.637 151.739 114.959C149.652 113.285 153.731 111.768 155.046 111.632C157.062 111.424 160.447 112.809 160.447 115.135V122.871H160.446ZM153.88 120.653C154.915 121.634 157.895 120.025 157.53 118.428C157.079 117.81 152 118.869 153.88 120.653Z" fill="white"/>
<path d="M128.013 92.8416C130.787 90.2764 135.819 91.1644 137.283 94.6831C139.41 99.7974 134.714 104.858 129.481 102.662C125.833 101.13 125.195 95.4472 128.013 92.8416ZM130.924 94.3317C128.179 95.0291 128.858 100.981 132.341 100.471C135.744 99.9731 135.414 94.6027 132.771 94.2817C132.327 94.2275 131.342 94.2251 130.924 94.3317Z" fill="white"/>
<path d="M59.8536 112.843C60.6291 113.511 60.9603 114.713 61.0485 115.706C61.1212 116.524 61.1438 122.657 60.9591 122.97C60.6065 123.566 58.9798 123.319 58.5187 122.989C58.1977 122.76 58.6647 121.818 58.1256 122.027C57.8427 122.136 57.3524 122.671 56.892 122.871C53.9923 124.135 50.6138 122.718 51.2702 119.144C51.5728 117.496 53.85 116.661 55.298 116.374C56.0021 116.234 59.4474 116.486 57.5568 114.854C55.8949 113.419 54.5302 115.075 52.8624 115.405C51.9522 114.197 51.2136 113.888 52.6736 112.809C54.6648 111.338 57.9267 111.185 59.8542 112.843H59.8536ZM56.4655 118.296C55.9866 118.378 54.5088 118.901 54.2372 119.275C52.9458 121.055 57.2238 121.771 57.9427 119.199C58.2626 118.055 57.3763 118.139 56.4655 118.296Z" fill="white"/>
<path d="M103.382 71.4551V75.1346C103.382 75.2883 103.845 75.4812 104.043 75.433L107.917 75.2287V71.738L108.201 71.4551H111.13V82.1155C111.13 82.1613 110.826 82.6438 110.75 82.692L110.486 82.7671C109.656 82.3585 108.571 82.9058 107.917 82.3043V78.0589H103.382V81.7385C103.382 83.3775 102.055 82.3906 100.855 82.5634L100.585 82.2685L100.353 71.925C100.332 71.7666 100.548 71.4557 100.643 71.4557H103.383L103.382 71.4551Z" fill="white"/>
<path d="M111.503 91.4553V102.682C110.809 103.246 109.575 102.884 108.695 102.939C108.351 102.724 108.41 99.2909 108.632 98.6738L108.384 98.248H104.605C104.542 98.248 104.318 98.4981 104.133 98.4368V102.682C103.435 103.251 102.202 102.874 101.318 102.945C100.816 101.639 101.279 100.163 101.26 98.9085C101.256 98.6107 101.105 98.3046 101.101 97.9728C101.091 97.0014 100.973 91.9937 101.278 91.5655C101.75 91.341 104.133 91.3165 104.133 91.9276V95.5125L104.417 95.7954H108.385C108.853 95.4916 108.481 95.0568 108.47 94.5774C108.46 94.0944 108.397 92.0473 108.561 91.8204L111.503 91.4559L111.503 91.4553Z" fill="white"/>
<path d="M126.905 71.455C127.76 72.371 129.01 77.8724 129.743 78.2459C130.027 78.3906 130.246 77.5407 130.334 77.3305C130.691 76.4734 132.033 71.9737 132.281 71.7266C132.657 71.3508 135.169 71.097 135.31 71.7492C134.526 73.857 133.797 75.9898 132.979 78.0845C132.188 80.113 130.267 85.6955 128.431 86.5626C126.123 87.6526 123.751 86.9605 124.944 84.1189C126.575 84.5668 128.262 83.8926 128.093 81.9695C128.023 81.1797 126.703 78.2739 126.312 77.3305C125.52 75.427 124.259 73.4734 123.977 71.4538H126.905V71.455Z" fill="white"/>
<path d="M116.231 71.4568V75.2305C116.9 75.0035 117.641 74.1715 118.125 73.6313C118.414 73.3097 119.69 71.4568 119.916 71.4568H123.223C123.171 72.7308 121.485 73.7326 120.665 74.6527C120.448 74.8969 119.248 76.3204 119.248 76.4568L123.88 82.0291C124.569 83.2482 120.986 82.6711 120.579 82.4918C120.407 82.4156 119.557 81.5014 119.346 81.2703C118.762 80.6283 117.476 78.4264 116.702 78.4222C116.316 78.4204 116.289 78.7915 116.251 79.1125C116.119 80.1947 116.386 81.3263 116.139 82.4025C115.887 82.8307 113.443 82.6312 113.29 82.4114L113.234 71.7653C113.403 71.2496 115.67 71.3425 116.232 71.4556L116.231 71.4568Z" fill="white"/>
<path d="M79.006 75.4171L79.6821 75.2354L82.926 71.6381C84 70.977 85.2121 71.317 86.3766 71.4552C86.3629 72.538 85.1556 73.083 84.573 73.7107C84.2788 74.0282 82.4048 76.0948 82.4054 76.2622L86.936 82.2955C86.6238 82.9971 84.3097 82.7416 83.7355 82.4867C83.0142 82.1662 81.0205 78.9465 80.2485 78.2336C79.5093 77.8697 79.1257 77.8792 79.0251 78.7321C78.8958 79.8226 79.0429 80.9518 78.9995 81.9161C78.9417 83.1823 76.9081 82.6362 76.1719 82.3032V71.454C77.0677 71.5791 78.296 71.1497 79.0066 71.7369V75.4165L79.006 75.4171Z" fill="white"/>
<path d="M150.506 81.5629C146.071 78.168 149.049 69.9054 155.582 71.1234C157.006 71.3891 159.675 73.1955 157.793 74.5653C156.833 75.2639 156.316 73.9048 155.237 73.7339C150.468 72.9793 150.318 79.4259 153.971 80.0918C155.361 80.3449 156.475 79.3413 157.677 78.8446C159.126 80.1442 159.424 80.8863 157.583 81.9017C155.336 83.1418 152.598 83.1656 150.506 81.5635V81.5629Z" fill="white"/>
<path d="M83.854 112.841C84.0297 113.044 84.6063 114.065 84.6504 114.345L83.3662 115.523C82.8605 115.619 82.8301 115.122 82.4268 114.932C81.2409 114.373 80.5029 114.148 79.2818 114.664C76.3821 115.891 77.2988 121.285 81.0884 120.619C82.369 120.394 84.0589 118.523 84.6266 120.656C85.0465 122.234 82.2201 123.204 80.9925 123.35C73.2216 124.279 72.3132 112.651 79.6534 111.637C80.6375 111.501 83.2018 112.084 83.8546 112.84L83.854 112.841Z" fill="white"/>
<path d="M18.5848 94.7222C17.5198 95.6942 17.4561 98.3701 18.3371 99.4756C19.1186 100.455 21.0818 100.546 22.16 100.084C22.7169 99.8454 23.0124 99.1075 23.8117 99.4732C24.1912 99.6465 24.8154 100.528 24.7678 100.978C22.6192 104.283 17.2649 103.674 15.4708 100.262C12.801 95.1838 17.4561 89.7258 22.8634 91.7484C23.3078 91.9146 24.4854 93.02 24.5503 93.4816C24.6123 93.9193 23.7557 94.9425 23.3024 95.0116C22.7324 95.0986 22.4131 94.5584 21.9306 94.3797C21.1271 94.0825 19.2168 94.1451 18.5843 94.7228L18.5848 94.7222Z" fill="white"/>
<path d="M126.356 112.476C126.727 112.704 127.763 113.751 127.751 114.198L126.337 115.546C124.827 114.501 122.954 113.7 121.443 115.25C119.416 117.33 120.953 121.021 124.017 120.658C125.2 120.517 126.382 119.169 127.203 119.841C128.735 121.093 127.373 122.153 126.118 122.747C123.291 124.086 119.587 123.282 118.27 120.267C115.913 114.87 121.348 109.407 126.358 112.476H126.356Z" fill="white"/>
<path d="M108.733 113.219C109.648 112.305 111.996 111.504 113.286 111.663C114.495 111.812 117.968 113.267 116.689 114.843C115.572 116.217 114.66 114.557 113.444 114.333C112.031 114.072 110.356 115.175 110.178 116.642C109.776 119.951 111.62 121.356 114.716 120.23C115.487 119.95 116.574 118.804 116.947 120.462C117.409 122.525 113.568 123.529 111.992 123.329C107.01 122.697 105.459 116.489 108.733 113.218V113.219Z" fill="white"/>
<path d="M140.601 102.777V94.2865C138.25 94.3978 136.929 94.5902 137.754 91.7272L146.907 91.5176C148.627 91.6319 147.991 94.2865 147.498 94.2865H143.907L143.615 94.9368L143.775 102.456C143.519 103.324 141.307 102.958 140.601 102.777Z" fill="white"/>
<path d="M128.516 114.665V112.023H138.248C138.779 112.358 138.621 114.665 138.059 114.665H135.036L134.752 114.948V122.684C134.752 123.262 132.27 123.395 131.917 122.873V114.948L131.634 114.665H128.516H128.516Z" fill="white"/>
<path d="M287.1 86.4922H248.047V90.5011H287.1V86.4922Z" fill="white"/>
<path d="M288.729 37.793H239.43V43.2867H288.729V37.793Z" fill="white"/>
</svg>
