<svg width="77" height="56" viewBox="0 43 199 56" fill="none" xmlns="http://www.w3.org/2000/svg">
<g clip-path="url(#clip0_1041_61)">
<path d="M67.3283 0V33.88H96.7583V63.78H67.3283V113.61H108.228V143.51C96.6983 143.03 84.6283 144.66 73.3083 142.27C54.6783 138.33 39.5483 121.87 37.3883 102.92C38.1983 69.57 36.3883 36.06 37.3883 2.72C37.4183 1.77 37.3383 0.83 37.9083 0H67.3383L67.3283 0Z" fill="white"/>
<path d="M198.501 59.79V65.77C197.301 82.55 188.591 96.6 173.901 104.72C170.901 106.38 162.511 110.12 159.351 110.12H115.711V80.22C118.941 80.1 122.221 80.37 125.461 80.24C126.641 80.19 127.731 79.73 128.911 79.7C139.711 79.4 159.591 83.2 165.501 72.41C173.881 57.1 158.001 40.94 142.991 49.43C136.851 52.9 136.331 57.77 133.921 63.78H105.491C104.321 62.36 104.581 58.96 104.751 57.06C106.671 35.91 127.681 18.24 148.361 16.92C172.991 15.35 196.561 34.99 198.501 59.79Z" fill="white"/>
<path d="M196.011 113.609H115.711V143.509H196.011V113.609Z" fill="white"/>
<path d="M29.43 33.8809H0V63.7809H29.43V33.8809Z" fill="#FF3495"/>
</g>
<defs>
<clipPath id="clip0_1041_61">
<rect width="198.5" height="143.61" fill="white"/>
</clipPath>
</defs>
</svg>
