<svg width="224" height="39" viewBox="0 30 576 39" fill="none" xmlns="http://www.w3.org/2000/svg">
<path d="M175.057 62.0421C175.057 69.6337 167.988 75.1311 158.041 75.1311H134.742V28.0107H157.255C166.941 28.0107 173.748 33.2463 173.748 40.5762C173.748 45.55 171.13 48.6913 167.203 50.5238C171.392 52.0945 175.057 56.283 175.057 62.0421ZM144.952 36.6495V46.8589H156.994C160.659 46.8589 163.015 44.7646 163.015 41.8851C163.015 39.0055 160.397 36.6495 156.994 36.6495H144.952ZM158.041 66.4924C161.968 66.4924 164.847 64.1364 164.847 60.7332C164.847 57.3301 162.229 54.9741 158.041 54.9741H144.952V66.4924H158.041Z" fill="white"/>
<path d="M213.538 74.8693L197.308 56.283H194.69V74.8693H184.219V28.0107H194.69V46.0735H197.308L213.015 28.0107H225.318L205.685 50.5238L227.151 74.8693H213.538Z" fill="white"/>
<path d="M227.148 51.5707C227.148 37.4346 237.619 27.2251 252.279 27.2251C266.939 27.2251 277.41 37.4346 277.41 51.5707C277.41 65.7068 266.939 75.9162 252.279 75.9162C237.619 75.9162 227.148 65.7068 227.148 51.5707ZM266.415 51.5707C266.415 42.6702 260.656 36.6492 252.279 36.6492C243.902 36.6492 238.143 42.6702 238.143 51.5707C238.143 60.4712 243.902 66.4922 252.279 66.4922C260.656 66.4922 266.415 60.4712 266.415 51.5707Z" fill="white"/>
<path d="M317.469 28.0107H327.94V74.8693H317.469V56.0212H296.527V74.8693H286.055V28.0107H296.527V46.5971H317.469V28.0107Z" fill="white"/>
<path d="M350.449 74.8693V37.4348H334.219V28.0107H376.889V37.4348H360.659V74.8693H350.449Z" fill="white"/>
<path d="M421.916 48.6911V74.8691H414.325L412.23 67.5393C409.874 71.466 404.901 75.9162 397.309 75.9162C387.885 75.9162 381.078 69.6335 381.078 60.9948C381.078 52.356 387.885 46.3351 401.759 46.3351H411.969C411.445 40.3141 408.304 36.1257 402.544 36.1257C397.832 36.1257 394.691 38.7435 393.12 41.623L383.696 40.0524C386.052 31.9372 394.168 27.2251 403.068 27.2251C414.586 27.2251 421.916 35.0785 421.916 48.6911ZM411.707 54.4503H402.021C394.167 54.4503 391.55 57.0681 391.55 60.4712C391.55 64.3979 394.691 67.0157 399.927 67.0157C406.733 67.0157 411.707 62.0419 411.707 54.4503Z" fill="white"/>
<path d="M462.233 74.8693L446.003 56.283H443.385V74.8693H432.914V28.0107H443.385V46.0735H446.003L461.71 28.0107H474.013L454.38 50.5238L475.846 74.8693H462.233Z" fill="white"/>
<path d="M494.691 74.8693V37.4348H478.461V28.0107H521.131V37.4348H504.901V74.8693H494.691Z" fill="white"/>
<path d="M573.488 54.4503H535.792C536.839 61.7801 542.074 66.4922 549.928 66.4922C555.425 66.4922 559.614 64.1361 561.97 60.733L571.655 62.3037C568.252 71.2042 559.09 75.9162 549.142 75.9162C535.006 75.9162 524.797 65.7068 524.797 51.5707C524.797 37.4346 535.006 27.2251 549.142 27.2251C563.278 27.2251 573.488 37.4346 573.488 51.0471C573.75 52.356 573.488 53.4032 573.488 54.4503ZM536.577 46.3351H562.493C560.661 40.5759 555.949 36.3874 549.404 36.3874C543.121 36.1257 538.148 40.3141 536.577 46.3351Z" fill="white"/>
<path fill-rule="evenodd" clip-rule="evenodd" d="M8.26381 7.02944C1.23438 14.0589 1.23438 25.3726 1.23438 48V52C1.23438 74.6274 1.23438 85.9411 8.26381 92.9706C15.2932 100 26.607 100 49.2344 100H53.2344C75.8618 100 87.1755 100 94.2049 92.9706C101.234 85.9411 101.234 74.6274 101.234 52V48C101.234 25.3726 101.234 14.0589 94.2049 7.02944C87.1755 0 75.8618 0 53.2344 0H49.2344C26.607 0 15.2932 0 8.26381 7.02944ZM18.1095 30.4169C18.6512 56.4169 31.6511 72.0418 54.4427 72.0418H55.7346V57.1668C64.1096 58.0001 70.4425 64.1252 72.9842 72.0418H84.8179C81.5679 60.2085 73.0258 53.6668 67.6925 51.1668C73.0258 48.0835 80.5258 40.5835 82.3175 30.4169H71.5672C69.2338 38.6669 62.318 46.1668 55.7346 46.8751V30.4169H44.9843V59.2501C38.3177 57.5835 29.9012 49.5002 29.5262 30.4169H18.1095Z" fill="white"/>
</svg>
