<svg width="308" height="308" viewBox="0 0 308 308" fill="none" xmlns="http://www.w3.org/2000/svg">
<rect x="0.142593" y="0.142593" width="307.715" height="307.715" fill="black"/>
<rect x="0.142593" y="0.142593" width="307.715" height="307.715" stroke="black" stroke-width="0.285185"/>
<path d="M91.5195 65.7627C88.9546 65.5165 86.3312 65.5131 84.0762 65.5586V65.5645L83.5879 65.5771C76.239 65.758 71.907 66.9515 69.3027 69.7402C66.69 72.5384 65.6981 77.0616 65.3994 84.2607L65.4473 93.3252C65.6219 138.639 64.8461 183.975 65.8906 229.211L65.9414 229.835C66.2346 232.904 67.0721 235.216 68.293 236.96C69.5935 238.818 71.3541 240.066 73.4395 240.894C77.6423 242.561 83.1043 242.499 88.6074 242.247C97.5467 241.836 101.566 239.671 103.509 235.907C104.499 233.989 104.978 231.605 105.231 228.702C105.485 225.797 105.509 222.437 105.618 218.564C106.217 197.343 106.111 176.07 105.938 154.783C105.765 133.506 105.524 112.214 105.858 90.958C105.671 89.0461 105.643 86.8558 105.578 84.6201C105.513 82.3582 105.411 80.0347 105.081 77.8252C104.44 73.5347 102.954 69.7928 99.3281 67.7842L98.9707 67.5957C96.9293 66.5683 94.2791 66.0276 91.5195 65.7627ZM158.112 68.9365C153.751 66.2383 148.384 65.1855 140.883 65.7979L140.862 65.7998H140.852C134.943 66.2865 131.7 68.2988 129.827 71.3994C127.922 74.5546 127.377 78.9194 127.106 84.2646C127.441 132.592 126.484 180.954 127.598 229.202C128.013 232.336 128.698 234.957 130.048 237.01C131.389 239.047 133.415 240.568 136.606 241.446H136.607C145.561 243.907 152.352 240.579 157.885 234.959C162.75 230.016 166.595 223.345 170.019 217.342L171.462 214.816C177.09 205.023 182.525 195.116 187.953 185.199C193.339 175.36 198.717 165.51 204.263 155.763C192.694 131.23 181.548 106.502 169.448 82.2559C165.909 76.0391 162.484 71.6413 158.112 68.9365ZM283.749 249.49H223.699V242.524L224.15 242.481C226.136 242.289 228.141 242.265 230.082 242.172C232.038 242.078 233.958 241.914 235.853 241.452C237.917 240.947 239.236 240.22 240.044 239.369C240.841 238.53 241.182 237.528 241.21 236.378C241.238 235.213 240.944 233.905 240.469 232.492C239.994 231.082 239.353 229.607 238.709 228.104H238.708C237.864 226.131 236.911 224.193 235.938 222.251C235.21 220.797 234.469 219.338 233.761 217.866L233.064 216.391C225.635 200.312 218.251 184.197 210.886 168.091L210.816 168.157C201.792 184.188 192.956 200.406 183.898 216.427V216.428C182.56 218.793 181.085 221.15 179.647 223.5C178.207 225.855 176.8 228.209 175.583 230.588C174.913 231.899 174.292 233.149 173.847 234.318C173.4 235.491 173.148 236.542 173.183 237.46C173.216 238.357 173.524 239.135 174.233 239.8C174.959 240.479 176.137 241.069 177.965 241.498H177.966C179.857 241.943 181.788 242.101 183.755 242.192C185.707 242.283 187.723 242.308 189.707 242.49L190.161 242.532V249.5H25V249H24.5186V242.526L24.9785 242.49C27.4088 242.296 29.9631 242.263 32.4482 241.877C34.9144 241.494 37.2143 240.774 39.0674 239.256C41.7011 237.097 42.8824 233.617 43.4102 229.775C43.9384 225.93 43.7984 221.87 43.8926 218.573C44.4916 197.384 44.385 176.148 44.2119 154.9C44.0389 133.664 43.7988 112.413 44.1328 91.1973C43.9311 89.0847 43.9109 86.7117 43.8418 84.3262C43.772 81.9163 43.6528 79.4776 43.2568 77.1924C42.4663 72.6301 40.5961 68.7764 35.9082 67.0029C34.2344 66.3703 32.5253 66.0885 30.7725 65.9209C29.8952 65.837 29.0132 65.7823 28.1182 65.7256C27.2259 65.669 26.3213 65.6102 25.4141 65.5186L24.9648 65.4736V58.5H207.332V65.4609L206.887 65.5088C205.836 65.6226 204.349 65.6656 202.722 65.7363C201.08 65.8077 199.271 65.908 197.53 66.1328C195.785 66.3581 194.137 66.7056 192.809 67.2607C191.476 67.8177 190.532 68.5558 190.088 69.5225V69.5234C189.365 71.0948 189.661 73.344 190.4 75.7285C191.131 78.0851 192.242 80.4194 192.989 82.1104C193.942 84.2616 194.97 86.3899 196.009 88.5225C197.046 90.6524 198.094 92.7887 199.082 94.9463C204.25 106.234 209.191 118.148 214.669 129.263L215.771 131.475L215.772 131.476C215.796 131.523 215.828 131.589 215.866 131.663C226.478 112.717 237.584 94.1736 248.083 75.1914C248.599 73.9834 248.987 72.9219 249.198 71.9863C249.41 71.0453 249.436 70.2651 249.26 69.6094C248.921 68.3508 247.761 67.3221 244.941 66.583V66.582C243.005 66.0753 241.063 65.9085 239.085 65.8184C237.123 65.729 235.094 65.7151 233.068 65.5088L232.619 65.4639V58.5H282.856V65.7734L282.319 65.7334C274.904 65.1848 269.257 68.1842 264.63 72.7539C259.988 77.3381 256.401 83.4738 253.126 89.1582L223.226 143.991L256.771 215.887C259.455 220.986 262.146 227.173 265.809 232.326C269.462 237.467 274.008 241.466 280.326 242.231C280.783 242.287 281.224 242.256 281.768 242.256C282.284 242.256 282.859 242.288 283.432 242.514L283.749 242.639V249.49Z" fill="white" stroke="white"/>
</svg>
